<?xml version="1.0" encoding="UTF-8"?>
<svg version="1.1" xmlns="http://www.w3.org/2000/svg" width="2400" height="594">
<path d="M0 0 C0.59474121 0.53302734 1.18948242 1.06605469 1.80224609 1.61523438 C8.60587896 7.74758496 15.209384 13.88512671 21 21 C21.94837368 22.11400123 22.89768938 23.22720081 23.84765625 24.33984375 C47.34635502 52.17478231 63.91612887 84.98596971 72.9375 120.25 C73.34319214 121.82527466 73.34319214 121.82527466 73.75708008 123.43237305 C77.89598919 140.67148702 79.51030332 158.03245653 79.39111328 175.73217773 C79.37497962 178.56607995 79.39111575 181.39856112 79.41015625 184.23242188 C79.43095434 201.37180438 77.37123183 218.05312955 73.1875 234.6875 C72.79957275 236.25673218 72.79957275 236.25673218 72.40380859 237.85766602 C63.01496138 275.00076449 44.97079413 309.85639631 18.8125 337.9765625 C16.85019557 340.07089533 16.85019557 340.07089533 15 343 C14.34 343 13.68 343 13 343 C6.25684223 316.28028078 -0.28964279 289.51748215 -6.70010376 262.71609497 C-8.22825934 256.3274957 -9.76086653 249.93996816 -11.29370117 243.55249023 C-16.20058818 223.09817039 -21.09081734 202.64002655 -25.94395447 182.17288208 C-27.79945084 174.34796332 -29.66022709 166.52430277 -31.52216434 158.70091438 C-33.03892031 152.3253367 -34.54793393 145.94798923 -36.05131531 139.56924534 C-36.9825324 135.62594623 -37.92077679 131.68434418 -38.86097336 127.74317741 C-39.29496203 125.91740807 -39.72597629 124.09092875 -40.15379715 122.2637043 C-40.73767144 119.77159877 -41.33199832 117.28221177 -41.92895508 114.79321289 C-42.09558749 114.07038872 -42.26221991 113.34756454 -42.43390179 112.60283661 C-43.62692277 107.69714408 -45.14718427 103.78892553 -48.8125 100.25 C-51.68150679 98.61056755 -53.68474941 98.13000983 -57 98 C-63.27065447 99.97942921 -66.20355527 102.96748129 -70.125 108.125 C-70.6806665 108.83148682 -71.23633301 109.53797363 -71.80883789 110.26586914 C-73.55653175 112.49778959 -75.28129671 114.74569852 -77 117 C-77.53963379 117.70592285 -78.07926758 118.4118457 -78.63525391 119.13916016 C-80.77741409 121.94426118 -82.91734956 124.75098024 -85.04882812 127.56420898 C-89.52091505 133.44355375 -94.18484163 139.1467162 -98.90332031 144.82910156 C-104.39867805 151.45360036 -109.71315932 158.20878968 -115 165 C-121.30330984 173.0811071 -127.68129272 181.09219114 -134.15917969 189.03417969 C-139.52513186 195.62299573 -144.77161655 202.30185136 -150 209 C-156.306178 217.07892496 -162.68123391 225.09211903 -169.15917969 233.03417969 C-174.52513186 239.62299573 -179.77161655 246.30185136 -185 253 C-191.306178 261.07892496 -197.68123391 269.09211903 -204.15917969 277.03417969 C-209.52513186 283.62299573 -214.77161655 290.30185136 -220 297 C-226.306178 305.07892496 -232.68123391 313.09211903 -239.15917969 321.03417969 C-244.52513186 327.62299573 -249.77161655 334.30185136 -255 341 C-261.39045091 349.18688806 -267.85097816 357.30734005 -274.41625977 365.35498047 C-278.34957624 370.18177193 -282.2200554 375.05170889 -286 380 C-291.71043258 378.56122121 -295.53098289 375.64196156 -300.0625 372.0625 C-301.18676392 371.18525269 -301.18676392 371.18525269 -302.33374023 370.2902832 C-304.56561184 368.53879313 -306.78492855 366.77267019 -309 365 C-309.59296875 364.52852539 -310.1859375 364.05705078 -310.796875 363.57128906 C-324.1625941 352.870758 -336.67310014 340.66960343 -347 327 C-347.45777832 326.39736328 -347.91555664 325.79472656 -348.38720703 325.17382812 C-349.89247976 323.18519287 -351.38632478 321.18858597 -352.875 319.1875 C-353.34010986 318.56480225 -353.80521973 317.94210449 -354.28442383 317.30053711 C-356.9346819 313.68125264 -359.1081487 310.09065861 -361 306 C-352.79389438 299.29657086 -344.56999683 292.62285512 -336.22216797 286.09643555 C-331.95766038 282.76022742 -327.72318665 279.38833277 -323.5 276 C-318.71056643 272.15735793 -313.90005836 268.3443538 -309.0625 264.5625 C-304.05225557 260.64512972 -299.10886026 256.65331342 -294.1875 252.625 C-288.7270651 248.15833253 -283.18785975 243.81931944 -277.5625 239.5625 C-270.96184154 234.56470723 -264.54004736 229.38542578 -258.17089844 224.09667969 C-251.54639964 218.60132195 -244.79121032 213.28684068 -238 208 C-230.60944377 202.2353238 -223.26341786 196.42441044 -216 190.5 C-208.17638634 184.11866558 -200.24928465 177.87801305 -192.29101562 171.66601562 C-185.4738463 166.34131666 -178.7033374 160.96758053 -172 155.5 C-164.17638634 149.11866558 -156.24928465 142.87801305 -148.29101562 136.66601562 C-141.4738463 131.34131666 -134.7033374 125.96758053 -128 120.5 C-120.73648152 114.57550749 -113.38769855 108.7684484 -106 103 C-101.87930421 99.7798983 -97.76336294 96.55402329 -93.66064453 93.31103516 C-92.55911889 92.44140965 -91.45594159 91.57387193 -90.35107422 90.70849609 C-88.81154281 89.50057047 -87.28056664 88.28176495 -85.75 87.0625 C-84.87859375 86.37285156 -84.0071875 85.68320313 -83.109375 84.97265625 C-79.66517989 81.75169601 -79.04934464 79.77717814 -78.75 75.0625 C-78.90279261 70.24562829 -78.90279261 70.24562829 -81 66 C-87.09057643 63.30327468 -93.85181324 61.95298975 -100.30761719 60.40991211 C-101.30641812 60.16787143 -102.30521906 59.92583075 -103.33428669 59.6764555 C-106.65424999 58.8729764 -109.97553632 58.07511672 -113.296875 57.27734375 C-115.67873848 56.70231982 -118.06052682 56.12698456 -120.44224548 55.55136108 C-126.20788293 54.15891794 -131.97441876 52.77023688 -137.74137765 51.3832798 C-142.41613209 50.25884703 -147.09038085 49.13233282 -151.76431274 48.00448608 C-181.84125608 40.74693951 -211.92755835 33.52942043 -242.02734375 26.3671875 C-243.29516567 26.06539896 -244.56298759 25.76361042 -245.86922836 25.45267677 C-258.04969919 22.55327972 -270.2307021 19.65620992 -282.41488552 16.77244949 C-286.86527771 15.71848706 -291.31497463 14.66161085 -295.76452827 13.60411453 C-297.8220373 13.11590884 -299.8798752 12.62908678 -301.93806267 12.14374924 C-304.73647596 11.4838011 -307.53375279 10.81923044 -310.33081055 10.15356445 C-311.14380993 9.96313033 -311.95680931 9.77269621 -312.79444504 9.57649136 C-316.67761724 8.64730598 -320.33279235 7.62069712 -324 6 C-319.72801425 0.34677175 -314.52983559 -3.63066088 -309 -8 C-308.05253906 -8.77472656 -307.10507813 -9.54945312 -306.12890625 -10.34765625 C-274.12336606 -35.94376446 -235.28034406 -51.58555635 -195 -58 C-194.26120605 -58.12842285 -193.52241211 -58.2568457 -192.76123047 -58.38916016 C-124.62807746 -70.01292642 -50.85204363 -45.64073471 0 0 Z " fill="#0054CC" transform="translate(2321,60)"/>
<path d="M0 0 C153.45521193 0 153.45521193 0 166.125 2.75 C166.96063477 2.92700439 167.79626953 3.10400879 168.65722656 3.28637695 C188.46740467 7.64044956 204.83398468 15.42180353 219 30 C219.68707031 30.70125 220.37414062 31.4025 221.08203125 32.125 C235.69616695 47.91718149 240.76238356 69.98393797 240.28515625 91.0234375 C238.8098988 111.59620583 231.51658462 129.52933387 216.484375 143.921875 C211.9456719 147.71840024 207.01976923 150.88281674 202 154 C204.81295952 156.14504219 207.6924885 158.14770397 210.625 160.125 C227.72426595 172.17734604 239.09910551 188.09913699 243.2734375 208.80078125 C247.26721516 233.15699467 244.08346261 259.62935852 230.0234375 280.3203125 C216.42591508 298.32784219 199.4731457 308.61066159 177.9375 314.8125 C177.26686523 315.00755127 176.59623047 315.20260254 175.90527344 315.40356445 C119.25653919 330.58355033 58.6473449 319 0 319 C0 213.73 0 108.46 0 0 Z M44 42 C44 72.69 44 103.38 44 135 C61.43163422 135.05825523 61.43163422 135.05825523 78.86328125 135.09765625 C85.98196425 135.10957159 93.10059538 135.1236063 100.21923828 135.15087891 C105.96400391 135.17274807 111.70871384 135.18459809 117.45351791 135.18975449 C119.63574982 135.19342513 121.81797899 135.20059232 124.00018692 135.21146011 C144.66205333 135.3101864 165.87846523 135.23536558 181.9296875 120.19140625 C191.83409161 109.62812547 194.65800438 97.30215851 194.3046875 83.2578125 C193.67964623 71.62997869 188.27630789 61.7641786 179.75 53.93359375 C162.99624333 41.1753876 142.47518602 41.70777375 122.515625 41.8046875 C120.24591192 41.80842341 117.97619721 41.81126765 115.70648193 41.81326294 C109.76850841 41.82085391 103.83063464 41.84046292 97.8927002 41.8626709 C90.74892233 41.88684977 83.60511089 41.89593192 76.46130371 41.90757751 C65.64080002 41.92689033 54.8205147 41.9652446 44 42 Z M44 177 C44 210 44 243 44 277 C62.32029877 277.08737275 62.32029877 277.08737275 80.640625 277.14648438 C88.12148486 277.16436233 95.60223372 277.18542773 103.08300781 277.22631836 C109.11955348 277.25910521 115.15597998 277.27689357 121.19260788 277.28463173 C123.48649341 277.29014071 125.78037302 277.30089763 128.07420731 277.31719017 C147.78767465 277.45153998 167.37032459 276.65897721 183 263 C183.59296875 262.52304687 184.1859375 262.04609375 184.796875 261.5546875 C192.401643 254.85845373 197.52922859 243.94893099 198.8515625 233.97265625 C199.56611 219.66290231 197.85036581 206.02474032 188 195 C187.52175781 194.40703125 187.04351562 193.8140625 186.55078125 193.203125 C176.59551395 181.86866449 160.38605083 178.32674974 146 177 C142.57533235 176.86875968 139.15534503 176.87315545 135.72851562 176.88647461 C134.73248322 176.88632858 133.73645081 176.88618256 132.7102356 176.8860321 C129.44221767 176.88672466 126.17425788 176.89448614 122.90625 176.90234375 C120.630819 176.90421026 118.3553876 176.90563307 116.07995605 176.90663147 C110.10907876 176.91043826 104.13822603 176.92025277 98.1673584 176.93133545 C90.99362699 176.94339395 83.81988734 176.94796057 76.64614868 176.95378876 C65.76408207 176.96346556 54.88206929 176.982635 44 177 Z " fill="#000000" transform="translate(0,189)"/>
<path d="M0 0 C4.46580589 3.9826976 8.26778686 7.8210617 12.0234375 12.515625 C12.3534375 1.955625 12.6834375 -8.604375 13.0234375 -19.484375 C27.5434375 -19.484375 42.0634375 -19.484375 57.0234375 -19.484375 C57.0234375 58.395625 57.0234375 136.275625 57.0234375 216.515625 C42.5034375 216.515625 27.9834375 216.515625 13.0234375 216.515625 C12.6934375 205.625625 12.3634375 194.735625 12.0234375 183.515625 C8.3934375 187.475625 4.7634375 191.435625 1.0234375 195.515625 C-1.38279194 197.60713648 -3.58602644 199.46284914 -6.1640625 201.265625 C-6.79006348 201.71115723 -7.41606445 202.15668945 -8.06103516 202.61572266 C-32.47011156 219.50871892 -61.80186352 224.89159698 -90.92041016 219.98974609 C-112.6219759 215.90311661 -132.47418456 206.17241326 -148.9765625 191.515625 C-149.86601563 190.72671875 -150.75546875 189.9378125 -151.671875 189.125 C-173.38835145 168.56582794 -186.74061024 138.60616854 -188.1027832 108.74902344 C-189.03242504 72.07096404 -180.85504908 39.46456446 -155.375 11.984375 C-115.0372486 -29.53591634 -45.83691074 -38.25757904 0 0 Z M-115.9765625 36.515625 C-116.80671875 37.26585937 -117.636875 38.01609375 -118.4921875 38.7890625 C-134.13268333 53.63348519 -142.688925 74.1178564 -143.32568359 95.57055664 C-143.56832764 118.49584073 -136.10677763 139.54303012 -120.17578125 156.3125 C-119.45003906 157.03953125 -118.72429687 157.7665625 -117.9765625 158.515625 C-117.05810547 159.45148438 -117.05810547 159.45148438 -116.12109375 160.40625 C-100.3745659 175.3134107 -79.50112114 180.10344821 -58.44140625 179.78515625 C-41.48662807 179.18772178 -24.50324886 171.95917683 -11.9765625 160.515625 C-10.73132812 159.39027344 -10.73132812 159.39027344 -9.4609375 158.2421875 C6.30076352 143.28272874 14.88128488 122.78577388 15.4453125 101.18945312 C15.57322053 77.76629573 8.36674935 56.99077374 -7.734375 39.66796875 C-24.41600914 23.65476246 -44.05073625 16.83011037 -66.77441406 17.04711914 C-84.84908661 17.57044841 -102.51016324 24.21361365 -115.9765625 36.515625 Z " fill="#000000" transform="translate(1064.9765625,291.484375)"/>
<path d="M0 0 C1.09634766 0.98033203 1.09634766 0.98033203 2.21484375 1.98046875 C3.03855469 2.68558594 3.86226562 3.39070313 4.7109375 4.1171875 C8.36017254 7.27596535 11.29587226 10.08850676 14.21484375 13.98046875 C14.54484375 3.42046875 14.87484375 -7.13953125 15.21484375 -18.01953125 C29.73484375 -18.01953125 44.25484375 -18.01953125 59.21484375 -18.01953125 C59.21484375 59.86046875 59.21484375 137.74046875 59.21484375 217.98046875 C44.69484375 217.98046875 30.17484375 217.98046875 15.21484375 217.98046875 C14.88484375 207.09046875 14.55484375 196.20046875 14.21484375 184.98046875 C10.58484375 188.94046875 6.95484375 192.90046875 3.21484375 196.98046875 C-20.79995331 216.44509374 -48.32778644 225.3386255 -79.22460938 222.77832031 C-102.22289861 220.28668227 -125.50822981 211.68676551 -142.78515625 195.98046875 C-143.62175781 195.26117188 -144.45835937 194.541875 -145.3203125 193.80078125 C-168.38927546 173.68937765 -183.30650694 144.92816708 -185.65625 114.21582031 C-187.67956523 79.12969485 -180.55378645 44.20937288 -156.74414062 17.19555664 C-117.95919297 -25.2305653 -46.40501925 -39.74173444 0 0 Z M-113.78515625 37.98046875 C-115.01298828 39.07101562 -115.01298828 39.07101562 -116.265625 40.18359375 C-131.11577297 54.11262815 -140.23618263 74.69377417 -140.98828125 95.07421875 C-141.41507577 118.96120585 -134.57857261 140.01289384 -118.10791016 157.70068359 C-103.59260833 172.68722958 -84.59979226 180.74036686 -63.92089844 181.45141602 C-43.98182686 181.66610562 -24.7109711 175.61570562 -9.78515625 161.98046875 C-8.53992188 160.85511719 -8.53992188 160.85511719 -7.26953125 159.70703125 C-1.30341547 154.04458005 3.18713221 148.13740234 7.21484375 140.98046875 C7.67632812 140.17996094 8.1378125 139.37945312 8.61328125 138.5546875 C18.74482505 119.79598065 20.38950289 95.81075677 14.40625 75.484375 C6.96809575 53.60888528 -6.0041169 37.13252008 -26.53515625 26.23046875 C-54.78933143 12.54401449 -90.31949869 16.59180913 -113.78515625 37.98046875 Z " fill="#000000" transform="translate(455.78515625,290.01953125)"/>
<path d="M0 0 C16.17 0 32.34 0 49 0 C58.35550552 21.76954169 67.63048397 43.56874565 76.80937195 65.4131012 C81.75314587 77.17563979 86.7205893 88.92820079 91.68652344 100.68139648 C92.48504578 102.57144348 93.28354828 104.46149887 94.08203125 106.3515625 C94.48001923 107.29361038 94.8780072 108.23565826 95.28805542 109.20625305 C97.85843858 115.29218455 100.42395898 121.38014608 102.9863739 127.46943665 C104.7353177 131.62529511 106.48570037 135.78054686 108.23617554 139.9357605 C109.07171115 141.92026098 109.90654193 143.90505838 110.7406311 145.89016724 C111.89820164 148.64498883 113.05821858 151.39876846 114.21875 154.15234375 C114.55851364 154.96275116 114.89827728 155.77315857 115.24833679 156.60812378 C117.02612705 160.81914698 118.90101052 164.93543825 121 169 C121.21725235 168.45575882 121.4345047 167.91151764 121.65834045 167.3507843 C140.24114268 120.80339222 140.24114268 120.80339222 148.3125 100.9375 C154.58129193 85.50753193 160.82442415 70.06728908 167.0567894 54.62257767 C167.79606824 52.79071631 168.53555918 50.95894055 169.27505493 49.12716675 C175.88087594 32.76367808 182.45341105 16.38728352 189 0 C205.17 0 221.34 0 238 0 C235.98378547 6.04864358 233.90971915 11.80030694 231.359375 17.60546875 C230.82782555 18.82901817 230.82782555 18.82901817 230.28553772 20.07728577 C229.51570748 21.84871474 228.74425347 23.61943876 227.97134399 25.38952637 C225.82496992 30.30664888 223.69232691 35.22972578 221.55859375 40.15234375 C221.10647018 41.19476227 220.65434662 42.23718079 220.18852234 43.31118774 C215.00808291 55.26732694 209.9097762 67.25823068 204.8125 79.25 C196.40818957 99.01379793 187.96703747 118.76142927 179.49917603 138.49807739 C172.46217256 154.90142998 165.45253229 171.31616794 158.46609497 187.74111938 C144.87472687 219.69063733 144.87472687 219.69063733 138.06176758 235.49380493 C137.4146675 236.99533243 136.76845119 238.49724123 136.12329102 239.99960327 C123.39521779 269.62370311 123.39521779 269.62370311 117 279.4375 C116.58049072 280.09306885 116.16098145 280.7486377 115.72875977 281.42407227 C112.16471733 286.91173784 108.34283541 292.09818578 104 297 C103.33871094 297.75539063 102.67742187 298.51078125 101.99609375 299.2890625 C88.43731897 313.82167193 70.59336981 320.88198814 50.95263672 322.20532227 C47.8818826 322.30204088 44.82220078 322.32933398 41.75 322.3125 C40.65953369 322.30686035 39.56906738 322.3012207 38.44555664 322.29541016 C18.43086633 321.99639622 -0.38110162 316.29603382 -17 305 C-17.99 303.515 -17.99 303.515 -19 302 C-15.60217029 297.1634496 -12.19350765 292.33478649 -8.77587891 287.51220703 C-7.58722707 285.83070753 -6.40202807 284.14676214 -5.22021484 282.46044922 C-3.48795044 279.98885608 -1.74497009 277.52513316 0 275.0625 C0.53906982 274.28793457 1.07813965 273.51336914 1.63354492 272.71533203 C2.1463501 271.99587402 2.65915527 271.27641602 3.1875 270.53515625 C3.85845703 269.58201538 3.85845703 269.58201538 4.54296875 268.60961914 C6.19489327 266.78469649 7.75155548 265.96022303 10 265 C10.4846875 265.45890625 10.969375 265.9178125 11.46875 266.390625 C21.69868485 275.75494998 31.45505567 278.47874658 45.25 278.24609375 C56.49715745 277.50799904 66.24045828 273.27100623 74.0625 265.0625 C81.63473999 255.90890868 87.10362917 245.27310753 92.25 234.625 C92.66950928 233.80539795 93.08901855 232.9857959 93.52124023 232.14135742 C95.38841285 228.11339572 96.49274031 225.18966568 95.15234375 220.8515625 C94.46889102 219.21971714 93.74602333 217.60420576 93 216 C92.5344873 214.91219238 92.06897461 213.82438477 91.58935547 212.70361328 C90.18558996 209.42554527 88.73900263 206.16803209 87.28125 202.91366577 C85.58029845 199.11465608 83.89454647 195.3088986 82.20703125 191.50390625 C81.85605377 190.71333328 81.50507629 189.92276031 81.14346313 189.10823059 C77.5435063 180.99042044 74.01600194 172.84194585 70.5 164.6875 C69.17079696 161.60667413 67.84129646 158.52597669 66.51171875 155.4453125 C66.1634201 154.63816299 65.81512146 153.83101349 65.45626831 152.99940491 C60.42564259 141.34627821 55.36709297 129.70524457 50.3125 118.0625 C48.31895425 113.47007646 46.3254864 108.87761912 44.33203125 104.28515625 C43.85814972 103.19347641 43.38426819 102.10179657 42.89602661 100.97703552 C38.95658146 91.90124327 35.01924957 82.82453644 31.09155273 73.74365234 C27.99658267 66.5922075 24.88753693 59.44703372 21.77056885 52.30514526 C19.66563812 47.48064206 17.56379274 42.65479726 15.4621582 37.82885742 C14.41293837 35.42167179 13.36234341 33.01508501 12.31030273 30.60913086 C10.82572342 27.21360843 9.34599606 23.81600765 7.8671875 20.41796875 C7.42087982 19.40043015 6.97457214 18.38289154 6.51473999 17.33451843 C6.0959256 16.36972061 5.67711121 15.40492279 5.24560547 14.41088867 C4.70152542 13.16428719 4.70152542 13.16428719 4.14645386 11.89250183 C2.59955359 7.98967415 1.32759046 3.98277139 0 0 Z " fill="#000000" transform="translate(1622,272)"/>
<path d="M0 0 C16.17 0 32.34 0 49 0 C55.88663055 14.92103285 55.88663055 14.92103285 58.41796875 21 C58.85981003 22.05254723 58.85981003 22.05254723 59.31057739 23.12635803 C59.94215869 24.63159702 60.57271522 26.13726635 61.20230103 27.64334106 C62.58434224 30.94927202 63.97167874 34.25297428 65.35850525 37.55690002 C66.09889498 39.32097855 66.83901358 41.0851709 67.57887268 42.84947205 C71.41261984 51.99048195 75.26795098 61.12233937 79.12564087 70.25326538 C80.71916862 74.02506375 82.31214968 77.79709293 83.90516663 81.56910706 C84.71156162 83.47849354 85.5179887 85.38786647 86.32444763 87.29722595 C89.23136707 94.17960674 92.13736083 101.06237792 95.04296875 107.9453125 C95.4567981 108.92551361 95.87062744 109.90571472 96.29699707 110.9156189 C98.33028024 115.73173794 100.36312668 120.54804031 102.39501953 125.36474609 C105.79620525 133.42571274 109.20157069 141.48468934 112.63671875 149.53125 C113.16737221 150.77642534 113.69797362 152.02162287 114.22851562 153.2668457 C115.16813517 155.46982586 116.11062045 157.67158703 117.05664062 159.87182617 C117.45431641 160.80486572 117.85199219 161.73790527 118.26171875 162.69921875 C118.60162842 163.49158936 118.94153809 164.28395996 119.29174805 165.1003418 C120 167 120 167 120 169 C120.66 169 121.32 169 122 169 C122.25890518 168.19317024 122.25890518 168.19317024 122.52304077 167.37004089 C124.40330903 161.60903013 126.52485674 155.98314173 128.7890625 150.36328125 C129.16042831 149.43559937 129.53179413 148.50791748 129.91441345 147.55212402 C131.1486523 144.47119023 132.38675418 141.39182533 133.625 138.3125 C134.50919102 136.10838036 135.39322023 133.9041958 136.27709961 131.69995117 C139.17993547 124.46470295 142.08917171 117.23203536 145 110 C145.25238182 109.37289124 145.50476364 108.74578247 145.7647934 108.09967041 C152.31110516 91.83399516 158.86818126 75.57267856 165.43334961 59.31460571 C168.41900135 51.92032842 171.40038536 44.5243521 174.37742615 37.12660217 C176.16563329 32.68371288 177.95578001 28.24160675 179.74630737 23.7996521 C180.57687845 21.73785205 181.40658131 19.67570201 182.23538208 17.6131897 C183.362936 14.8075918 184.49357118 12.00325576 185.625 9.19921875 C185.95600204 8.37332245 186.28700409 7.54742615 186.6280365 6.69650269 C188.8859579 1.1140421 188.8859579 1.1140421 190 0 C191.50418739 -0.09311889 193.01271356 -0.11746028 194.51977539 -0.11352539 C195.96115623 -0.11341209 195.96115623 -0.11341209 197.43165588 -0.11329651 C198.99882607 -0.10555458 198.99882607 -0.10555458 200.59765625 -0.09765625 C201.66165146 -0.0962413 202.72564667 -0.09482635 203.82188416 -0.09336853 C207.23545083 -0.08775064 210.648953 -0.07519511 214.0625 -0.0625 C216.37044176 -0.05748731 218.67838455 -0.052924 220.98632812 -0.04882812 C226.65757426 -0.0377754 232.32878253 -0.02101987 238 0 C236.02386058 6.2375593 233.72824358 12.25426689 231.140625 18.26171875 C230.76401733 19.14414246 230.38740967 20.02656616 229.99938965 20.93572998 C228.75287431 23.85440158 227.50141497 26.77092622 226.25 29.6875 C225.35673131 31.77661804 224.46383615 33.86589583 223.57128906 35.95532227 C221.68180281 40.3777438 219.79062561 44.79943699 217.8984375 49.22070312 C215.05947569 55.85718152 212.23127175 62.49820254 209.40625 69.140625 C199.14045328 93.27582875 188.83965059 117.395714 178.49890137 141.49890137 C171.46223181 157.90137983 164.45308818 174.31530542 157.4671936 190.73947144 C154.62134917 197.4274456 151.77047086 204.11327562 148.91947937 210.79905701 C146.82102875 215.72135064 144.72535329 220.64476301 142.63916016 225.57226562 C110.12820158 302.34966746 110.12820158 302.34966746 77.4921875 316.5234375 C51.60437954 326.36649415 21.89685552 324.08177204 -3.15234375 312.8828125 C-8.40988056 310.39714633 -13.2587731 307.36903596 -18 304 C-17.45140157 300.23361345 -16.52030971 297.90812989 -14.2265625 294.8828125 C-13.65373535 294.11751221 -13.0809082 293.35221191 -12.49072266 292.5637207 C-11.87503418 291.75894287 -11.2593457 290.95416504 -10.625 290.125 C-9.35392035 288.43377885 -8.08309046 286.74236995 -6.8125 285.05078125 C-6.17441406 284.20725098 -5.53632812 283.3637207 -4.87890625 282.49462891 C-2.09138912 278.79363488 0.6428557 275.05444922 3.375 271.3125 C4.27844972 270.07928339 5.1820748 268.84619521 6.0859375 267.61328125 C6.71757813 266.75089844 7.34921875 265.88851563 8 265 C10.88619305 266.33797029 13.21886925 267.87732396 15.6875 269.875 C26.50037276 278.12586746 38.4683112 279.20405704 51.69921875 277.69140625 C64.25877658 275.214565 73.36626278 267.33032932 80.4375 256.875 C84.43300027 250.49126994 87.79481546 243.74746049 91.125 237 C91.87221313 235.51282471 91.87221313 235.51282471 92.63452148 233.99560547 C93.08770752 233.04830566 93.54089355 232.10100586 94.0078125 231.125 C94.41660645 230.28195312 94.82540039 229.43890625 95.24658203 228.5703125 C96.87214211 223.02465584 94.45722107 218.32528128 92.18359375 213.27734375 C91.89572495 212.63215286 91.60785614 211.98696198 91.31126404 211.32221985 C90.68695285 209.92469928 90.05954807 208.52855743 89.42938232 207.13366699 C87.71082796 203.32854589 86.0157583 199.5129437 84.31640625 195.69921875 C83.96130981 194.90411896 83.60621338 194.10901917 83.24035645 193.28982544 C79.38159362 184.64021099 75.62425221 175.94750675 71.875 167.25 C71.19278291 165.66915727 70.51049118 164.08834674 69.828125 162.50756836 C68.49940594 159.42905956 67.17118057 156.35033842 65.84326172 153.27148438 C63.21457796 147.17814208 60.57677204 141.08876336 57.9375 135 C57.43847168 133.84854492 56.93944336 132.69708984 56.42529297 131.51074219 C51.2977082 119.68122416 46.16373124 107.85447811 41.03079224 96.02728271 C39.50345557 92.50796239 37.97619982 88.98860697 36.44897461 85.46923828 C35.95352646 84.32752167 35.45807831 83.18580505 34.94761658 82.00949097 C33.96816927 79.75243383 32.98872786 77.49537413 32.0092926 75.23831177 C29.67950788 69.86957996 27.34927079 64.50104545 25.01802063 59.13294983 C19.22773544 45.7989002 13.46152591 32.45453513 7.72338867 19.09796143 C7.03744535 17.50180542 6.35092974 15.90589523 5.66381836 14.3102417 C4.71549571 12.10733081 3.76952442 9.90342563 2.82421875 7.69921875 C2.53745773 7.03420853 2.25069672 6.3691983 1.95524597 5.68403625 C0 1.11436796 0 1.11436796 0 0 Z " fill="#000000" transform="translate(638,272)"/>
<path d="M0 0 C1.10214844 1.01126953 1.10214844 1.01126953 2.2265625 2.04296875 C2.98195313 2.70683594 3.73734375 3.37070312 4.515625 4.0546875 C23.29802978 21.51393318 32.2450627 48.55469104 33.39113998 73.64611435 C33.62765019 83.18267296 33.58185761 92.72017352 33.53074431 102.25881743 C33.51175236 106.41205698 33.51020961 110.56530588 33.50666809 114.71858215 C33.49741278 122.55202285 33.4728891 130.38533515 33.44261962 138.21871978 C33.4088704 147.15004842 33.39253848 156.0813838 33.37753332 165.01276052 C33.3463322 183.35625044 33.29140368 201.69956477 33.2265625 220.04296875 C18.0465625 220.04296875 2.8665625 220.04296875 -12.7734375 220.04296875 C-12.7827832 215.67369141 -12.79212891 211.30441406 -12.80175781 206.80273438 C-12.83560694 192.32597248 -12.89100157 177.84935127 -12.95734024 163.37270355 C-12.99701903 154.60019149 -13.02946787 145.82776769 -13.04443359 137.05517578 C-13.05750833 129.40209186 -13.08461992 121.74920305 -13.12805057 114.09622908 C-13.15053557 110.05024567 -13.16635606 106.00450173 -13.16532135 101.95845032 C-13.16456697 98.13664706 -13.18282372 94.31537052 -13.21460533 90.49370384 C-13.22695594 88.45000742 -13.22010144 86.40622189 -13.21229553 84.36250305 C-13.41149205 66.33857024 -18.52134499 48.42742195 -31.33203125 35.2265625 C-44.52534665 23.42646121 -61.25338698 19.52676844 -78.6484375 20.10546875 C-95.97109284 21.30100559 -110.74040417 28.56351597 -122.7734375 41.04296875 C-135.48595835 55.92039414 -139.22739157 74.50555417 -139.20581055 93.57568359 C-139.21485643 94.96690219 -139.22519041 96.35811291 -139.23669434 97.74931335 C-139.2639595 101.47772613 -139.27350667 105.20598649 -139.27954841 108.93448591 C-139.28901267 112.84893143 -139.31522164 116.76326658 -139.33955383 120.67764282 C-139.38300325 128.06846675 -139.41168192 135.45926899 -139.43487722 142.85018122 C-139.4620454 151.27362638 -139.50594907 159.69695931 -139.55116594 168.1203239 C-139.64370301 185.42782676 -139.71331612 202.73531831 -139.7734375 220.04296875 C-154.6234375 220.04296875 -169.4734375 220.04296875 -184.7734375 220.04296875 C-184.7734375 142.16296875 -184.7734375 64.28296875 -184.7734375 -15.95703125 C-170.2534375 -15.95703125 -155.7334375 -15.95703125 -140.7734375 -15.95703125 C-140.4434375 -5.72703125 -140.1134375 4.50296875 -139.7734375 15.04296875 C-135.3184375 10.09296875 -135.3184375 10.09296875 -130.7734375 5.04296875 C-117.33081685 -8.22041696 -99.66432489 -17.46628069 -80.7734375 -19.95703125 C-79.979375 -20.06660156 -79.1853125 -20.17617188 -78.3671875 -20.2890625 C-51.43335751 -23.48532397 -21.00838567 -18.16276821 0 0 Z " fill="#000000" transform="translate(1570.7734375,287.95703125)"/>
<path d="M0 0 C6.17421305 5.30246535 12.24631036 10.96038825 17.015625 17.58984375 C17.015625 18.57984375 17.015625 19.56984375 17.015625 20.58984375 C15.01453226 22.02784009 13.09380986 23.22872313 10.953125 24.42578125 C10.32841309 24.7870108 9.70370117 25.14824036 9.06005859 25.52041626 C7.0511351 26.67917747 5.03381353 27.82230957 3.015625 28.96484375 C1.03225729 30.10109286 -0.94929054 31.24046587 -2.93066406 32.38018799 C-4.20883624 33.11453026 -5.48812266 33.84693677 -6.76855469 34.57733154 C-10.16422908 36.51840706 -13.50487298 38.51708398 -16.796875 40.62890625 C-19.984375 42.58984375 -19.984375 42.58984375 -21.984375 42.58984375 C-23.24609375 41.0859375 -23.24609375 41.0859375 -24.671875 39.02734375 C-34.72457258 25.37582842 -48.32220891 18.39039857 -64.8046875 15.01171875 C-79.73628582 13.03062217 -97.71595823 13.44860305 -110.15625 22.96875 C-116.24635116 28.36916021 -119.71169003 33.3785782 -120.984375 41.58984375 C-121.21036361 47.98343822 -120.2505076 52.63190586 -115.984375 57.58984375 C-108.83672183 64.91618825 -98.94061048 67.46705644 -89.28125 69.96875 C-88.45589249 70.18418961 -87.63053497 70.39962921 -86.78016663 70.62159729 C-76.89560017 73.17153536 -66.93175177 75.38141481 -56.96118164 77.56665039 C-41.97976909 80.86098463 -26.47483085 84.39988935 -12.984375 91.96484375 C-12.28779785 92.34568115 -11.5912207 92.72651855 -10.87353516 93.11889648 C4.36724956 101.66769749 14.78116171 113.1856381 19.890625 130.08984375 C23.96821302 148.53607526 20.58420269 166.49021631 11.23828125 182.67529297 C7.87190306 187.94668629 3.5025524 192.27523557 -0.984375 196.58984375 C-1.64050781 197.25371094 -2.29664063 197.91757812 -2.97265625 198.6015625 C-14.27496963 209.37143285 -29.76578235 215.24040321 -44.671875 218.83984375 C-45.68664917 219.08492676 -45.68664917 219.08492676 -46.72192383 219.33496094 C-79.78415818 226.81593448 -118.3902578 220.96575205 -147.4453125 203.56640625 C-159.32062987 195.83163537 -174.37522795 183.41728491 -178.984375 169.58984375 C-172.09600424 164.84342828 -164.97783742 160.58160748 -157.734375 156.40234375 C-155.62487248 155.17990752 -153.51549299 153.95725897 -151.40625 152.734375 C-150.02324707 151.93543823 -150.02324707 151.93543823 -148.61230469 151.12036133 C-146.81582584 150.0740843 -145.03798675 148.99531013 -143.27758789 147.8894043 C-140.984375 146.58984375 -140.984375 146.58984375 -138.87109375 146.65234375 C-136.39299609 147.88369663 -135.38604672 149.32968842 -133.796875 151.58984375 C-122.33736595 166.91784948 -106.99385939 176.44666162 -88.1484375 180.08203125 C-71.32080556 182.45483635 -52.67524767 181.96034199 -38.1328125 172.2734375 C-30.37522637 166.19431091 -26.45077993 159.12937851 -24.5703125 149.4609375 C-24.11113986 143.47960967 -26.48709925 138.27328523 -29.984375 133.58984375 C-41.99882294 122.84555409 -60.47039439 120.36690565 -75.734375 117.08984375 C-112.43277326 109.14461243 -112.43277326 109.14461243 -125.484375 103.71484375 C-126.31549805 103.37461182 -127.14662109 103.03437988 -128.00292969 102.68383789 C-134.46143916 99.96542928 -140.38098396 96.83129947 -145.984375 92.58984375 C-146.70625 92.0484375 -147.428125 91.50703125 -148.171875 90.94921875 C-159.35937254 81.88056544 -165.81160511 68.72215784 -167.69921875 54.57421875 C-169.1541983 39.34676157 -166.42507041 22.42765603 -156.76708984 10.02685547 C-153.69711925 6.3498603 -150.38965576 2.95592703 -146.984375 -0.41015625 C-146.32566406 -1.07917969 -145.66695312 -1.74820312 -144.98828125 -2.4375 C-107.76563897 -37.73897365 -37.45620228 -30.4755158 0 0 Z " fill="#000000" transform="translate(1329.984375,291.41015625)"/>
<path d="M0 0 C0.66 0 1.32 0 2 0 C2 88.11 2 176.22 2 267 C-21.42767296 276.37106918 -21.42767296 276.37106918 -29.5 278.75 C-30.45084473 279.03383545 -31.40168945 279.3176709 -32.38134766 279.61010742 C-38.66135721 281.43651658 -44.96661845 283.00708894 -51.375 284.3125 C-52.4587793 284.53341309 -52.4587793 284.53341309 -53.56445312 284.75878906 C-67.54743478 287.39837048 -81.39783886 288.33080597 -95.60327148 288.26074219 C-98.19603606 288.24996452 -100.78811476 288.26074352 -103.38085938 288.2734375 C-113.11306269 288.28037446 -122.3990086 287.73969053 -132 286 C-131.3673347 281.96531031 -130.07643582 278.68888594 -128.33203125 275.00390625 C-127.77580078 273.82119141 -127.21957031 272.63847656 -126.64648438 271.41992188 C-126.0351999 270.13409383 -125.42387053 268.84828713 -124.8125 267.5625 C-124.17845343 266.21837383 -123.54500004 264.8739677 -122.91210938 263.52929688 C-121.59686058 260.73605103 -120.27906762 257.94402711 -118.95947266 255.15283203 C-116.23958728 249.39481777 -113.55079398 243.6223596 -110.86190796 237.849823 C-109.40942927 234.73251974 -107.95458649 231.61632012 -106.5 228.5 C-105.91665553 227.2500052 -105.33332219 226.0000052 -104.75 224.75 C-103.58333333 222.25 -102.41666667 219.75 -101.25 217.25 C-100.96125504 216.63126007 -100.67251007 216.01252014 -100.37501526 215.37503052 C-99.79163329 214.12492775 -99.20824909 212.87482603 -98.62486267 211.62472534 C-97.16725519 208.50130616 -95.70968633 205.37786897 -94.25219727 202.25439453 C-91.61857662 196.61050792 -88.98467178 190.96675483 -86.34933472 185.32366943 C-80.38643833 172.55517496 -74.43069229 159.78349647 -68.5 147 C-62.27605027 133.58439259 -56.02388275 120.18207889 -49.76611328 106.78222656 C-47.13425654 101.14634968 -44.50419121 95.50963683 -41.87399292 89.87298584 C-40.41606887 86.74862288 -38.95802854 83.62431419 -37.5 80.5 C-36.91666611 79.25000026 -36.33333278 78.00000026 -35.75 76.75 C-34.58333333 74.25 -33.41666667 71.75 -32.25 69.25 C-31.96129028 68.6313356 -31.67258057 68.0126712 -31.37512207 67.3752594 C-30.79138406 66.1243937 -30.20764383 64.87352903 -29.62390137 63.62266541 C-28.17174132 60.51091918 -26.71961916 57.39915528 -25.26757812 54.28735352 C-22.5691964 48.5046797 -19.87045967 42.72217242 -17.17041016 36.9402771 C-15.91505709 34.25200035 -14.65991396 31.5636256 -13.40478516 28.87524414 C-12.8147199 27.6115237 -12.22455535 26.3478496 -11.63427734 25.08422852 C-7.73330675 16.73325345 -3.85559125 8.37201694 0 0 Z " fill="#0054CC" transform="translate(2260,189)"/>
<path d="M0 0 C88.44 0 176.88 0 268 0 C264.94311228 3.05688772 262.09895606 4.57242912 258.25390625 6.3359375 C257.58036102 6.65114853 256.9068158 6.96635956 256.21286011 7.29112244 C253.99892992 8.32533964 251.78079947 9.35019237 249.5625 10.375 C248.00567762 11.09993974 246.44912131 11.82545112 244.89282227 12.55151367 C240.98184893 14.37431893 237.06747763 16.18968933 233.15197754 18.00274658 C230.08633084 19.42340576 227.02362607 20.85031812 223.9609375 22.27734375 C215.42924515 26.24913614 206.88850959 30.20135973 198.34716797 34.15234375 C193.18939051 36.53822429 188.03200716 38.92495494 182.875 41.3125 C182.00000854 41.71757782 181.12501709 42.12265564 180.22351074 42.54000854 C167.48640531 48.43849513 154.77175693 54.38276952 142.07647705 60.37069702 C130.37607418 65.88933986 118.65154736 71.35352368 106.9140625 76.79296875 C99.64524087 80.16207898 92.38434657 83.54803776 85.125 86.9375 C84.50234253 87.22820374 83.87968506 87.51890747 83.23815918 87.81842041 C80.08610518 89.29007881 76.93414132 90.76193013 73.78222656 92.23388672 C70.01916534 93.99117103 66.25573503 95.74766375 62.4921875 97.50390625 C61.87374969 97.79250015 61.25531189 98.08109406 60.61813354 98.37843323 C57.49855174 99.83415507 54.37892747 101.2897859 51.25927734 102.74536133 C44.32106897 105.98274309 37.38382094 109.22216772 30.44758606 112.46377563 C25.46972902 114.7897252 20.48980206 117.11121245 15.50895691 119.43075562 C11.77469891 121.17047173 8.04372015 122.91701889 4.31478882 124.66812134 C2.47872931 125.52936775 0.64148612 126.38802686 -1.19628906 127.24560547 C-3.47244541 128.30791788 -5.74663852 129.3744501 -8.01855469 130.44580078 C-9.02692383 130.9148584 -10.03529297 131.38391602 -11.07421875 131.8671875 C-12.39812622 132.48762939 -12.39812622 132.48762939 -13.7487793 133.12060547 C-16 134 -16 134 -19 134 C-25.07510445 87.40611852 -17.98720546 43.16929311 0 0 Z " fill="#0054CC" transform="translate(1944,139)"/>
<path d="M0 0 C15.18 0 30.36 0 46 0 C46 110.55 46 221.1 46 335 C30.82 335 15.64 335 0 335 C0 224.45 0 113.9 0 0 Z " fill="#000000" transform="translate(563,173)"/>
</svg>
