<?xml version="1.0" encoding="UTF-8"?>
<svg version="1.1" xmlns="http://www.w3.org/2000/svg" width="1280" height="460">
<path d="M0 0 C4.4893416 -0.00435976 8.97848832 -0.01818026 13.46777344 -0.04101562 C171.04087801 -0.82553733 171.04087801 -0.82553733 214.61547852 39.98242188 C221.65965176 47.12546071 226.14589259 54.45523538 226.31079102 64.68237305 C226.30047852 65.42334229 226.29016602 66.16431152 226.27954102 66.92773438 C226.27051758 67.71446533 226.26149414 68.50119629 226.25219727 69.31176758 C225.35686626 99.83695918 198.76398135 125.48476408 178.59204102 145.67773438 C178.02469238 146.24617065 177.45734375 146.81460693 176.87280273 147.40026855 C170.70971375 153.56202277 164.50175006 159.61061751 157.84204102 165.24023438 C156.72376121 166.21293835 155.60654609 167.18686792 154.49047852 168.16210938 C146.46546587 175.11380538 138.25819558 181.76933247 129.84204102 188.24023438 C129.05909668 188.84383789 128.27615234 189.44744141 127.46948242 190.06933594 C103.5846065 208.46064458 78.96016653 225.58484649 53.84204102 242.24023438 C51.44164512 239.83983848 51.10378026 238.17061053 50.15454102 234.92773438 C44.32523086 217.01117817 33.23450639 204.74085972 18.84204102 193.24023438 C19.15915039 192.77617187 19.47625977 192.31210938 19.80297852 191.83398438 C21.50349052 189.3160992 23.17423532 186.77992266 24.84204102 184.24023438 C25.22247559 183.66644043 25.60291016 183.09264648 25.99487305 182.50146484 C38.15810532 164.06043527 49.11668307 142.99669908 44.62719727 120.25195312 C42.19580227 110.92555739 38.25366115 103.40616276 31.84204102 96.24023438 C31.26969727 95.57507813 30.69735352 94.90992187 30.10766602 94.22460938 C24.28444627 87.90367854 17.21283149 83.5186927 9.84204102 79.24023438 C9.26019043 78.89992188 8.67833984 78.55960937 8.07885742 78.20898438 C-48.07737259 46.09282714 -125.33730785 46.23951307 -188.15795898 45.24023438 C-189.25705597 45.22219757 -189.25705597 45.22219757 -190.37835693 45.20379639 C-274.60865813 43.88407191 -359.06297159 50.69048717 -634.37280273 86.27148438 C-635.24707413 86.41834183 -636.12134552 86.56519928 -637.02210999 86.71650696 C-640.80346971 87.35419127 -644.58292225 88.00060692 -648.359375 88.66674805 C-650.20873657 88.98736206 -650.20873657 88.98736206 -652.09545898 89.31445312 C-653.11510742 89.49580811 -654.13475586 89.67716309 -655.18530273 89.86401367 C-658.53435766 90.28787156 -661.78572372 90.30275157 -665.15795898 90.24023438 C-664.82795898 88.59023437 -664.49795898 86.94023438 -664.15795898 85.24023438 C-577.03392978 66.29884625 -489.30800321 50.46590426 -89.78295898 2.42773438 C-88.83839844 2.37034088 -87.89383789 2.31294739 -86.9206543 2.2538147 C-81.54966283 1.93270471 -76.1778366 1.64036907 -70.80386353 1.37384033 C-69.07070081 1.28632362 -67.33774968 1.19448471 -65.60507202 1.09783936 C-43.75887971 -0.11184352 -21.8722319 0.01810552 0 0 Z " fill="#000000" transform="translate(1010.157958984375,-0.240234375)"/>
<path d="M0 0 C13.81065978 12.03902996 22.49449018 29.11829249 24.6796875 47.3359375 C24.75350765 50.33816292 24.73973427 53.33359914 24.6796875 56.3359375 C44.60139694 51.39007685 44.60139694 51.39007685 64.15234375 45.18359375 C66.6796875 44.3359375 66.6796875 44.3359375 68.6796875 44.3359375 C68.16251277 46.85756582 67.64154833 49.3782978 67.1171875 51.8984375 C66.94807861 52.7116748 66.77896973 53.52491211 66.60473633 54.36279297 C65.40208612 60.07758743 64.1308398 65.7740483 62.8203125 71.46484375 C62.65978897 72.16442703 62.49926544 72.86401031 62.33387756 73.58479309 C61.52245665 77.12013401 60.70504717 80.65391797 59.87866211 84.18579102 C59.57640212 85.4988013 59.27438889 86.81186843 58.97265625 88.125 C58.6996167 89.29756348 58.42657715 90.47012695 58.14526367 91.67822266 C57.99162354 92.55526855 57.8379834 93.43231445 57.6796875 94.3359375 C58.0096875 94.6659375 58.3396875 94.9959375 58.6796875 95.3359375 C59.79687838 94.11718381 60.91402826 92.89839252 62.03100586 91.67944336 C63.01942563 90.60151256 64.00854031 89.52421863 64.99829102 88.44750977 C67.49424069 85.73041493 69.98069676 83.00648515 72.4375 80.25390625 C85.50872418 65.66016799 102.91014612 47.13058851 123.3046875 44.3984375 C129.07158193 44.08431895 132.73600188 44.76676659 137.21484375 48.67578125 C141.81037499 53.91135862 141.10419724 59.73126072 140.6796875 66.3359375 C140.18502454 69.84406449 139.38072761 73.22073368 138.4921875 76.6484375 C138.11864136 78.15229004 138.11864136 78.15229004 137.73754883 79.68652344 C134.10837566 94.00598959 130.06969326 108.22615609 126.0871582 122.45043945 C125.805065 123.45937759 125.5229718 124.46831573 125.23233032 125.50782776 C124.6971861 127.41980485 124.16038655 129.33131967 123.62167358 131.24229431 C123.26016708 132.53339867 123.26016708 132.53339867 122.89135742 133.85058594 C122.57541878 134.9732486 122.57541878 134.9732486 122.25309753 136.11859131 C121.15310851 140.37219053 120.55854232 144.25004913 120.6171875 148.6484375 C120.63072266 149.97294922 120.63072266 149.97294922 120.64453125 151.32421875 C120.65613281 151.98808594 120.66773438 152.65195312 120.6796875 153.3359375 C123.84112264 154.35815743 124.3625449 154.4980326 127.4921875 152.8984375 C131.48709152 149.97558367 134.65077502 146.22235032 137.6796875 142.3359375 C138.75863281 140.98435547 138.75863281 140.98435547 139.859375 139.60546875 C142.15041986 135.49043754 142.18414764 132.51220547 142.1796875 127.8984375 C142.89886876 104.5855717 153.93805694 84.99213462 169.6796875 68.3359375 C170.2675 67.69527344 170.8553125 67.05460937 171.4609375 66.39453125 C183.85010336 53.33331158 201.26602196 44.77349 219.3046875 43.9609375 C227.93601685 44.31587067 236.94936085 46.42010784 243.07421875 52.78515625 C248.94105757 59.49736089 249.35827457 65.31879033 249.1171875 73.92578125 C248.48631391 83.10302052 243.52759291 90.50489903 236.8671875 96.59765625 C217.48641237 111.99845078 189.79549057 116.99564032 165.6796875 116.3359375 C164.79555753 131.38850209 164.79555753 131.38850209 169.6796875 145.3359375 C170.4840625 146.728125 170.4840625 146.728125 171.3046875 148.1484375 C176.88626665 153.28936566 184.01464355 156.24827224 191.58984375 156.390625 C205.13398245 155.61859231 214.97818339 150.78564685 224.6796875 141.3359375 C227.51102467 138.11422579 230.15440015 134.80187629 232.6796875 131.3359375 C234.3296875 131.9959375 235.9796875 132.6559375 237.6796875 133.3359375 C235.44984365 145.57149092 223.55665463 156.30619159 213.98828125 163.22265625 C204.90734155 169.02287866 195.38950113 172.34661454 184.6796875 173.3359375 C183.98617188 173.40683594 183.29265625 173.47773438 182.578125 173.55078125 C173.2389559 174.03119118 163.16353571 170.87311999 155.6796875 165.3359375 C150.04560071 160.2368044 146.74012564 154.21839746 143.6796875 147.3359375 C143.03902344 148.19316406 142.39835937 149.05039062 141.73828125 149.93359375 C125.49880508 171.48958385 125.49880508 171.48958385 112.5546875 173.3359375 C107.73252965 173.59052347 104.82231174 172.82151204 100.6796875 170.3359375 C96.00037591 165.41034635 95.46087623 161.5095898 95.54101562 154.97705078 C95.74427653 151.10578944 96.48093113 147.52426996 97.4296875 143.7734375 C97.63650146 142.92483154 97.84331543 142.07622559 98.05639648 141.2019043 C101.08894463 129.17838426 104.73314689 117.3030304 108.31347656 105.43334961 C110.79680341 97.15341122 113.14000577 88.87431711 115.05078125 80.44140625 C115.21876724 79.71149979 115.38675323 78.98159332 115.55982971 78.22956848 C116.43554281 74.2056245 117.02783699 70.45114694 116.6796875 66.3359375 C114.98980513 63.04451831 114.98980513 63.04451831 111.7421875 62.7109375 C101.67374409 63.23100173 93.1401638 73.25847684 86.25195312 79.84472656 C84.10026669 81.88548755 81.9080553 83.88032092 79.71704102 85.87866211 C70.43765693 94.34416458 70.43765693 94.34416458 61.6796875 103.3359375 C61.05781555 103.99821854 60.4359436 104.66049957 59.79522705 105.34284973 C54.03458195 111.91355114 52.01117551 117.57010306 50.52734375 126.08984375 C50.29687851 127.27190903 50.06641327 128.4539743 49.82896423 129.67185974 C49.10592801 133.40943534 48.42298574 137.15296196 47.7421875 140.8984375 C47.02760514 144.67393832 46.30500293 148.44782567 45.58042908 152.22142029 C45.13419841 154.56148288 44.6954821 156.90299301 44.26490784 159.24598694 C44.07057663 160.2947551 43.87624542 161.34352325 43.67602539 162.42407227 C43.50696182 163.3509938 43.33789825 164.27791534 43.16371155 165.23292542 C42.6796875 167.3359375 42.6796875 167.3359375 41.6796875 168.3359375 C40.04495868 168.42294092 38.40654695 168.44294813 36.76953125 168.43359375 C35.78017578 168.43037109 34.79082031 168.42714844 33.77148438 168.42382812 C32.73056641 168.41544922 31.68964844 168.40707031 30.6171875 168.3984375 C29.57240234 168.39392578 28.52761719 168.38941406 27.45117188 168.38476562 C24.8606209 168.37293663 22.27018191 168.35645439 19.6796875 168.3359375 C21.95547172 158.3114836 24.23315596 148.28746341 26.51316452 138.26396942 C27.57218346 133.6079885 28.63058501 128.95186916 29.6875 124.29541016 C30.71044798 119.78871098 31.73511639 115.28240594 32.7609024 110.77635193 C33.14895231 109.07040396 33.53641653 107.36432264 33.92324066 105.65809631 C34.47161581 103.23978984 35.02192773 100.82193483 35.57324219 98.40429688 C35.74723919 97.63888832 35.92123619 96.87347977 36.10050583 96.08487701 C36.9626947 92.32642364 37.86264647 88.58345514 38.83850098 84.8527832 C39.11835279 83.7761227 39.11835279 83.7761227 39.40385818 82.67771149 C39.91354247 80.73538157 40.43475273 78.79608633 40.95684814 76.85705566 C41.69685356 73.25231763 41.8098814 70.00503821 41.6796875 66.3359375 C38.08506419 64.07595155 35.11373075 64.12725663 30.9296875 64.2109375 C29.17398437 64.23800781 29.17398437 64.23800781 27.3828125 64.265625 C26.04476563 64.30042969 26.04476563 64.30042969 24.6796875 64.3359375 C24.72609375 65.04234375 24.7725 65.74875 24.8203125 66.4765625 C25.78438326 93.88371688 14.20629302 121.27965055 -4.1953125 141.2734375 C-24.05259105 162.03708705 -50.23533903 173.0162166 -78.90161133 173.7409668 C-99.77657577 173.93923647 -119.64295261 169.62347175 -135.2199707 154.8215332 C-151.57953704 138.16231004 -156.8637196 115.85797817 -156.74194336 93.12329102 C-155.95607104 61.64430648 -142.04765969 34.13027059 -120.01953125 12.02734375 C-88.98654087 -17.27876991 -35.17724314 -28.08580951 0 0 Z M-93.3203125 11.3359375 C-93.93519531 11.87734375 -94.55007813 12.41875 -95.18359375 12.9765625 C-114.92409899 30.94722934 -125.86500113 64.52738124 -127.4465332 90.40087891 C-128.24034285 111.98746129 -124.18803002 131.73325132 -109.3203125 148.3359375 C-100.86063648 156.68448477 -90.56920123 161.96000481 -78.578125 162.4609375 C-60.83526363 161.78015625 -45.98569534 154.89322319 -33.3203125 142.3359375 C-10.20508349 115.92376616 -2.46169729 80.6497774 -4.3203125 46.3359375 C-5.58460129 32.7246582 -11.11724159 19.43591787 -20.3203125 9.3359375 C-20.949375 8.62695312 -21.5784375 7.91796875 -22.2265625 7.1875 C-26.74484795 2.36440958 -31.35862529 -0.85355281 -37.3203125 -3.6640625 C-38.4753125 -4.2621875 -39.6303125 -4.8603125 -40.8203125 -5.4765625 C-60.35031799 -12.33951624 -79.68279355 -1.90254906 -93.3203125 11.3359375 Z M199.6796875 58.3359375 C199.16019531 58.70976562 198.64070313 59.08359375 198.10546875 59.46875 C182.99241461 71.23509052 173.16003933 91.39499625 167.6796875 109.3359375 C184.34089381 110.39379187 201.53375325 104.82934937 214.1796875 93.8984375 C221.82934669 86.49999865 227.84437698 78.61784698 228.7421875 67.67578125 C228.59767703 62.26567057 227.04457803 57.85248254 223.4296875 53.8359375 C214.55780726 48.9967301 207.13489579 52.78418665 199.6796875 58.3359375 Z M143.6796875 138.3359375 C143.6796875 139.3259375 143.6796875 140.3159375 143.6796875 141.3359375 C144.3396875 141.0059375 144.9996875 140.6759375 145.6796875 140.3359375 C145.0196875 139.6759375 144.3596875 139.0159375 143.6796875 138.3359375 Z " fill="#000000" transform="translate(1031.3203125,205.6640625)"/>
<path d="M0 0 C9.07539852 7.17313158 14.08267229 16.00322265 16.125 27.375 C17.96564558 44.53690555 14.54163617 62.07069489 3.89257812 75.98535156 C-8.05944483 90.6811896 -23.81223565 99.98098686 -42.71533203 102.17871094 C-56.41328972 103.42369827 -72.46506987 103.81664894 -84.2265625 95.75390625 C-86.23273271 94.07575913 -88.03453294 92.23181097 -89.875 90.375 C-90.022006 91.19186028 -90.022006 91.19186028 -90.17198181 92.02522278 C-91.19134435 97.68697448 -92.21378981 103.3481632 -93.23803711 109.0090332 C-93.62001572 111.12249667 -94.00120482 113.236103 -94.3815918 115.34985352 C-94.9281048 118.38595772 -95.4774438 121.42153891 -96.02734375 124.45703125 C-96.28208717 125.8774749 -96.28208717 125.8774749 -96.54197693 127.32661438 C-96.70206741 128.20730087 -96.8621579 129.08798737 -97.02709961 129.99536133 C-97.16699814 130.77035477 -97.30689667 131.54534821 -97.45103455 132.34382629 C-97.875 134.375 -97.875 134.375 -98.875 137.375 C-116.035 137.375 -133.195 137.375 -150.875 137.375 C-149.74997894 124.99976835 -149.74997894 124.99976835 -148.88830566 120.13708496 C-148.69485062 119.03245911 -148.50139557 117.92783325 -148.30207825 116.78973389 C-148.09217758 115.61839905 -147.88227692 114.44706421 -147.66601562 113.24023438 C-147.33170784 111.34310699 -147.33170784 111.34310699 -146.99064636 109.40765381 C-146.38533412 105.97357865 -145.77436373 102.54053326 -145.1621685 99.10767937 C-144.52030927 95.50351851 -143.88334931 91.89849156 -143.24572754 88.2935791 C-142.17622367 82.25115074 -141.10318984 76.20935789 -140.02783203 70.16796875 C-138.78481449 63.18450862 -137.54662714 56.20020579 -136.31116152 49.21540594 C-134.99311328 41.76399304 -133.67160448 34.31319695 -132.34905815 26.86258125 C-131.9687859 24.7189524 -131.58915801 22.57521026 -131.20967102 20.43144226 C-130.50384415 16.44534166 -129.79414246 12.45994061 -129.08398438 8.47460938 C-128.76913338 6.69331635 -128.76913338 6.69331635 -128.44792175 4.8760376 C-128.25446671 3.79397034 -128.06101166 2.71190308 -127.86169434 1.5970459 C-127.69430504 0.65543358 -127.52691574 -0.28617874 -127.35445404 -1.25632477 C-126.875 -3.625 -126.875 -3.625 -125.875 -6.625 C-110.365 -6.625 -94.855 -6.625 -78.875 -6.625 C-79.535 -1.675 -80.195 3.275 -80.875 8.375 C-79.92625 7.488125 -78.9775 6.60125 -78 5.6875 C-58.54709266 -10.84747124 -21.29831009 -14.12263783 0 0 Z M-78.4375 29.3125 C-83.64966264 37.36069231 -85.79280632 45.79643951 -84.875 55.375 C-82.95621177 61.53532012 -80.32744475 64.18845166 -75 67.5625 C-67.93289485 70.26462844 -61.04704653 69.39213809 -53.875 67.375 C-45.92361933 63.78718189 -41.18348122 57.85764289 -37.84375 49.92578125 C-35.4884025 42.97968701 -34.6130416 36.09076641 -37 29.0625 C-40.04318444 24.7006023 -43.89191399 21.37878062 -48.875 19.375 C-60.17322608 17.86080475 -71.07065989 20.0270234 -78.4375 29.3125 Z " fill="#000000" transform="translate(462.875,239.625)"/>
<path d="M0 0 C1.56810492 3.13620984 0.45449769 6.19465853 -0.14453125 9.52734375 C-0.27437912 10.27206436 -0.40422699 11.01678497 -0.53800964 11.78407288 C-0.8148133 13.36077318 -1.09496104 14.93688948 -1.37817383 16.51245117 C-1.80983949 18.92264513 -2.22690111 21.33505041 -2.64257812 23.74804688 C-2.91318263 25.27880164 -3.18463904 26.80940609 -3.45703125 28.33984375 C-3.58108841 29.06179428 -3.70514557 29.78374481 -3.83296204 30.52757263 C-4.45777418 33.94586988 -5.04288581 36.06432871 -7 39 C-7.93199219 38.52949219 -8.86398438 38.05898437 -9.82421875 37.57421875 C-29.16363302 28.01836318 -50.60359016 25.50587557 -71.53125 31.75390625 C-87.05144069 37.32929007 -99.41885242 47.15575286 -107.05078125 62.05078125 C-110.43145661 70.04583816 -110.97323494 78.81990586 -108 87 C-104.32963622 94.78345626 -98.27869005 100.53662299 -90.46484375 104.12109375 C-68.98797519 111.77924815 -45.8950303 107.19431745 -24 104 C-24.58945174 112.46971854 -25.88326814 120.72039838 -27.4375 129.0625 C-27.65470703 130.28388672 -27.87191406 131.50527344 -28.09570312 132.76367188 C-28.31033203 133.92576172 -28.52496094 135.08785156 -28.74609375 136.28515625 C-29.03504517 137.86115601 -29.03504517 137.86115601 -29.32983398 139.46899414 C-30 142 -30 142 -32 144 C-34.93554688 144.41064453 -34.93554688 144.41064453 -38.71875 144.6328125 C-39.40008499 144.67460129 -40.08141998 144.71639008 -40.78340149 144.75944519 C-43.02178907 144.89252996 -45.2606101 145.01008726 -47.5 145.125 C-48.26508881 145.16636078 -49.03017761 145.20772156 -49.81845093 145.25033569 C-87.95072051 147.2967733 -129.26470136 147.32305349 -160 121 C-169.11336569 112.5228204 -175.73973948 100.8599623 -176.3359375 88.25 C-176.74919416 64.61127008 -169.44123516 45.00647737 -153.10083008 27.82324219 C-116.93365744 -9.23733271 -47.03381077 -18.77634343 0 0 Z " fill="#000000" transform="translate(176,197)"/>
<path d="M0 0 C2.97944882 -0.00972405 5.95821147 -0.04085303 8.9375 -0.07226562 C24.59790366 -0.15941175 41.00504383 0.05968657 53.5546875 10.74023438 C58.31655486 16.51219481 59.57636856 20.79814715 59.6171875 28.24023438 C59.00119869 34.07836503 58.00410925 39.83472127 56.9921875 45.61523438 C56.71487332 47.25933468 56.43868116 48.90362462 56.16357422 50.5480957 C54.87081326 58.22356418 53.51064877 65.88610558 52.1015625 73.54101562 C51.87162598 74.79672363 51.64168945 76.05243164 51.40478516 77.34619141 C50.97668811 79.66018685 50.53949395 81.97252613 50.09130859 84.28271484 C47.99008437 95.3100342 47.99008437 95.3100342 49.6171875 106.24023438 C50.6071875 106.57023437 51.5971875 106.90023437 52.6171875 107.24023438 C52.6171875 108.23023438 52.6171875 109.22023438 52.6171875 110.24023438 C34.1371875 110.24023438 15.6571875 110.24023438 -3.3828125 110.24023438 C-3.3828125 106.28023438 -3.3828125 102.32023437 -3.3828125 98.24023438 C-4.26839844 98.68753906 -5.15398437 99.13484375 -6.06640625 99.59570312 C-21.57273119 107.23343127 -36.62169401 111.42971065 -53.99365234 111.48046875 C-55.9815679 111.49010713 -57.96934123 111.52127736 -59.95703125 111.55273438 C-72.06118495 111.60119945 -82.91159346 110.30483673 -92.3828125 102.24023438 C-97.37390408 97.28134339 -100.64987057 92.96143426 -100.8828125 85.74023438 C-100.70211893 77.5086383 -97.80360066 70.89756639 -92.1796875 64.88476562 C-75.09875976 50.20067774 -49.98216864 49.48711278 -28.60083008 47.45849609 C-11.9801917 46.40176136 -11.9801917 46.40176136 3.6171875 41.24023438 C5.9361169 38.17734706 6.67696488 36.98745168 6.3671875 33.11523438 C4.08721136 29.36955928 2.24653734 29.07660589 -1.81396484 27.83789062 C-6.0800479 26.84536341 -10.20472094 26.75492316 -14.5703125 26.80273438 C-16.02908813 26.8108313 -16.02908813 26.8108313 -17.51733398 26.8190918 C-34.57789132 27.15648889 -51.74164912 29.79633795 -68.33959961 33.66088867 C-71.11554186 34.18935325 -73.5682315 34.35446728 -76.3828125 34.24023438 C-75.30605094 31.09211405 -74.22017441 27.94720749 -73.1328125 24.80273438 C-72.83246094 23.92423828 -72.53210938 23.04574219 -72.22265625 22.140625 C-71.60781416 20.36804832 -70.9688858 18.603654 -70.30688477 16.84814453 C-69.33464456 14.27557897 -69.33464456 14.27557897 -68.81616211 11.65966797 C-68.03971656 8.85814178 -67.42412444 7.33079973 -65.3828125 5.24023438 C-60.15461781 3.50774166 -54.91222839 3.14585 -49.4453125 2.74023438 C-47.98335124 2.60086106 -46.52174917 2.45766423 -45.06054688 2.31054688 C-41.48253573 1.96014854 -37.90266105 1.66635978 -34.31799316 1.39343262 C-32.61190999 1.25837084 -30.90776384 1.09930039 -29.20410156 0.93652344 C-19.4839423 0.04421218 -9.75359413 0.01919999 0 0 Z M-14.84155273 64.58398438 C-16.31747493 64.85300996 -17.79436971 65.11675773 -19.2722168 65.375 C-32.39694522 67.30308003 -32.39694522 67.30308003 -43.3203125 74.24023438 C-44.84880444 77.09406751 -44.84880444 77.09406751 -45.3828125 80.24023438 C-44.09845446 83.23706981 -43.15539172 84.83420734 -40.2421875 86.36523438 C-36.72285632 87.44218818 -33.40618454 87.62390652 -29.7578125 87.61523438 C-29.05285645 87.61362305 -28.34790039 87.61201172 -27.62158203 87.61035156 C-19.02193137 87.41067836 -11.06916901 84.78501782 -4.3828125 79.24023438 C-0.19598865 74.00670457 1.6171875 68.93891846 1.6171875 62.24023438 C-3.93063278 62.24023438 -9.39556633 63.58319792 -14.84155273 64.58398438 Z " fill="#000000" transform="translate(259.3828125,229.759765625)"/>
<path d="M0 0 C2.98831979 -0.00971101 5.97595183 -0.04082424 8.96411133 -0.07226562 C24.78372102 -0.16060251 41.94881026 0.12998045 54.6965332 10.93945312 C59.06997275 15.62904493 60.731994 20.54680003 60.63720703 27.03198242 C60.49206472 28.46134368 60.32823276 29.8888827 60.1496582 31.31445312 C60.01065849 32.52109871 60.01065849 32.52109871 59.86885071 33.75212097 C58.11242596 47.93870439 55.2718073 62.00849962 52.62890625 76.05102539 C51.90388837 79.90854764 51.21028591 83.7714392 50.5168457 87.63476562 C50.28889816 88.81287308 50.06095062 89.99098053 49.82609558 91.20478821 C48.66126084 97.64806071 48.66126084 97.64806071 49.95361328 103.96557617 C51.49214576 106.32288657 51.49214576 106.32288657 53.69262695 107.24023438 C53.69262695 108.23023438 53.69262695 109.22023438 53.69262695 110.24023438 C35.21262695 110.24023438 16.73262695 110.24023438 -2.30737305 110.24023438 C-2.63737305 106.28023438 -2.96737305 102.32023437 -3.30737305 98.24023438 C-4.59708008 98.92859375 -4.59708008 98.92859375 -5.9128418 99.63085938 C-21.57540709 107.82857008 -37.08771189 111.62230638 -54.80737305 111.49023438 C-56.36391602 111.50183594 -56.36391602 111.50183594 -57.9519043 111.51367188 C-70.95704301 111.4812805 -83.43122506 110.08258561 -93.24487305 100.80273438 C-98.56385574 94.93178178 -99.87916044 90.14530891 -99.6550293 82.27148438 C-98.78585692 74.69308249 -94.94263251 68.30220987 -89.30737305 63.24023438 C-72.29247834 50.46336695 -50.13068665 49.49704827 -29.7253418 47.46679688 C-28.49251465 47.34320801 -27.2596875 47.21961914 -25.98950195 47.09228516 C-23.65589721 46.8653151 -21.32093331 46.65172583 -18.98461914 46.45458984 C-10.18050748 45.62431119 -0.78718443 44.2267753 6.69262695 39.24023438 C7.6299535 36.50035678 7.94184243 34.92983424 6.94946289 32.18383789 C4.98934228 29.15265682 2.67515195 28.78295286 -0.68041992 27.79833984 C-5.30862801 26.81506069 -9.83989115 26.75616907 -14.55737305 26.80273438 C-15.62640869 26.80813232 -16.69544434 26.81353027 -17.796875 26.8190918 C-34.82144917 27.12934299 -51.76899924 29.86160401 -68.33984375 33.66088867 C-71.30737305 34.24023438 -71.30737305 34.24023438 -75.30737305 34.24023438 C-73.54221499 27.54944477 -71.18428219 21.12067577 -68.68237305 14.67773438 C-68.36905029 13.86771973 -68.05572754 13.05770508 -67.73291016 12.22314453 C-65.43612641 6.36898773 -65.43612641 6.36898773 -64.30737305 5.24023438 C-62.01627049 4.8795084 -59.71567475 4.57884044 -57.4128418 4.30273438 C-56.71024734 4.21773682 -56.00765289 4.13273926 -55.2837677 4.04516602 C-53.78675453 3.86497468 -52.28948546 3.68689903 -50.79199219 3.51074219 C-48.54194532 3.24577759 -46.29279553 2.97409011 -44.04370117 2.70117188 C-39.80082712 2.19025157 -35.55499221 1.7098526 -31.30737305 1.24023438 C-30.32824951 1.1284082 -29.34912598 1.01658203 -28.34033203 0.90136719 C-18.92260588 -0.03777786 -9.45538586 0.01853543 0 0 Z M-5.75268555 63.26367188 C-6.8303418 63.48023438 -7.90799805 63.69679688 -9.01831055 63.91992188 C-10.14495117 64.149375 -11.2715918 64.37882812 -12.43237305 64.61523438 C-13.53581055 64.83695312 -14.63924805 65.05867188 -15.77612305 65.28710938 C-18.95516864 65.92895944 -22.13150136 66.58288309 -25.30737305 67.24023438 C-26.18369385 67.41627197 -27.06001465 67.59230957 -27.96289062 67.77368164 C-33.49889971 68.92647077 -38.05954019 70.32153142 -42.30737305 74.24023438 C-44.27244593 77.61278378 -44.27244593 77.61278378 -44.30737305 81.24023438 C-42.27290694 84.70636182 -41.13589682 85.96405978 -37.30737305 87.24023438 C-25.32631565 87.98296253 -14.29413123 88.05783996 -4.30737305 80.49023438 C0.89161644 75.55243814 1.97665026 69.11361063 2.69262695 62.24023438 C-0.30634848 62.24023438 -2.81711847 62.67092714 -5.75268555 63.26367188 Z " fill="#000000" transform="translate(729.307373046875,229.759765625)"/>
<path d="M0 0 C-1.32917671 10.74287526 -3.06355098 21.34953038 -5 32 C7.87 32.495 7.87 32.495 21 33 C19 45 19 45 16 56 C7.42 56 -1.16 56 -10 56 C-10.61875 59.650625 -11.2375 63.30125 -11.875 67.0625 C-14.35890062 81.5400668 -16.95234414 95.99819499 -19.56451416 110.45309448 C-20.02270907 112.99103571 -20.47952983 115.5292254 -20.93499756 118.06765747 C-21.5829362 121.67603781 -22.2360737 125.28343911 -22.890625 128.890625 C-23.18723526 130.5496711 -23.18723526 130.5496711 -23.48983765 132.24223328 C-23.76605453 133.75476433 -23.76605453 133.75476433 -24.04785156 135.29785156 C-24.20819885 136.1852301 -24.36854614 137.07260864 -24.53375244 137.98687744 C-25 140 -25 140 -26 141 C-27.68801985 141.09353163 -29.37995207 141.11744791 -31.07055664 141.11352539 C-32.15160172 141.11344986 -33.23264679 141.11337433 -34.34645081 141.11329651 C-36.110485 141.10555458 -36.110485 141.10555458 -37.91015625 141.09765625 C-39.10732773 141.0962413 -40.30449921 141.09482635 -41.53794861 141.09336853 C-45.37949066 141.08774979 -49.22097543 141.07519411 -53.0625 141.0625 C-55.65950437 141.05748741 -58.25650965 141.05292409 -60.85351562 141.04882812 C-67.23569679 141.03777427 -73.6178443 141.02101792 -80 141 C-76.89355906 123.36899358 -73.68539485 105.75750209 -70.43548584 88.15240479 C-69.97791974 85.67268251 -69.52109375 83.19282355 -69.06500244 80.71282959 C-68.41531773 77.1818423 -67.76274927 73.65139995 -67.109375 70.12109375 C-66.91163483 69.04408707 -66.71389465 67.96708038 -66.51016235 66.85743713 C-66.23394547 65.37037514 -66.23394547 65.37037514 -65.95214844 63.85327148 C-65.79180115 62.98508286 -65.63145386 62.11689423 -65.46624756 61.22239685 C-65 59 -65 59 -64 56 C-70.6 56 -77.2 56 -84 56 C-82.68 48.41 -81.36 40.82 -80 33 C-73.07 33 -66.14 33 -59 33 C-58.38541979 28.00481277 -58.38541979 28.00481277 -57.77368164 23.00927734 C-57.65561157 22.05722412 -57.65561157 22.05722412 -57.53515625 21.0859375 C-57.456604 20.4470459 -57.37805176 19.8081543 -57.29711914 19.14990234 C-56.92031983 16.42344818 -56.46122733 13.71330068 -56 11 C-48.82994419 9.42616806 -41.65815604 7.86042743 -34.48510742 6.30029297 C-32.04524779 5.76862642 -29.60579037 5.23511055 -27.16674805 4.69970703 C-23.66038509 3.93034834 -20.15262834 3.16765702 -16.64453125 2.40625 C-15.55477493 2.16563843 -14.46501862 1.92502686 -13.34223938 1.67712402 C-12.32155869 1.45689575 -11.30087799 1.23666748 -10.24926758 1.00976562 C-9.35436111 0.81435181 -8.45945465 0.61893799 -7.53742981 0.41760254 C-4.97703005 -0.00378032 -2.58978994 -0.07525254 0 0 Z " fill="#000000" transform="translate(635,199)"/>
<path d="M0 0 C5.29784821 -0.02503709 10.59566069 -0.04301662 15.89355469 -0.05493164 C17.68945924 -0.05990778 19.48535986 -0.06669109 21.28125 -0.07543945 C31.90921237 -0.1258511 42.40783442 0.02234642 53 1 C52.26277131 8.48007392 51.07253848 15.83864585 49.79101562 23.24316406 C49.45670784 25.19355591 49.45670784 25.19355591 49.11564636 27.18334961 C48.50854678 30.72477622 47.89818429 34.26563325 47.2871685 37.80638599 C46.64652723 41.52195684 46.00880534 45.23802876 45.37072754 48.95404053 C44.29985402 55.18808828 43.22702488 61.42179682 42.15283203 67.65527344 C40.7750979 75.65022593 39.40043791 83.64570371 38.02680206 91.64136124 C36.84346514 98.52928667 35.65890847 105.41700223 34.47405815 112.30466747 C34.09417441 114.51315766 33.71442129 116.72167027 33.33467102 118.93018341 C32.62700621 123.04508183 31.91808064 127.15976207 31.20898438 131.27441406 C30.99908371 132.49529724 30.78918304 133.71618042 30.57292175 134.97406006 C30.28273918 136.65610535 30.28273918 136.65610535 29.98669434 138.37213135 C29.81930504 139.34399509 29.65191574 140.31585884 29.47945404 141.317173 C29.02064306 143.88448996 28.51146937 146.44265314 28 149 C9.85 149 -8.3 149 -27 149 C-21.12269617 115.205503 -15.11835332 81.43846759 -8.98321533 47.69006348 C-8.43659535 44.68252253 -7.89048943 41.67488861 -7.34448242 38.66723633 C-6.47659119 33.88751022 -5.607135 29.1080714 -4.73637581 24.32886696 C-4.41194397 22.54740551 -4.08791612 20.76587043 -3.76431084 18.98425865 C-3.31868389 16.5318319 -2.8713729 14.07971834 -2.42358398 11.62768555 C-2.22809464 10.54911034 -2.22809464 10.54911034 -2.02865601 9.44874573 C-1.44657944 6.27106833 -0.84191521 3.1201527 0 0 Z " fill="#000000" transform="translate(815,191)"/>
<path d="M0 0 C1.40897804 0.00333092 1.40897804 0.00333092 2.84642029 0.00672913 C3.90744461 0.00680466 4.96846893 0.00688019 6.06164551 0.00695801 C7.79286903 0.01469994 7.79286903 0.01469994 9.55906677 0.02259827 C10.73404221 0.02401321 11.90901764 0.02542816 13.11959839 0.02688599 C16.88981116 0.0325046 20.65996556 0.04506026 24.43016052 0.05775452 C26.97898779 0.06276712 29.52781599 0.06733044 32.0766449 0.07142639 C38.34033685 0.08248007 44.60399452 0.0992363 50.86766052 0.12025452 C49.39583672 12.22609434 47.35132592 24.19992201 45.20750427 36.20228577 C44.85384295 38.19384418 44.50037662 40.18543723 44.14709473 42.17706299 C43.41207754 46.31646075 42.67477129 50.45544216 41.93577576 54.59413147 C40.98763802 59.90515941 40.04528777 65.21719558 39.10459042 70.52954578 C38.3785375 74.62617102 37.64951589 78.72226354 36.91957283 82.81819725 C36.57058613 84.77851339 36.22252285 86.73899415 35.87539482 88.69964027 C35.39268099 91.42348299 34.90598972 94.14658489 34.41819763 96.86952209 C34.27532318 97.68033234 34.13244873 98.49114258 33.98524475 99.32652283 C32.98194254 104.89169049 32.98194254 104.89169049 31.86766052 107.12025452 C14.37766052 107.12025452 -3.11233948 107.12025452 -21.13233948 107.12025452 C-20.48470931 99.99632271 -19.74455152 93.16484317 -18.47413635 86.16664124 C-18.30978592 85.24005203 -18.14543549 84.31346283 -17.97610474 83.35879517 C-17.43907268 80.33832844 -16.89531466 77.31912028 -16.35108948 74.29994202 C-15.97347516 72.18818851 -15.5961606 70.07638138 -15.21913147 67.96452332 C-14.43197447 63.56146187 -13.64152729 59.15900779 -12.84864807 54.75697327 C-11.83050358 49.10299147 -10.82019522 43.44764251 -9.81223297 37.79183769 C-9.03623821 33.44205894 -8.25641175 29.09297417 -7.47537231 24.74409866 C-7.1010425 22.65739832 -6.72786209 20.57049147 -6.35583496 18.48337936 C-5.83793701 15.58151564 -5.31495988 12.68061409 -4.7905426 9.77992249 C-4.63674637 8.9124791 -4.48295013 8.04503571 -4.32449341 7.15130615 C-3.05311528 0.1721822 -3.05311528 0.1721822 0 0 Z " fill="#000000" transform="translate(497.13233947753906,232.87974548339844)"/>
<path d="M0 0 C3 1 3 1 4.7890625 4.45703125 C5.41210509 5.90414086 6.02364209 7.35624558 6.625 8.8125 C6.93695312 9.53759766 7.24890625 10.26269531 7.5703125 11.00976562 C8.97532618 14.3194207 10.19198753 17.48870336 11 21 C-2.00451651 28.4348903 -15.08482144 35.69976083 -28.2956543 42.76171875 C-35.48577345 46.61610548 -42.60378435 50.5788088 -49.6875 54.625 C-58.1835663 59.47206321 -66.78013069 64.07567078 -75.47021484 68.56445312 C-81.79768059 71.83672711 -88.07050783 75.19272347 -94.3125 78.625 C-115.82555119 90.43538777 -137.5940166 101.78306369 -159.37890625 113.08203125 C-164.88428154 115.93783183 -170.38292551 118.80620427 -175.875 121.6875 C-177.05340454 122.30334961 -177.05340454 122.30334961 -178.25561523 122.93164062 C-178.97305908 123.30869141 -179.69050293 123.68574219 -180.4296875 124.07421875 C-181.36143799 124.56281372 -181.36143799 124.56281372 -182.31201172 125.0612793 C-183.92384367 125.9576481 -185.46544134 126.9769609 -187 128 C-188.32 128 -189.64 128 -191 128 C-191.26831055 125.69335938 -191.26831055 125.69335938 -191 123 C-189.22192383 121.35351562 -189.22192383 121.35351562 -186.70703125 119.90625 C-185.77769775 119.35783447 -184.84836426 118.80941895 -183.89086914 118.24438477 C-182.87500732 117.66873779 -181.85914551 117.09309082 -180.8125 116.5 C-178.68173872 115.24963973 -176.55154155 113.99831771 -174.421875 112.74609375 C-173.34099609 112.11815918 -172.26011719 111.49022461 -171.14648438 110.84326172 C-166.56895628 108.16167132 -162.06404112 105.36916936 -157.5625 102.5625 C-155.8372403 101.49218634 -154.11197988 100.42187386 -152.38671875 99.3515625 C-136.21813255 89.29734836 -120.08020854 79.19500071 -104 69 C-103.13165527 68.44989258 -102.26331055 67.89978516 -101.36865234 67.33300781 C-82.52214029 55.38846237 -63.82138246 43.24252106 -45.25 30.875 C-44.5624765 30.41754395 -43.874953 29.96008789 -43.16659546 29.48876953 C-35.55805203 24.42390906 -27.97601939 19.32276923 -20.44140625 14.1484375 C-19.80233337 13.70982391 -19.1632605 13.27121033 -18.50482178 12.81930542 C-13.13617154 9.12097818 -7.845223 5.32023757 -2.57421875 1.484375 C-1.29998047 0.74960937 -1.29998047 0.74960937 0 0 Z " fill="#000000" transform="translate(867,332)"/>
<path d="M0 0 C2.27616956 2.77408165 2.91131976 4.40457551 3.4375 7.9375 C2.74153862 12.80922967 0.29125437 15.70874563 -3.125 19.125 C-13.70709505 26.02636633 -26.21033316 27.61761053 -38.5234375 25.3515625 C-44.49871199 23.75177505 -49.42978217 22.11171972 -53.10546875 16.92578125 C-54.79399765 13.29065134 -54.63378908 10.9928712 -54 7 C-51.22246792 0.38682839 -45.30241771 -2.29054939 -39 -5 C-26.2865985 -9.139247 -10.6599909 -8.65811468 0 0 Z " fill="#000000" transform="translate(552,199)"/>
</svg>
