<?xml version="1.0" encoding="UTF-8"?>
<svg version="1.1" xmlns="http://www.w3.org/2000/svg" width="313" height="81">
<path d="M0 0 C0.57105469 0.3609375 1.14210937 0.721875 1.73046875 1.09375 C1.73046875 6.39854934 0.19426305 7.28357627 -3.26953125 11.09375 C-3.82640625 10.805 -4.38328125 10.51625 -4.95703125 10.21875 C-5.72015625 9.8475 -6.48328125 9.47625 -7.26953125 9.09375 C-8.03265625 8.7225 -8.79578125 8.35125 -9.58203125 7.96875 C-13.89548894 6.56436843 -17.70065488 6.71024689 -22.08203125 7.78125 C-25.00803155 9.53685018 -25.39637287 10.81940608 -26.26953125 14.09375 C-27.63882392 19.78158108 -27.04124948 22.94627329 -24.26953125 28.09375 C-22.04555913 30.82994893 -20.44430139 31.57123734 -16.95703125 31.96875 C-12.58333594 32.33795805 -10.05681188 31.38373364 -6.26953125 29.09375 C-4.20703125 28.09375 -4.20703125 28.09375 -2.26953125 28.09375 C0.54296875 30.28125 0.54296875 30.28125 2.73046875 33.09375 C2.85546875 35.15625 2.85546875 35.15625 1.73046875 37.09375 C-3.35889294 42.03770135 -8.21613934 43.20580596 -15.14453125 43.40625 C-22.54175865 43.24166398 -27.56535585 41.9402163 -33.08203125 36.90625 C-38.53820071 30.93934322 -39.88568878 24.82302565 -39.609375 16.83203125 C-38.66089031 9.18964314 -35.21793131 4.43013305 -29.46484375 -0.49609375 C-20.24842105 -6.41625139 -9.1270126 -5.2237274 0 0 Z " fill="#824199" transform="translate(43.26953125,4.90625)"/>
<path d="M0 0 C3.54130113 1.86723151 5.27572728 3.47976705 7.4375 6.8125 C5.4575 9.1225 3.4775 11.4325 1.4375 13.8125 C-3.29934211 11.97039474 -3.29934211 11.97039474 -5.4375 10.6875 C-8.65419506 9.3629785 -11.11667698 9.45603555 -14.5625 9.8125 C-17.9548422 11.54067433 -19.98408265 12.83970718 -21.9375 16.125 C-23.03405592 20.84019045 -23.04485296 24.49237611 -21.375 29.0625 C-19.3137539 32.18990787 -18.02143025 33.39748308 -14.5625 34.8125 C-10.16220908 35.38290808 -7.55859252 35.01439463 -3.875 32.6875 C-0.5625 30.8125 -0.5625 30.8125 1.625 31.3125 C3.7028057 33.03206334 5.59736361 34.84092529 7.4375 36.8125 C6.27781651 40.29155046 5.60002073 40.62388872 2.5625 42.4375 C1.86382812 42.86289062 1.16515625 43.28828125 0.4453125 43.7265625 C-5.79347045 47.10084588 -13.72184798 46.88516167 -20.4296875 45.01171875 C-26.88523527 42.15675765 -30.39601929 38.05198598 -33.5625 31.8125 C-35.86042526 24.91872421 -35.5640615 17.02071294 -32.625 10.375 C-26.0971793 -1.10947539 -12.02360397 -4.01543 0 0 Z " fill="#824199" transform="translate(125.5625,2.1875)"/>
<path d="M0 0 C12.54 0 25.08 0 38 0 C38 3.3 38 6.6 38 10 C33.38 10 28.76 10 24 10 C24 21.55 24 33.1 24 45 C20.7 45 17.4 45 14 45 C14 33.45 14 21.9 14 10 C9.38 10 4.76 10 0 10 C0 6.7 0 3.4 0 0 Z " fill="#824199" transform="translate(50,2)"/>
<path d="M0 0 C2.4375 2 2.4375 2 4 4 C4.66 2.68 5.32 1.36 6 0 C9.76430913 1.25476971 10.05044108 2.69422618 12 6 C12.66 6 13.32 6 14 6 C15.38938077 4.03852126 16.7260411 2.03833424 18 0 C18.99 0.33 19.98 0.66 21 1 C21 5.95 21 10.9 21 16 C20.01 16 19.02 16 18 16 C17.67 13.36 17.34 10.72 17 8 C16.01 9.32 15.02 10.64 14 12 C10.125 10.25 10.125 10.25 9 8 C8.67 10.64 8.34 13.28 8 16 C7.01 16 6.02 16 5 16 C4.67 15.01 4.34 14.02 4 13 C3.319375 13.680625 2.63875 14.36125 1.9375 15.0625 C-1 17 -1 17 -4.5625 17.0625 C-8 16 -8 16 -10.5 13.875 C-12.49546009 10.05036816 -12.19379979 8.10368679 -11 4 C-8.02569657 -0.46145514 -5.16657235 -0.73808176 0 0 Z M-7.875 4.125 C-9.28536955 6.07474484 -9.28536955 6.07474484 -8.8125 9.0625 C-8.23351637 12.09515868 -8.23351637 12.09515868 -6 14 C-3.54258463 14.50014953 -3.54258463 14.50014953 -1 14 C1.00965774 12.40383995 1.00965774 12.40383995 2 10 C1.75925978 6.62963689 1.41201979 5.41201979 -1 3 C-3.83386167 2.6366844 -5.40522151 2.6431329 -7.875 4.125 Z " fill="#824199" transform="translate(226,60)"/>
<path d="M0 0 C2.76771273 0.04472067 4.14021868 0.22754137 6.6875 1.4375 C8.1875 3.25 8.1875 3.25 8.5625 5.75 C8.1875 8.25 8.1875 8.25 6.1875 11.25 C7.1775 12.24 8.1675 13.23 9.1875 14.25 C9.36925781 13.65832031 9.55101562 13.06664063 9.73828125 12.45703125 C11.14417057 8.037492 12.56277181 4.12459875 15.1875 0.25 C18.1875 1.25 18.1875 1.25 19.828125 4.0859375 C20.35921875 5.25382812 20.8903125 6.42171875 21.4375 7.625 C21.97890625 8.78773437 22.5203125 9.95046875 23.078125 11.1484375 C24.1875 14.25 24.1875 14.25 23.1875 17.25 C21.6875 15.875 21.6875 15.875 20.1875 14.25 C20.1875 13.59 20.1875 12.93 20.1875 12.25 C17.5475 12.25 14.9075 12.25 12.1875 12.25 C11.5275 13.9 10.8675 15.55 10.1875 17.25 C7.875 17 7.875 17 5.1875 16.25 C4.1614266 14.93662604 3.16022675 13.60335895 2.1875 12.25 C0.09334196 11.45376178 0.09334196 11.45376178 -1.8125 11.25 C-1.8125 12.9 -1.8125 14.55 -1.8125 16.25 C-2.8025 16.25 -3.7925 16.25 -4.8125 16.25 C-4.83935095 13.77076199 -4.85926547 11.2918116 -4.875 8.8125 C-4.88756836 7.75192383 -4.88756836 7.75192383 -4.90039062 6.66992188 C-4.90903588 4.86306441 -4.86470011 3.05612397 -4.8125 1.25 C-3.8125 0.25 -3.8125 0.25 0 0 Z M-1.8125 3.25 C-1.8125 4.9 -1.8125 6.55 -1.8125 8.25 C0.1675 8.25 2.1475 8.25 4.1875 8.25 C4.77820014 6.30396726 4.77820014 6.30396726 5.1875 4.25 C4.06215895 2.89381501 4.06215895 2.89381501 1.125 3.1875 C0.155625 3.208125 -0.81375 3.22875 -1.8125 3.25 Z M15.1875 5.25 C14.8575 6.9 14.5275 8.55 14.1875 10.25 C15.5075 10.25 16.8275 10.25 18.1875 10.25 C17.8575 8.6 17.5275 6.95 17.1875 5.25 C16.5275 5.25 15.8675 5.25 15.1875 5.25 Z " fill="#824199" transform="translate(119.8125,59.75)"/>
<path d="M0 0 C0.99 0.66 1.98 1.32 3 2 C2.67 2.99 2.34 3.98 2 5 C-0.64 4.67 -3.28 4.34 -6 4 C-8.31543207 6.76988076 -8.31543207 6.76988076 -7.6875 9.625 C-7.2258486 11.93501965 -7.2258486 11.93501965 -6 13 C-2.51119051 13.19382275 0.60169639 12.77675511 4 12 C4.268125 11.13375 4.53625 10.2675 4.8125 9.375 C5.97111987 6.08208036 7.38209839 3.08872125 9 0 C11.86442775 1.0427253 12.89247503 1.82585931 14.51953125 4.4609375 C14.94621094 5.42257813 15.37289062 6.38421875 15.8125 7.375 C16.25207031 8.33148438 16.69164063 9.28796875 17.14453125 10.2734375 C18.03055316 13.09737949 18.04819136 14.28627758 17 17 C15.5 15.625 15.5 15.625 14 14 C14 13.34 14 12.68 14 12 C8.84001623 12.37409251 8.84001623 12.37409251 4.5625 15.0625 C3.7890625 16.0215625 3.7890625 16.0215625 3 17 C3 16.34 3 15.68 3 15 C2.484375 15.350625 1.96875 15.70125 1.4375 16.0625 C-2.02765382 17.39525147 -4.43042427 16.8437179 -8 16 C-10.65858359 14.31623039 -10.94962718 13.17824229 -11.8125 10.125 C-12.01832636 6.6945606 -11.72525262 4.95757592 -10 2 C-6.84307048 -0.36769714 -3.85043147 -0.3276963 0 0 Z M10 5 C9.34 6.65 8.68 8.3 8 10 C9.65 10 11.3 10 13 10 C12.34 8.35 11.68 6.7 11 5 C10.67 5 10.34 5 10 5 Z " fill="#824199" transform="translate(47,60)"/>
<path d="M0 0 C3.61322401 1.806612 4.83748791 2.66418971 7.25 5.625 C8.03117188 6.57246094 8.03117188 6.57246094 8.828125 7.5390625 C9.40820312 8.26222656 9.40820312 8.26222656 10 9 C10.33 6.36 10.66 3.72 11 1 C11.99 1 12.98 1 14 1 C14 5.95 14 10.9 14 16 C9.81900884 14.95475221 9.27154064 14.5894258 6.75 11.4375 C6.22921875 10.79683594 5.7084375 10.15617187 5.171875 9.49609375 C4.78515625 9.00238281 4.3984375 8.50867188 4 8 C3.67 10.64 3.34 13.28 3 16 C2.01 16 1.02 16 0 16 C0 10.72 0 5.44 0 0 Z " fill="#824199" transform="translate(165,60)"/>
<path d="M0 0 C3.88265681 0.72799815 5.46228253 1.50231129 8 4.5625 C8.58947938 7.64336395 8.67794648 10.49479219 8 13.5625 C5.94692217 16.24121989 5.02340231 16.55643273 1.625 17.4375 C-2.40156711 17.57634714 -3.88811528 17.03370257 -7 14.5625 C-8.56935594 11.42378812 -8.35201103 9.02394178 -8 5.5625 C-5.54999553 2.17572911 -4.13607554 0.77551416 0 0 Z M-3.8125 4.75 C-5.42525784 7.21157776 -5.4334014 8.67315736 -5 11.5625 C-4 13.5625 -4 13.5625 -2 14.5625 C1.09648876 14.72698881 1.09648876 14.72698881 4 13.5625 C5.75548759 11.38218848 5.75548759 11.38218848 6 8.5625 C5.09762034 5.66950447 5.09762034 5.66950447 3 3.5625 C0.06232599 2.9749652 -1.30260677 3.10558719 -3.8125 4.75 Z " fill="#824199" transform="translate(88,59.4375)"/>
<path d="M0 0 C0.99 0.66 1.98 1.32 3 2 C3 2.66 3 3.32 3 4 C2.36191406 3.98839844 1.72382813 3.97679687 1.06640625 3.96484375 C0.24011719 3.95582031 -0.58617187 3.94679687 -1.4375 3.9375 C-2.26121094 3.92589844 -3.08492187 3.91429687 -3.93359375 3.90234375 C-5.99163938 3.76732652 -5.99163938 3.76732652 -7 5 C-7.04092937 7.33297433 -7.04241723 9.66705225 -7 12 C-3.02245872 12.73334429 -3.02245872 12.73334429 1 13 C1 12.01 1 11.02 1 10 C-0.65 10 -2.3 10 -4 10 C-3.67 9.01 -3.34 8.02 -3 7 C-1.00045254 6.95745644 1.00041636 6.95919217 3 7 C4 8 4 8 4.375 10.875 C4 14 4 14 1.9375 15.9375 C-1.86254718 17.31198515 -4.12411442 17.07663488 -8 16 C-10.23759858 14.19548502 -10.83522338 12.90164286 -11.34765625 10.09765625 C-11.63106754 6.19530073 -11.47305237 4.5565322 -8.875 1.5 C-5.56074794 -0.22917499 -3.68722891 -0.4809429 0 0 Z " fill="#824199" transform="translate(191,60)"/>
<path d="M0 0 C0.99 0.66 1.98 1.32 3 2 C3 2.66 3 3.32 3 4 C2.37351562 3.96519531 1.74703125 3.93039063 1.1015625 3.89453125 C0.28429687 3.86746094 -0.53296875 3.84039062 -1.375 3.8125 C-2.59316406 3.76029297 -2.59316406 3.76029297 -3.8359375 3.70703125 C-4.55007812 3.80371094 -5.26421875 3.90039062 -6 4 C-8.31543207 6.76988076 -8.31543207 6.76988076 -7.6875 9.625 C-7.2258486 11.93501965 -7.2258486 11.93501965 -6 13 C-3.66702567 13.04092937 -1.33294775 13.04241723 1 13 C1 12.01 1 11.02 1 10 C-0.65 10 -2.3 10 -4 10 C-4 9.01 -4 8.02 -4 7 C-1.69 7 0.62 7 3 7 C3 9.64 3 12.28 3 15 C0.22578757 16.88646445 -1.13239454 16.99303187 -4.5625 16.8125 C-8.03957957 15.99064483 -8.92269013 15.72454291 -11 13 C-11.67794648 9.93229219 -11.58947938 7.08086395 -11 4 C-7.74033229 0.06922423 -4.99946036 -0.65210352 0 0 Z " fill="#824199" transform="translate(76,60)"/>
<path d="M0 0 C9.19230769 0 9.19230769 0 13 3 C14.42662219 5.85324437 14.31033868 7.83454549 14 11 C12.625 13.875 12.625 13.875 10 16 C6.55579372 16.42647695 3.49320317 16.229816 0 16 C0 10.72 0 5.44 0 0 Z M2 3 C2 6.63 2 10.26 2 14 C7.01535052 13.67039784 7.01535052 13.67039784 11 11 C11.36023622 8.19015752 11.38332602 6.61758081 9.875 4.1875 C7.22464043 2.50893894 5.06753576 2.79549762 2 3 Z " fill="#824199" transform="translate(145,60)"/>
<path d="M0 0 C5.13233264 2.56616632 6.70716291 5.36009319 10 10 C10.33 6.7 10.66 3.4 11 0 C11.66 0 12.32 0 13 0 C13 5.28 13 10.56 13 16 C8.60281354 14.90070338 8.20002666 14.44549271 5.75 10.9375 C5.22921875 10.20402344 4.7084375 9.47054687 4.171875 8.71484375 C3.78515625 8.14894531 3.3984375 7.58304687 3 7 C2.95101563 7.63808594 2.90203125 8.27617188 2.8515625 8.93359375 C2.77679688 9.75988281 2.70203125 10.58617188 2.625 11.4375 C2.52058594 12.67306641 2.52058594 12.67306641 2.4140625 13.93359375 C2.27742188 14.61550781 2.14078125 15.29742187 2 16 C1.34 16.33 0.68 16.66 0 17 C0 11.39 0 5.78 0 0 Z " fill="#824199" transform="translate(276,60)"/>
<path d="M0 0 C3 1 3 1 4.640625 3.8359375 C5.17171875 5.00382812 5.7028125 6.17171875 6.25 7.375 C6.79140625 8.53773437 7.3328125 9.70046875 7.890625 10.8984375 C9 14 9 14 8 17 C6.5 15.625 6.5 15.625 5 14 C5 13.34 5 12.68 5 12 C2.36 12 -0.28 12 -3 12 C-3.66 13.65 -4.32 15.3 -5 17 C-5.66 16.67 -6.32 16.34 -7 16 C-5.26017005 10.18738629 -3.1889511 5.16830006 0 0 Z M0 5 C-0.33 6.65 -0.66 8.3 -1 10 C0.32 10 1.64 10 3 10 C2.34 8.35 1.68 6.7 1 5 C0.67 5 0.34 5 0 5 Z " fill="#824199" transform="translate(266,60)"/>
<path d="M0 0 C3.33388318 0.16951948 4.94441987 0.43192871 7.6875 2.1875 C7.8125 5.5625 7.8125 5.5625 7.6875 9.1875 C5.6875 11.1875 5.6875 11.1875 2.0625 11.3125 C0.94875 11.27125 -0.165 11.23 -1.3125 11.1875 C-1.3125 12.8375 -1.3125 14.4875 -1.3125 16.1875 C-2.3025 16.1875 -3.2925 16.1875 -4.3125 16.1875 C-4.33935095 13.70826199 -4.35926547 11.2293116 -4.375 8.75 C-4.38756836 7.68942383 -4.38756836 7.68942383 -4.40039062 6.60742188 C-4.40903588 4.80056441 -4.36470011 2.99362397 -4.3125 1.1875 C-3.3125 0.1875 -3.3125 0.1875 0 0 Z M-1.3125 3.1875 C-1.3125 5.1675 -1.3125 7.1475 -1.3125 9.1875 C0.6675 8.8575 2.6475 8.5275 4.6875 8.1875 C4.6875 6.8675 4.6875 5.5475 4.6875 4.1875 C3.62104885 2.89116379 3.62104885 2.89116379 1.125 3.125 C0.320625 3.145625 -0.48375 3.16625 -1.3125 3.1875 Z " fill="#824199" transform="translate(252.3125,59.8125)"/>
<path d="M0 0 C1.9375 1.5 1.9375 1.5 3 3 C2.34 3.66 1.68 4.32 1 5 C-1.33333333 4.66666667 -3.66666667 4.33333333 -6 4 C-6.66 4.66 -7.32 5.32 -8 6 C-7.81242938 9.82564665 -7.81242938 9.82564665 -6 13 C-4.33394172 13.0450286 -2.66621616 13.03874921 -1 13 C0.32 13 1.64 13 3 13 C1.4375 15.0625 1.4375 15.0625 -1 17 C-4.44725099 16.93952191 -6.89605036 16.66236979 -9.875 14.875 C-11.64983667 11.91693888 -11.88200002 9.42199954 -12 6 C-9.21659784 -0.09697616 -6.50086192 -0.45620084 0 0 Z " fill="#824199" transform="translate(212,60)"/>
<path d="M0 0 C0.66 0.33 1.32 0.66 2 1 C2 2.98 2 4.96 2 7 C4.64 7 7.28 7 10 7 C10 4.69 10 2.38 10 0 C10.66 0 11.32 0 12 0 C12 5.61 12 11.22 12 17 C11.34 16.67 10.68 16.34 10 16 C10 14.02 10 12.04 10 10 C7.36 10 4.72 10 2 10 C2 11.98 2 13.96 2 16 C1.01 16 0.02 16 -1 16 C-1.02685095 13.52076199 -1.04676547 11.0418116 -1.0625 8.5625 C-1.07506836 7.50192383 -1.07506836 7.50192383 -1.08789062 6.41992188 C-1.09653588 4.61306441 -1.05220011 2.80612397 -1 1 C-0.67 0.67 -0.34 0.34 0 0 Z " fill="#824199" transform="translate(17,60)"/>
<path d="M0 0 C0.99 0.66 1.98 1.32 3 2 C2.67 2.99 2.34 3.98 2 5 C1.34 4.67 0.68 4.34 0 4 C-3.04173894 3.83329727 -3.04173894 3.83329727 -6 4 C-7.20561184 4.98267859 -7.20561184 4.98267859 -7.09765625 6.84765625 C-7.08605469 7.57855469 -7.07445312 8.30945313 -7.0625 9.0625 C-7.041875 10.361875 -7.02125 11.66125 -7 13 C-3.4780279 13.08004482 -0.38018531 13.04005702 3 12 C2.67 13.32 2.34 14.64 2 16 C-4.24159797 17.34622701 -4.24159797 17.34622701 -7.875 15.6875 C-10 14 -10 14 -11 12 C-11.49512681 7.62637986 -11.49223866 5.68044756 -8.875 2.0625 C-5.52111041 -0.34355123 -4.03621805 -0.61420709 0 0 Z " fill="#824199" transform="translate(12,60)"/>
<path d="M0 0 C0.78375 0.825 1.5675 1.65 2.375 2.5 C4.63721264 5.22988506 4.63721264 5.22988506 7 5 C7.66 4.175 8.32 3.35 9 2.5 C9.66 1.675 10.32 0.85 11 0 C11.66 0 12.32 0 13 0 C12.60804405 2.82208283 12.30181534 4.62273082 10.5 6.875 C8.4418235 9.79075004 8.33659116 12.49945198 8 16 C7.01 16 6.02 16 5 16 C4.7525 14.96875 4.505 13.9375 4.25 12.875 C3.43023083 9.91904403 2.60350591 8.41092307 0.8125 5.75 C0.214375 4.8425 -0.38375 3.935 -1 3 C-0.67 2.01 -0.34 1.02 0 0 Z " fill="#824199" transform="translate(291,60)"/>
<path d="M0 0 C2.5 0.25 2.5 0.25 4.5 2.25 C4.75 4.75 4.75 4.75 4.5 7.25 C2.5 9.25 2.5 9.25 0 9.5 C-2.5 9.25 -2.5 9.25 -4.5 7.25 C-4.75 4.75 -4.75 4.75 -4.5 2.25 C-2.5 0.25 -2.5 0.25 0 0 Z " fill="#824199" transform="translate(141.5,-0.25)"/>
<path d="M0 0 C3.96 0 7.92 0 12 0 C12 0.99 12 1.98 12 3 C10.35 3 8.7 3 7 3 C7 7.29 7 11.58 7 16 C6.34 16.33 5.68 16.66 5 17 C5 12.38 5 7.76 5 3 C3.35 3 1.7 3 0 3 C0 2.01 0 1.02 0 0 Z " fill="#824199" transform="translate(102,60)"/>
<path d="M0 0 C0.66 0 1.32 0 2 0 C2 5.28 2 10.56 2 16 C1.01 16 0.02 16 -1 16 C-1.02685095 13.52076199 -1.04676547 11.0418116 -1.0625 8.5625 C-1.07506836 7.50192383 -1.07506836 7.50192383 -1.08789062 6.41992188 C-1.09653588 4.61306441 -1.05220011 2.80612397 -1 1 C-0.67 0.67 -0.34 0.34 0 0 Z " fill="#824199" transform="translate(32,60)"/>
<path d="M0 0 C0.66 0.33 1.32 0.66 2 1 C2 5.95 2 10.9 2 16 C1.01 16 0.02 16 -1 16 C-1.02685095 13.52076199 -1.04676547 11.0418116 -1.0625 8.5625 C-1.07506836 7.50192383 -1.07506836 7.50192383 -1.08789062 6.41992188 C-1.09653588 4.61306441 -1.05220011 2.80612397 -1 1 C-0.67 0.67 -0.34 0.34 0 0 Z " fill="#824199" transform="translate(161,60)"/>
<path d="M0 0 C2.0625 0.4375 2.0625 0.4375 4 1 C4 2.65 4 4.3 4 6 C2.125 6.625 2.125 6.625 0 7 C-0.66 6.34 -1.32 5.68 -2 5 C-1.46428571 1.46428571 -1.46428571 1.46428571 0 0 Z " fill="#824199" transform="translate(309,60)"/>
</svg>
