<?xml version="1.0" encoding="UTF-8" standalone="no"?>
<svg
   xmlns="http://www.w3.org/2000/svg"
   version="1.0"
   width="210"
   height="40">
  <path
     d="M 199.2811,34.26228 L 199.29356,33.99978 L 199.31862,33.73728 L 199.3436,33.48729 L 199.39357,33.22479 L 199.44361,32.97479 L 199.51856,32.73729 L 199.59358,32.49979 L 199.69359,32.26229 L 199.7936,32.03729 L 199.90606,31.8248 L 200.03106,31.5998 L 200.15605,31.3998 L 200.3061,31.1998 L 200.45607,30.9998 L 200.61858,30.8123 L 200.78108,30.6373 L 200.96857,30.4748 L 201.1436,30.31231 L 201.34354,30.16231 L 201.54356,30.01231 L 201.7561,29.87481 L 201.96858,29.76231 L 202.18105,29.64981 L 202.41858,29.53731 L 202.64358,29.44981 L 202.88103,29.37481 L 203.13109,29.29981 L 203.38107,29.24981 L 203.63106,29.19981 L 203.88104,29.16231 L 204.14355,29.14981 L 204.40606,29.13731 C 207.23106,29.13731 209.53102,31.4248 209.53102,34.26228 C 209.53102,37.08726 207.23106,39.38725 204.40606,39.38725 C 201.58107,39.38725 199.2811,37.08726 199.2811,34.26228 z"
     fill="#9bcd65" />
  <path
     d="M 49.93773,10.42525 C 41.05025,10.42526 36.31273,17.39405 36.31273,25.2065 C 36.31273,34.21894 42.6191,39.36275 51.40648,39.36275 C 53.644,39.36275 55.2753,39.169 56.62523,38.894 C 58.02524,38.6065 59.59399,38.13775 60.90648,37.55025 L 59.53148,31.2065 L 59.15648,31.3315 L 58.78148,31.4565 L 58.40648,31.55025 L 58.03148,31.67525 L 57.65648,31.769 L 57.28148,31.86275 L 56.90648,31.9565 L 56.71898,31.98775 L 56.53148,32.019 C 55.35653,32.269 54.14394,32.394 52.90648,32.394 C 48.90648,32.394 45.76273,31.05648 45.25023,27.894 L 62.34398,27.894 C 62.46896,27.2815 62.68773,25.81899 62.68773,24.269 C 62.68774,17.05655 59.10016,10.42525 49.93773,10.42525 z M 49.78148,16.894 L 49.93773,16.894 L 50.09398,16.92525 L 50.25023,16.92525 L 50.40648,16.92525 L 50.53148,16.9565 L 50.68773,16.98775 L 50.81273,16.98775 L 50.96898,17.05025 L 51.09398,17.0815 L 51.21898,17.11275 L 51.46898,17.2065 L 51.68773,17.30025 L 51.90648,17.42525 L 52.12523,17.55025 L 52.31273,17.67525 L 52.50023,17.80025 L 52.65648,17.9565 L 52.84398,18.11275 L 53.00023,18.30025 L 53.12523,18.48775 L 53.28148,18.67525 L 53.37523,18.86275 L 53.50023,19.05025 L 53.59398,19.23775 L 53.68773,19.42525 L 53.78148,19.61275 L 53.84398,19.8315 L 53.93773,20.019 L 53.96898,20.23775 L 54.03148,20.42525 L 54.09398,20.61275 L 54.12523,20.80025 L 54.15648,20.98775 L 54.15648,21.17525 L 54.18773,21.36275 L 54.18773,21.519 L 54.18773,21.67525 C 54.18773,21.67525 45.07526,21.67525 45.06273,21.67525 C 45.06273,19.27526 46.73149,16.894 49.78148,16.894 z M 182.56273,10.42525 C 173.66271,10.42526 168.93773,17.39405 168.93773,25.2065 C 168.93772,34.21894 175.23157,39.36275 184.03148,39.36275 C 186.26893,39.36275 187.90023,39.169 189.25023,38.894 C 190.65023,38.6065 192.20023,38.13775 193.50023,37.55025 L 192.12523,31.2065 L 191.75023,31.3315 L 191.40653,31.4565 L 191.03153,31.55025 L 190.65653,31.67525 L 190.28153,31.769 L 189.90653,31.86275 L 189.53153,31.9565 L 189.34393,31.98775 L 189.15653,32.019 C 187.96903,32.269 186.76903,32.394 185.53148,32.394 C 181.53153,32.394 178.38773,31.05648 177.87523,27.894 L 194.93773,27.894 C 195.06273,27.2815 195.28153,25.81899 195.28153,24.269 C 195.28143,17.05655 191.71263,10.42525 182.56273,10.42525 z M 182.40648,16.894 L 182.56273,16.894 L 182.71898,16.92525 L 182.87523,16.92525 L 183.00023,16.92525 L 183.15648,16.9565 L 183.28148,16.98775 L 183.43773,16.98775 L 183.56273,17.05025 L 183.68773,17.0815 L 183.81273,17.11275 L 184.06273,17.2065 L 184.28148,17.30025 L 184.53148,17.42525 L 184.71898,17.55025 L 184.90648,17.67525 L 185.09398,17.80025 L 185.28148,17.9565 L 185.43773,18.11275 L 185.59393,18.30025 L 185.75023,18.48775 L 185.87523,18.67525 L 186.00023,18.86275 L 186.09393,19.05025 L 186.21893,19.23775 L 186.31273,19.42525 L 186.40653,19.61275 L 186.46893,19.8315 L 186.53153,20.019 L 186.59393,20.23775 L 186.65653,20.42525 L 186.68773,20.61275 L 186.71893,20.80025 L 186.75023,20.98775 L 186.78153,21.17525 L 186.78153,21.36275 L 186.81273,21.519 L 186.81273,21.67525 C 186.81273,21.67525 177.70019,21.67525 177.68773,21.67525 C 177.68773,19.27526 179.35649,16.894 182.40648,16.894 z M 66.86942,38.78728 L 76.13187,38.78728 L 76.13187,1.25002 L 66.86942,1.25002 L 66.86942,38.78728 z M 95.06273,10.48775 C 84.25034,10.48775 80.31273,18.33779 80.31273,25.11275 C 80.31273,33.6002 86.21282,39.36275 94.62523,39.36275 L 95.28148,39.36275 L 95.96898,39.3315 L 96.65648,39.23775 L 97.31273,39.17525 L 97.96898,39.05025 L 98.65648,38.894 L 99.28148,38.7065 L 99.93773,38.48775 L 100.56273,38.269 L 101.18773,38.019 L 101.78148,37.7065 L 102.40648,37.394 L 102.96898,37.05025 L 103.53148,36.67525 L 104.06273,36.269 L 104.59398,35.8315 L 105.09398,35.36275 L 105.56273,34.86275 L 106.03148,34.3315 L 106.46898,33.80025 L 106.87523,33.2065 L 107.25023,32.5815 L 107.59398,31.92525 L 107.90648,31.23775 L 108.18773,30.55025 L 108.43773,29.80025 L 108.65648,29.019 L 108.84398,28.2065 L 108.96898,27.36275 L 109.06273,26.48775 L 109.12523,25.61275 L 109.15648,24.67525 C 109.15645,18.62529 105.56271,10.48775 95.06273,10.48775 z M 94.78148,17.36275 C 98.34392,17.36275 99.59398,21.41902 99.59398,24.894 C 99.59399,29.51897 97.66896,32.48775 94.71898,32.48775 L 94.46898,32.48775 L 94.18773,32.48775 L 93.90648,32.42525 L 93.65648,32.36275 L 93.40648,32.30025 L 93.15648,32.2065 L 92.90648,32.0815 L 92.68773,31.9565 L 92.46898,31.8315 L 92.25023,31.67525 L 92.03148,31.48775 L 91.84398,31.3315 L 91.65648,31.11275 L 91.46898,30.92525 L 91.28148,30.67525 L 91.12523,30.42525 L 90.96898,30.17525 L 90.81273,29.92525 L 90.65648,29.644 L 90.53148,29.36275 L 90.40648,29.05025 L 90.31273,28.73775 L 90.18773,28.394 L 90.09398,28.05025 L 90.03148,27.7065 L 89.96898,27.3315 L 89.90648,26.9565 L 89.84398,26.5815 L 89.81273,26.17525 L 89.78148,25.769 L 89.75023,25.36275 L 89.75023,24.92525 C 89.75026,21.27527 91.094,17.36275 94.78148,17.36275 z M 113.18163,38.78728 L 122.44407,38.78728 L 122.44407,11.08745 L 113.18163,11.08745 L 113.18163,38.78728 z M 113.18163,8.44997 L 122.44407,8.44997 L 122.44407,1.26252 L 113.18163,1.26252 L 113.18163,8.44997 z M 129.78152,3.54998 L 129.78152,11.08743 L 126.21903,11.08743 L 126.21903,17.93738 L 129.78152,17.93738 L 129.78152,29.28731 C 129.78152,35.52477 132.6315,39.34975 139.1565,39.34975 C 140.36898,39.34975 141.74396,39.22475 143.01894,39.03725 C 144.19398,38.86225 145.24395,38.64975 145.69395,38.49975 C 145.70641,38.48725 145.63146,31.2623 145.63146,31.2373 C 145.33143,31.3373 143.23148,31.6873 142.45647,31.6873 C 141.71898,31.6873 140.60643,31.5998 139.81897,30.7873 C 139.2565,30.21231 138.85647,29.27481 138.85647,27.73732 L 138.85647,17.93738 L 144.84392,17.93738 L 144.84392,11.08743 C 144.84392,11.08743 139.64394,11.08743 138.85647,11.08743 C 138.85647,10.27493 138.85647,2.52498 138.85647,2.52498 L 129.78152,3.54998 z M 151.20642,3.54998 L 151.20642,11.08743 L 147.65638,11.08743 L 147.65638,17.93738 L 151.20642,17.93738 L 151.20642,29.28731 C 151.20642,35.52477 154.06885,39.34975 160.58132,39.34975 C 161.80633,39.34975 163.18131,39.22475 164.44383,39.03725 C 165.6188,38.86225 166.66878,38.64975 167.11878,38.49975 C 167.1313,38.48725 167.05628,31.2623 167.05628,31.2373 C 166.75633,31.3373 164.6563,31.6873 163.89382,31.6873 C 163.1438,31.6873 162.04386,31.5998 161.24386,30.7873 C 160.68133,30.21231 160.28137,29.27481 160.28137,27.73732 L 160.28137,17.93738 L 166.26882,17.93738 L 166.26882,11.08743 C 166.26882,11.08743 161.06883,11.08743 160.28137,11.08743 C 160.28137,10.27493 160.28137,2.52498 160.28137,2.52498 L 151.20642,3.54998 z M 11.00023,0.61275 C 7.35024,0.61275 4.08151,0.73776 0.46898,1.05025 L 0.46898,38.8315 L 10.96898,38.8315 C 11.68144,38.8315 12.52519,38.8065 13.18773,38.769 C 27.53762,38.01901 33.53148,29.53769 33.53148,19.73775 C 33.53147,7.48783 25.26264,0.61275 11.00023,0.61275 z M 12.78148,8.17525 C 18.16892,8.17525 23.90648,11.67531 23.90648,19.73775 C 23.90651,28.1502 18.50022,30.97525 13.87523,31.36275 L 13.84398,31.36275 L 13.81273,31.36275 L 13.71898,31.36275 L 13.65648,31.36275 L 13.56273,31.36275 L 13.46898,31.36275 L 13.37523,31.36275 L 13.28148,31.36275 L 13.21898,31.36275 L 13.12523,31.394 L 13.03148,31.394 L 12.93773,31.394 L 12.84398,31.394 L 12.78148,31.394 L 12.68773,31.394 L 12.65648,31.394 L 12.62523,31.394 L 12.59398,31.394 L 12.53148,31.394 L 9.59398,31.394 C 9.59397,31.394 9.59398,8.3315 9.59398,8.3315 C 10.60644,8.24401 11.93145,8.17525 12.78148,8.17525 z"
     fill="#004990" />
</svg>
