<?xml version="1.0" encoding="UTF-8"?>
<svg version="1.1" xmlns="http://www.w3.org/2000/svg" width="1280" height="714">
<path d="M0 0 C1.82677227 -0.00222024 3.65354333 -0.00575742 5.48031083 -0.01048949 C10.51051278 -0.01969448 15.54053279 -0.01017306 20.57072118 0.00234491 C26.03912529 0.01264786 31.50751095 0.00553505 36.97591871 0.00061244 C46.56321087 -0.00561063 56.15044721 -0.00067429 65.73773289 0.01152706 C79.99370406 0.02961971 94.24963998 0.03053563 108.50562055 0.0279011 C132.48552348 0.02367932 156.46540258 0.03396859 180.44529819 0.05195332 C204.19280077 0.06972119 227.94029314 0.08127868 251.68780231 0.08451176 C252.42533195 0.08461499 253.16286158 0.08471823 253.92274059 0.08482459 C260.65894633 0.08576419 267.39515208 0.08662726 274.13135784 0.08739852 C290.87674582 0.08931669 307.62213357 0.09219466 324.36752129 0.09572411 C325.51133819 0.09596403 325.51133819 0.09596403 326.67826251 0.09620881 C363.77088377 0.10407321 400.8634983 0.12299582 437.95611477 0.14282513 C450.82794089 0.14970011 463.69976703 0.15652621 476.57159328 0.16314983 C477.76906261 0.1637661 477.76906261 0.1637661 478.99072324 0.16439483 C516.10293439 0.1834274 553.21514669 0.19460395 590.32736144 0.20375422 C592.73674215 0.20434841 595.14612287 0.20494599 597.55550359 0.20554426 C613.5226079 0.2095036 629.48971224 0.21332755 645.45681661 0.21706083 C677.227337 0.22449032 708.99785716 0.23271537 740.7683772 0.24148698 C742.28136904 0.2419047 743.79436087 0.24232186 745.30735271 0.24273846 C826.97743479 0.26523203 908.64750986 0.30148521 1047.26006985 0.36914349 C1048.38469462 8.91605229 1048.38469462 8.91605229 1048.38772035 12.54096335 C1048.39073632 13.26945254 1048.39375228 13.99794172 1048.39685965 14.74850634 C1048.39509017 15.52273824 1048.3933207 16.29697014 1048.39149761 17.09466362 C1048.39457656 18.36388276 1048.39457656 18.36388276 1048.39771771 19.6587427 C1048.40336424 22.48907888 1048.40193338 25.31936604 1048.40051174 28.14970684 C1048.40309671 30.20149743 1048.40611024 32.25328751 1048.40951514 34.3050769 C1048.41757269 39.9398904 1048.41937402 45.57469115 1048.42011261 51.20950973 C1048.4219653 57.2880693 1048.42951367 63.36662228 1048.43624783 69.44517803 C1048.45052984 83.42715744 1048.45635622 97.40913373 1048.46093977 111.39111859 C1048.46327771 118.3036482 1048.46688055 125.21617699 1048.47063515 132.12870595 C1048.48346797 155.80115218 1048.49418794 179.47359796 1048.49763775 203.14604759 C1048.49785938 204.63121843 1048.49808116 206.11638927 1048.4983031 207.6015601 C1048.49852374 209.09026549 1048.49874422 210.57897087 1048.49896455 212.06767625 C1048.49940709 215.05415165 1048.49985421 218.04062706 1048.50030422 221.02710247 C1048.50041361 221.76757117 1048.500523 222.50803988 1048.50063571 223.27094703 C1048.50426632 247.28053051 1048.52018792 271.29008381 1048.54349459 295.29965573 C1048.56810364 320.69742017 1048.58181106 346.09516736 1048.58300567 371.49294406 C1048.58317712 374.28216541 1048.58339254 377.07138676 1048.5836401 379.8606081 C1048.58369587 380.54736854 1048.58375164 381.23412898 1048.58380909 381.94170034 C1048.58495851 392.98140535 1048.59597107 404.02107931 1048.61052715 415.06077385 C1048.62491013 426.16128576 1048.62786692 437.26176631 1048.62008718 448.36228719 C1048.61618149 454.37295821 1048.61710651 460.38352497 1048.63114452 466.39418316 C1048.64388775 471.90084693 1048.64268206 477.40732813 1048.63055381 482.91399167 C1048.62859758 484.90185937 1048.63167178 486.88974003 1048.64039817 488.87758955 C1048.72154898 508.61968157 1046.14928438 523.95579468 1031.70301723 538.55940533 C1030.88983532 539.35618191 1030.0766534 540.15295849 1029.23882961 540.97387981 C1028.36308285 541.85196301 1027.48733608 542.7300462 1026.58505154 543.63473797 C1024.21166577 546.00944904 1021.82784109 548.3725975 1019.4382174 550.73089719 C1016.92276774 553.21849146 1014.42139229 555.72016662 1011.91825771 558.22014141 C1007.71773138 562.41150832 1003.50820741 566.593647 999.29205227 570.76928997 C993.36702998 576.63742723 987.45935864 582.52279993 981.55467045 588.41138709 C977.43705958 592.51649943 973.31538821 596.61753427 969.19291472 600.71776271 C968.20059117 601.70474579 967.20836845 602.69183026 966.2162478 603.67901731 C962.95159267 606.92704282 959.68226542 610.17030696 956.41070461 613.41137981 C955.59954693 614.21827755 954.78838924 615.02517529 953.95265102 615.85652447 C949.77292016 619.98936116 945.50954035 623.9553258 941.05819511 627.79351616 C938.53315333 630.00611219 936.16346704 632.35374957 933.79717922 634.73437786 C933.31142925 635.2215881 932.82567928 635.70879833 932.32520962 636.21077251 C931.28692594 637.25281642 930.24979682 638.29601185 929.21375942 639.34028912 C927.56673102 641.00027408 925.91643033 642.65694584 924.26531887 644.31286907 C920.76072346 647.8288 917.2600943 651.34866302 913.76006985 654.86914349 C909.69887977 658.95406933 905.63600691 663.03729241 901.56886196 667.11629009 C899.95614402 668.7354112 898.34650766 670.35755132 896.73699856 671.97986126 C891.95516874 676.78519405 887.14807131 681.50278019 881.96267605 685.87889385 C879.40585217 688.11681936 877.0838129 690.56683553 874.73052883 693.01489544 C864.12410277 704.03104189 854.38783731 710.95646756 838.59621936 711.49381465 C837.25999434 711.49871975 835.9237423 711.49825824 834.58751732 711.49334198 C833.84178333 711.49462007 833.09604934 711.49589815 832.32771734 711.49721497 C829.82802475 711.5002784 827.32839533 711.49621559 824.82870483 711.49219131 C823.01108705 711.49293105 821.19346939 711.49410975 819.37585214 711.49568781 C814.36179676 711.49876152 809.3477616 711.49557781 804.33370772 711.49140968 C798.88622506 711.48797985 793.43874449 711.49034544 787.99126142 711.49198717 C778.43761177 711.49406293 768.88396834 711.49241369 759.3303194 711.48834896 C745.12432223 711.48232159 730.918329 711.48201245 716.71233078 711.48289095 C692.8172478 711.48429868 668.92216747 711.48086681 645.0270853 711.47487354 C621.36166337 711.46895205 597.69624257 711.46509865 574.03081989 711.46402073 C573.29599266 711.46398632 572.56116544 711.46395191 571.80407072 711.46391645 C565.09260296 711.46360325 558.38113519 711.46331556 551.66966743 711.46305848 C534.98535421 711.46241906 518.30104102 711.46145973 501.61672783 711.46028328 C500.85694241 711.46022996 500.09715699 711.46017664 499.31434777 711.46012171 C462.35086082 711.45749989 425.38737462 711.4511922 388.42388821 711.44458294 C375.59596666 711.44229129 362.76804512 711.44001593 349.94012356 711.43780804 C349.14453976 711.43767109 348.34895597 711.43753414 347.52926357 711.43739304 C310.5478409 711.43104951 273.56641811 711.42732355 236.58499504 711.42427324 C234.18427258 711.42407518 231.78355012 711.42387599 229.38282765 711.42367656 C213.47317767 711.42235679 197.56352769 711.42108214 181.65387771 711.4198377 C149.9973471 711.41736117 118.34081651 711.41461949 86.68428594 711.41169566 C85.1767033 711.41155642 83.66912065 711.41141736 82.161538 711.41127849 C-0.35667449 711.40367559 -82.87488619 711.3913656 -218.73993015 711.36914349 C-218.80841105 662.71191441 -218.87209256 614.0546819 -218.90930271 565.39741802 C-218.90985494 564.67715103 -218.91040717 563.95688403 -218.91097613 563.21479077 C-218.92294806 547.56104102 -218.93402875 531.90729075 -218.94419147 516.25353972 C-218.94918077 508.57682355 -218.95436699 500.90010751 -218.95965672 493.22339153 C-218.96017975 492.45947042 -218.96070279 491.69554931 -218.96124167 490.90847908 C-218.97828376 466.15242067 -219.00832654 441.39639881 -219.04511904 416.64036253 C-219.0828628 391.19801911 -219.10747504 365.75569592 -219.11559011 340.31332498 C-219.11674271 336.71887682 -219.11804526 333.12442873 -219.11943913 329.52998066 C-219.11970882 328.82254927 -219.11997851 328.11511787 -219.12025637 327.38624917 C-219.12498125 316.00351538 -219.1435281 304.62084417 -219.16725829 293.23813589 C-219.19082595 281.79164632 -219.19947383 270.34524302 -219.19393566 258.89872553 C-219.19137126 252.6979499 -219.19532919 246.49735774 -219.21675205 240.29661465 C-219.23622701 234.61822722 -219.23719371 228.94014655 -219.22352573 223.26174495 C-219.22183662 221.20906674 -219.22690256 219.15636933 -219.23946288 217.10372885 C-219.33660644 200.24610319 -216.93851606 187.91198252 -204.99716282 175.25888348 C-203.58913592 173.83929489 -202.17303847 172.42767868 -200.75018406 171.02295208 C-199.58308651 169.85278797 -199.58308651 169.85278797 -198.39241123 168.65898418 C-195.84095612 166.1045425 -193.27897504 163.56095658 -190.71649265 161.01758099 C-188.92760859 159.23175883 -187.13931846 157.44534154 -185.35159397 155.65835857 C-181.61221869 151.92357334 -177.86819097 148.19352324 -174.11981297 144.4677763 C-169.32917388 139.70600486 -164.54782607 134.93501656 -159.76937389 130.16101933 C-155.19239657 125.58921263 -150.61074936 121.02209693 -146.02899265 116.45508099 C-145.16249718 115.59046623 -144.2960017 114.72585148 -143.40324879 113.83503628 C-140.93422826 111.37293685 -138.46187087 108.91423913 -135.98846531 106.45654583 C-135.26924397 105.73844234 -134.55002262 105.02033886 -133.80900669 104.28047466 C-129.87094955 100.37529919 -125.82826771 96.66151402 -121.63136959 93.03696918 C-118.72373228 90.4730847 -115.9943802 87.74741752 -113.2672739 84.99414349 C-112.67423466 84.39964397 -112.08119541 83.80514446 -111.47018528 83.19262981 C-110.19781734 81.91649083 -108.92660444 80.63919931 -107.65646458 79.3608427 C-105.63975709 77.33122934 -103.61981794 75.3048809 -101.59906101 73.27929974 C-97.30985221 68.97873115 -93.0245954 64.67423823 -88.73993015 60.36914349 C-83.77005433 55.37557105 -78.79851986 50.3836734 -73.82272434 45.39599895 C-71.84439401 43.41124363 -69.86912886 41.42347325 -67.89398289 39.43554974 C-57.0379604 28.53594753 -57.0379604 28.53594753 -51.31521702 23.73207378 C-49.04314994 21.76629274 -46.995273 19.60676927 -44.92254734 17.43506145 C-31.51594819 3.41907144 -18.9739028 -0.09158445 0 0 Z M-23.73993015 190.36914349 C-23.73993015 299.59914349 -23.73993015 408.82914349 -23.73993015 521.36914349 C1.67006985 521.36914349 27.08006985 521.36914349 53.26006985 521.36914349 C53.26006985 484.40914349 53.26006985 447.44914349 53.26006985 409.36914349 C89.23006985 409.36914349 125.20006985 409.36914349 162.26006985 409.36914349 C162.26006985 446.32914349 162.26006985 483.28914349 162.26006985 521.36914349 C187.01006985 521.36914349 211.76006985 521.36914349 237.26006985 521.36914349 C237.44153227 492.57924777 237.44153227 492.57924777 237.61578274 463.7893095 C237.62439239 462.33167775 237.62439239 462.33167775 237.63317597 460.84459889 C237.67587132 453.60278272 237.71808574 446.36096381 237.76006985 439.11914349 C237.76899266 437.58268492 237.76899266 437.58268492 237.77809572 436.01518679 C238.13193803 374.98707599 238.35566382 313.96082141 238.32256985 252.93164349 C238.32214561 252.12516809 238.32172138 251.3186927 238.32128429 250.48777866 C238.31829269 244.8990796 238.3147977 239.31038101 238.3108511 233.72168255 C238.31036015 233.02394269 238.30986919 232.32620284 238.30936337 231.60731936 C238.29928173 217.86125011 238.27869875 204.11520712 238.26006985 190.36914349 C213.18006985 190.36914349 188.10006985 190.36914349 162.26006985 190.36914349 C162.26006985 239.86914349 162.26006985 289.36914349 162.26006985 340.36914349 C126.29006985 340.36914349 90.32006985 340.36914349 53.26006985 340.36914349 C53.26006985 290.86914349 53.26006985 241.36914349 53.26006985 190.36914349 C27.85006985 190.36914349 2.44006985 190.36914349 -23.73993015 190.36914349 Z M298.26006985 190.36914349 C298.26006985 299.59914349 298.26006985 408.82914349 298.26006985 521.36914349 C323.67006985 521.36914349 349.08006985 521.36914349 375.26006985 521.36914349 C375.26006985 483.74914349 375.26006985 446.12914349 375.26006985 407.36914349 C427.59264371 403.15847662 427.59264371 403.15847662 438.38604641 411.92773724 C447.63329125 421.16789785 453.26926809 433.54531263 459.00567532 445.12500286 C463.89270152 454.79281146 470.10362441 463.62045507 476.19058132 472.55942059 C479.26349627 477.09845312 482.25341806 481.69115877 485.25225735 486.27929974 C490.65753933 494.5708578 490.65753933 494.5708578 496.40302944 502.6267271 C497.89629832 504.83193763 499.074399 506.91713123 500.27293301 509.2784605 C504.43668084 517.13251971 504.43668084 517.13251971 511.38534451 522.26847935 C517.46048255 523.6217757 523.62925641 523.20689267 529.8030386 522.93164349 C531.78262541 522.90175412 533.76233162 522.87900101 535.74207973 522.86303997 C540.92225046 522.80230037 546.09509848 522.6455102 551.27239895 522.4677763 C556.56741149 522.30329319 561.86362292 522.23085849 567.16046047 522.15039349 C577.53019329 521.97943206 587.89451999 521.7068431 598.26006985 521.36914349 C594.9305009 515.14214188 591.29257741 509.24568391 587.30694485 503.41992474 C586.73805538 502.58122341 586.16916592 501.74252209 585.58303738 500.87840557 C584.36254808 499.07926572 583.14053125 497.2811613 581.9171133 495.48401165 C578.64965674 490.6825394 575.39587887 485.87182615 572.14288235 481.06054974 C571.15045025 479.5929974 571.15045025 479.5929974 570.13796902 478.09579754 C563.64726482 468.48485093 557.24868717 458.81458184 550.88506985 449.11914349 C550.37054256 448.33534313 549.85601528 447.55154278 549.32589626 446.7439909 C545.96541227 441.6224433 542.6112271 436.49679743 539.26006985 431.36914349 C538.83582729 430.72022137 538.41158474 430.07129925 537.97448635 429.40271282 C533.39461583 422.39698816 528.82101568 415.3872066 524.26006985 408.36914349 C525.28745266 408.16160442 526.31483547 407.95406536 527.3733511 407.74023724 C540.09098634 404.98898112 550.60284887 400.43276394 558.26006985 389.36914349 C562.90611136 381.15924469 562.83110328 372.77382841 562.77764797 363.61328411 C562.78307761 362.04184098 562.79020497 360.47040294 562.79888821 358.89897442 C562.81702461 354.65716636 562.81009442 350.41575024 562.79737186 346.17393589 C562.7871937 341.71966712 562.79665085 337.26543028 562.80291653 332.81116009 C562.81017897 325.33319399 562.80064218 317.85538628 562.78155422 310.37744427 C562.75978815 301.75109204 562.76684052 293.12511807 562.78885984 284.49877501 C562.80705395 277.07169419 562.80955262 269.64472678 562.79910517 262.21763086 C562.79289222 257.79080258 562.79197369 253.36415167 562.80525112 248.93733501 C562.81686762 244.77401758 562.80867903 240.61118441 562.7856741 236.44791889 C562.78041778 234.92663976 562.7818476 233.40531936 562.79072475 231.88405704 C562.85252517 220.21074205 561.50454511 210.93676181 553.2483511 202.18554974 C543.59401445 193.36577264 533.6839041 190.20679165 520.85118008 190.24888897 C519.90181576 190.24803295 518.95245144 190.24717693 517.9743185 190.24629498 C514.78138258 190.24463906 511.58849903 190.25016463 508.39556789 190.2556181 C506.07210352 190.2559244 503.74863905 190.25579099 501.42517471 190.25525284 C495.19742525 190.25502688 488.96969497 190.26082698 482.74195004 190.26786327 C476.90021103 190.27355395 471.05847671 190.27382616 465.21673489 190.27453899 C448.12701066 190.27978842 431.03729001 190.29374955 413.94756985 190.30664349 C375.77069485 190.32726849 337.59381985 190.34789349 298.26006985 190.36914349 Z M623.26006985 190.36914349 C623.26006985 213.13914349 623.26006985 235.90914349 623.26006985 259.36914349 C648.34006985 259.36914349 673.42006985 259.36914349 699.26006985 259.36914349 C699.26006985 345.82914349 699.26006985 432.28914349 699.26006985 521.36914349 C724.67006985 521.36914349 750.08006985 521.36914349 776.26006985 521.36914349 C776.26006985 434.90914349 776.26006985 348.44914349 776.26006985 259.36914349 C801.67006985 259.36914349 827.08006985 259.36914349 853.26006985 259.36914349 C853.26006985 236.59914349 853.26006985 213.82914349 853.26006985 190.36914349 C777.36006985 190.36914349 701.46006985 190.36914349 623.26006985 190.36914349 Z " fill="#000000" transform="translate(218.73993015289307,-0.3691434860229492)"/>
<path d="M0 0 C36.3 0 72.6 0 110 0 C110 25.41 110 50.82 110 77 C73.7 77 37.4 77 0 77 C0 51.59 0 26.18 0 0 Z " fill="#000000" transform="translate(594,260)"/>
</svg>
