<svg width="52" height="29" xmlns="http://www.w3.org/2000/svg"><g fill="#F7941D"><path d="M51.4 0H8.45c-.42.027-.816.2-1.12.49C5.06 2.68 2.84 4.93.59 7.13A1.83 1.83 0 0 0 0 8.59v20.26h43.04a1.65 1.65 0 0 0 1.05-.44A609.675 609.675 0 0 0 51 21.57c.274-.318.43-.72.44-1.14V.88c.03-.28-.01-.55-.04-.88zM18.56 21.18h-3.11v-4.53h-4.38v4.53H7.89V7.7h3.18v6.08h4.38V7.7h3.12l-.01 13.48zm11 0l-3.09-4.63h-2.32v4.63H21V7.7h9.16c.42-.011.828.14 1.14.42.293.25.46.615.46 1v6a1.34 1.34 0 0 1-.46 1 1.64 1.64 0 0 1-1.14.42l3.08 4.63-3.68.01zm14.02-10.64h-3.12v10.64h-3.17V10.54h-3.12V7.7h9.41v2.84z"/><path d="M24.15 10.57h4.41v3.12h-4.41z"/></g></svg>