<?xml version="1.0" encoding="UTF-8"?>
<svg version="1.1" xmlns="http://www.w3.org/2000/svg" width="460" height="300">
<path d="M0 0 C3.07366836 1.98157719 5.53926904 4.30556834 8 7 C8.5775 6.21625 9.155 5.4325 9.75 4.625 C12.33565697 1.6084002 14.21560511 0.27901447 18.1484375 -0.3359375 C23.61112753 -0.43177417 26.69197568 0.32241826 31 4 C31.66 4.99 32.32 5.98 33 7 C33.46148437 6.4946875 33.92296875 5.989375 34.3984375 5.46875 C38.09166585 1.79011939 40.77427099 -0.51724953 46.125 -0.6875 C50.66865792 -0.35196834 53.5279216 0.9619314 57 4 C57.99 5.485 57.99 5.485 59 7 C59.46148437 6.4946875 59.92296875 5.989375 60.3984375 5.46875 C64.09166585 1.79011939 66.77427099 -0.51724953 72.125 -0.6875 C76.66080813 -0.34504299 79.60145816 0.86288446 83 4 C83.875 6.25 83.875 6.25 84 8 C84.66 8 85.32 8 86 8 C86.226875 7.236875 86.45375 6.47375 86.6875 5.6875 C88.37823505 2.22551871 89.41024181 1.42094595 93 0 C97.6359177 -0.86973327 101.37255188 -1.05351714 105.42578125 1.5703125 C107.39709586 3.30002728 109.23214233 5.06424523 111 7 C111.5775 6.21625 112.155 5.4325 112.75 4.625 C115.40058685 1.53264868 117.31081284 0.3246227 121.296875 -0.44140625 C126.67956337 -0.7071122 129.51192612 -0.12272521 133.625 3.5 C134.77328981 4.64375112 135.90705281 5.80325335 137 7 C137.5775 6.21625 138.155 5.4325 138.75 4.625 C141.33565697 1.6084002 143.21560511 0.27901447 147.1484375 -0.3359375 C152.61112753 -0.43177417 155.69197568 0.32241826 160 4 C160.99 5.485 160.99 5.485 162 7 C162.46148437 6.4946875 162.92296875 5.989375 163.3984375 5.46875 C167.09166585 1.79011939 169.77427099 -0.51724953 175.125 -0.6875 C179.69933669 -0.32914183 182.57651673 0.8270155 186 4 C188.9156441 8.37346615 189.56872801 11.78665994 189 17 C187.21297568 20.75275107 184.64547101 23.80719016 182 27 C183.175625 28.11375 183.175625 28.11375 184.375 29.25 C187.80716579 32.84560225 188.86226495 34.48491448 189.3125 39.4375 C188.80223392 45.25453333 185.63760926 48.60978193 182 53 C183.175625 54.11375 183.175625 54.11375 184.375 55.25 C187.74995674 58.78566897 188.82625717 60.46527168 189.375 65.3125 C188.9255494 69.73209754 187.83660993 72.59078248 185 76 C181.10501139 78.74419652 177.63386068 79.53822125 172.95703125 79.359375 C168.43655988 78.52926848 164.99485812 75.32762013 162 72 C160.8553125 73.175625 160.8553125 73.175625 159.6875 74.375 C156.35971692 77.62539277 154.32039299 79.29498458 149.6875 79.375 C144.18123502 79.25860741 141.08361355 76.94470598 137.125 73.25 C136.75375 72.8375 136.3825 72.425 136 72 C135.4225 72.78375 134.845 73.5675 134.25 74.375 C131.66434303 77.3915998 129.78439489 78.72098553 125.8515625 79.3359375 C120.38887247 79.43177417 117.30802432 78.67758174 113 75 C112.34 74.01 111.68 73.02 111 72 C110.51789063 72.42152344 110.03578125 72.84304687 109.5390625 73.27734375 C108.59160156 74.09912109 108.59160156 74.09912109 107.625 74.9375 C106.99851562 75.48277344 106.37203125 76.02804688 105.7265625 76.58984375 C102.58186954 79.15824682 100.06907117 79.2738605 96.03125 79.22265625 C91.83554102 78.762742 88.62896957 76.18243684 86 73 C86 72.34 86 71.68 86 71 C85.34 71 84.68 71 84 71 C83.5978125 71.8971875 83.5978125 71.8971875 83.1875 72.8125 C81.28837651 76.31088537 79.79963639 77.73345454 76 79 C69.8419551 79.50475778 66.95490423 79.03306159 62 75 C60.125 73.25 60.125 73.25 59 72 C58.2575 72.78375 57.515 73.5675 56.75 74.375 C52.95362277 77.99881462 51.38291329 78.86616968 46.125 79.375 C40.94738325 79.24965732 37.82408143 76.702476 34.125 73.25 C33.75375 72.8375 33.3825 72.425 33 72 C32.13375 73.175625 32.13375 73.175625 31.25 74.375 C28.66434303 77.3915998 26.78439489 78.72098553 22.8515625 79.3359375 C16.35489745 79.44991408 12.92870086 77.73345413 8.125 73.25 C7.75375 72.8375 7.3825 72.425 7 72 C6.13375 73.175625 6.13375 73.175625 5.25 74.375 C1.91729551 78.26315524 0.30506811 78.87163265 -4.8125 79.375 C-9.47313906 79.26175083 -12.21067429 77.652528 -16 75 C-18.34693138 71.47960293 -18.32723764 69.79942991 -18.375 65.625 C-18.40335938 64.50351563 -18.43171875 63.38203125 -18.4609375 62.2265625 C-17.78539157 57.49774098 -15.2729399 55.2729399 -12 52 C-12.804375 51.195625 -13.60875 50.39125 -14.4375 49.5625 C-18.16279435 45.83720565 -18.198083 45.12157692 -18.3125 39.75 C-18.34988281 38.61046875 -18.38726562 37.4709375 -18.42578125 36.296875 C-17.80564406 31.49507876 -15.31215506 29.31215506 -12 26 C-13.485 24.9171875 -13.485 24.9171875 -15 23.8125 C-18.25183256 20.59149049 -18.51262956 17.94253293 -18.625 13.4375 C-18.58834549 8.25088698 -17.67906573 5.69856607 -14 2 C-9.69529045 -0.81528005 -4.95887347 -1.01397861 0 0 Z M-10 11 C-9.67801034 14.09926819 -9.67801034 14.09926819 -9 17 C-6.09926819 17.67801034 -6.09926819 17.67801034 -3 18 C-0.7508092 16.17296773 -0.7508092 16.17296773 -0.75 13.5 C-0.7508092 10.82703227 -0.7508092 10.82703227 -3 9 C-6.9674509 8.56530472 -6.9674509 8.56530472 -10 11 Z M16 11 C15.66666667 13.5 15.66666667 13.5 16 16 C17.82703227 18.2491908 17.82703227 18.2491908 20.5 18.25 C23.17296773 18.2491908 23.17296773 18.2491908 25 16 C25.33333333 13.5 25.33333333 13.5 25 11 C23.17296773 8.7508092 23.17296773 8.7508092 20.5 8.75 C17.82703227 8.7508092 17.82703227 8.7508092 16 11 Z M42 11 C41.66666667 13.5 41.66666667 13.5 42 16 C42.66 16.66 43.32 17.32 44 18 C47.09926819 17.67801034 47.09926819 17.67801034 50 17 C50.67801034 14.09926819 50.67801034 14.09926819 51 11 C49.17296773 8.7508092 49.17296773 8.7508092 46.5 8.75 C43.82703227 8.7508092 43.82703227 8.7508092 42 11 Z M69 9 C67.70957237 11.26601865 67.70957237 11.26601865 67 14 C68.26352052 16.32511472 68.26352052 16.32511472 70 18 C71.98 17.67 73.96 17.34 76 17 C76.6878236 14.64632287 76.6878236 14.64632287 77 12 C76.34 11.01 75.68 10.02 75 9 C71.91634129 8.7497843 71.91634129 8.7497843 69 9 Z M95 9 C92.66608797 11.78114056 92.66608797 11.78114056 93.375 14.6875 C93.58125 15.450625 93.7875 16.21375 94 17 C96.97 17.495 96.97 17.495 100 18 C101.71815438 15.74832154 101.71815438 15.74832154 103 13 C102.30859649 10.69712207 102.30859649 10.69712207 101 9 C98.08365871 8.7497843 98.08365871 8.7497843 95 9 Z M119 11 C119.32198966 14.09926819 119.32198966 14.09926819 120 17 C122.90073181 17.67801034 122.90073181 17.67801034 126 18 C128.2491908 16.17296773 128.2491908 16.17296773 128.25 13.5 C128.2491908 10.82703227 128.2491908 10.82703227 126 9 C122.0325491 8.56530472 122.0325491 8.56530472 119 11 Z M145 11 C144.66666667 13.5 144.66666667 13.5 145 16 C146.82703227 18.2491908 146.82703227 18.2491908 149.5 18.25 C152.17296773 18.2491908 152.17296773 18.2491908 154 16 C154.33333333 13.5 154.33333333 13.5 154 11 C152.17296773 8.7508092 152.17296773 8.7508092 149.5 8.75 C146.82703227 8.7508092 146.82703227 8.7508092 145 11 Z M171 11 C170.66666667 13.5 170.66666667 13.5 171 16 C171.66 16.66 172.32 17.32 173 18 C176.09926819 17.67801034 176.09926819 17.67801034 179 17 C179.67801034 14.09926819 179.67801034 14.09926819 180 11 C178.17296773 8.7508092 178.17296773 8.7508092 175.5 8.75 C172.82703227 8.7508092 172.82703227 8.7508092 171 11 Z M7 18 C6.4225 18.928125 5.845 19.85625 5.25 20.8125 C3.28365288 23.59815842 1.81962028 25.18738696 -1 27 C-0.2575 27.391875 0.485 27.78375 1.25 28.1875 C4.19783071 30.13038842 5.93098611 32.16468467 8 35 C8.5775 34.071875 9.155 33.14375 9.75 32.1875 C11.71634712 29.40184158 13.18037972 27.81261304 16 26 C15.071875 25.4225 14.14375 24.845 13.1875 24.25 C10.40184158 22.28365288 8.81261304 20.81962028 7 18 Z M33 18 C32.608125 18.7425 32.21625 19.485 31.8125 20.25 C29.86961158 23.19783071 27.83531533 24.93098611 25 27 C25.928125 27.5775 26.85625 28.155 27.8125 28.75 C30.59815842 30.71634712 32.18738696 32.18037972 34 35 C34.391875 34.2575 34.78375 33.515 35.1875 32.75 C37.13038842 29.80216929 39.16468467 28.06901389 42 26 C41.071875 25.4225 40.14375 24.845 39.1875 24.25 C36.40184158 22.28365288 34.81261304 20.81962028 33 18 Z M59 18 C58.38511719 18.72316406 58.38511719 18.72316406 57.7578125 19.4609375 C57.21898438 20.09257813 56.68015625 20.72421875 56.125 21.375 C55.59132813 22.00148438 55.05765625 22.62796875 54.5078125 23.2734375 C53.38567993 24.55836651 52.20628025 25.79371975 51 27 C51.928125 27.598125 52.85625 28.19625 53.8125 28.8125 C56.20254718 30.45272845 58.08470253 31.8718917 60 34 C60.763125 33.05125 61.52625 32.1025 62.3125 31.125 C64.15534046 28.83390105 65.46837417 27.68775056 68 26 C67.071875 25.4225 66.14375 24.845 65.1875 24.25 C62.40184158 22.28365288 60.81261304 20.81962028 59 18 Z M110 18 C109.608125 18.7425 109.21625 19.485 108.8125 20.25 C106.86961158 23.19783071 104.83531533 24.93098611 102 27 C102.7425 27.4125 103.485 27.825 104.25 28.25 C106.90171685 29.93745618 108.86674014 31.70872089 111 34 C111.5775 33.236875 112.155 32.47375 112.75 31.6875 C114.71703093 29.33799083 116.48476744 27.70676495 119 26 C118.51789063 25.59007812 118.03578125 25.18015625 117.5390625 24.7578125 C116.90742188 24.21898437 116.27578125 23.68015625 115.625 23.125 C114.99851563 22.59132813 114.37203125 22.05765625 113.7265625 21.5078125 C112.44163349 20.38567993 111.20628025 19.20628025 110 18 Z M136 18 C135.4225 18.928125 134.845 19.85625 134.25 20.8125 C132.28365288 23.59815842 130.81962028 25.18738696 128 27 C128.7425 27.391875 129.485 27.78375 130.25 28.1875 C133.19783071 30.13038842 134.93098611 32.16468467 137 35 C137.5775 34.071875 138.155 33.14375 138.75 32.1875 C140.71634712 29.40184158 142.18037972 27.81261304 145 26 C144.071875 25.4225 143.14375 24.845 142.1875 24.25 C139.40184158 22.28365288 137.81261304 20.81962028 136 18 Z M162 18 C161.608125 18.7425 161.21625 19.485 160.8125 20.25 C158.86961158 23.19783071 156.83531533 24.93098611 154 27 C154.928125 27.5775 155.85625 28.155 156.8125 28.75 C159.59815842 30.71634712 161.18738696 32.18037972 163 35 C163.391875 34.2575 163.78375 33.515 164.1875 32.75 C166.13038842 29.80216929 168.16468467 28.06901389 171 26 C170.071875 25.4225 169.14375 24.845 168.1875 24.25 C165.40184158 22.28365288 163.81261304 20.81962028 162 18 Z M84 19 C82.62926214 20.63604196 81.29944744 22.30678061 80 24 C79.01769502 25.0173873 78.02530403 26.02596117 77 27 C77.78375 27.226875 78.5675 27.45375 79.375 27.6875 C82 29 82 29 83.3125 31.625 C83.539375 32.40875 83.76625 33.1925 84 34 C84.66 34 85.32 34 86 34 C86.226875 33.4225 86.45375 32.845 86.6875 32.25 C88.33038023 29.4336339 90.39533227 27.91922886 93 26 C92.030625 25.21625 91.06125 24.4325 90.0625 23.625 C88.16037654 22.08711295 87.10370043 21.20740087 86 19 C85.34 19 84.68 19 84 19 Z M-10 37 C-9.67801034 40.09926819 -9.67801034 40.09926819 -9 43 C-6.09926819 43.67801034 -6.09926819 43.67801034 -3 44 C-0.7508092 42.17296773 -0.7508092 42.17296773 -0.75 39.5 C-0.7508092 36.82703227 -0.7508092 36.82703227 -3 35 C-6.9674509 34.56530472 -6.9674509 34.56530472 -10 37 Z M16 37 C15.66666667 39.5 15.66666667 39.5 16 42 C17.82703227 44.2491908 17.82703227 44.2491908 20.5 44.25 C23.17296773 44.2491908 23.17296773 44.2491908 25 42 C25.33333333 39.5 25.33333333 39.5 25 37 C23.17296773 34.7508092 23.17296773 34.7508092 20.5 34.75 C17.82703227 34.7508092 17.82703227 34.7508092 16 37 Z M42 37 C41.66666667 39.5 41.66666667 39.5 42 42 C42.66 42.66 43.32 43.32 44 44 C47.09926819 43.67801034 47.09926819 43.67801034 50 43 C50.67801034 40.09926819 50.67801034 40.09926819 51 37 C49.17296773 34.7508092 49.17296773 34.7508092 46.5 34.75 C43.82703227 34.7508092 43.82703227 34.7508092 42 37 Z M69 35 C67.70957237 37.26601865 67.70957237 37.26601865 67 40 C68.26352052 42.32511472 68.26352052 42.32511472 70 44 C71.98 43.67 73.96 43.34 76 43 C76.6878236 40.64632287 76.6878236 40.64632287 77 38 C76.34 37.01 75.68 36.02 75 35 C71.91634129 34.7497843 71.91634129 34.7497843 69 35 Z M95 35 C92.66608797 37.78114056 92.66608797 37.78114056 93.375 40.6875 C93.58125 41.450625 93.7875 42.21375 94 43 C96.97 43.495 96.97 43.495 100 44 C101.62750037 41.67676547 101.62750037 41.67676547 103 39 C102.67 38.01 102.34 37.02 102 36 C99.69 35.67 97.38 35.34 95 35 Z M119 37 C119.32198966 40.09926819 119.32198966 40.09926819 120 43 C122.90073181 43.67801034 122.90073181 43.67801034 126 44 C128.2491908 42.17296773 128.2491908 42.17296773 128.25 39.5 C128.2491908 36.82703227 128.2491908 36.82703227 126 35 C122.0325491 34.56530472 122.0325491 34.56530472 119 37 Z M145 37 C144.66666667 39.5 144.66666667 39.5 145 42 C146.82703227 44.2491908 146.82703227 44.2491908 149.5 44.25 C152.17296773 44.2491908 152.17296773 44.2491908 154 42 C154.33333333 39.5 154.33333333 39.5 154 37 C152.17296773 34.7508092 152.17296773 34.7508092 149.5 34.75 C146.82703227 34.7508092 146.82703227 34.7508092 145 37 Z M171 37 C170.66666667 39.5 170.66666667 39.5 171 42 C171.66 42.66 172.32 43.32 173 44 C176.09926819 43.67801034 176.09926819 43.67801034 179 43 C179.67801034 40.09926819 179.67801034 40.09926819 180 37 C178.17296773 34.7508092 178.17296773 34.7508092 175.5 34.75 C172.82703227 34.7508092 172.82703227 34.7508092 171 37 Z M7 44 C6.4225 44.928125 5.845 45.85625 5.25 46.8125 C3.28365288 49.59815842 1.81962028 51.18738696 -1 53 C-0.2575 53.391875 0.485 53.78375 1.25 54.1875 C4.19783071 56.13038842 5.93098611 58.16468467 8 61 C8.5775 60.071875 9.155 59.14375 9.75 58.1875 C11.71634712 55.40184158 13.18037972 53.81261304 16 52 C15.071875 51.4225 14.14375 50.845 13.1875 50.25 C10.40184158 48.28365288 8.81261304 46.81962028 7 44 Z M33 44 C32.608125 44.7425 32.21625 45.485 31.8125 46.25 C29.86961158 49.19783071 27.83531533 50.93098611 25 53 C25.928125 53.5775 26.85625 54.155 27.8125 54.75 C30.59815842 56.71634712 32.18738696 58.18037972 34 61 C34.391875 60.2575 34.78375 59.515 35.1875 58.75 C37.13038842 55.80216929 39.16468467 54.06901389 42 52 C41.071875 51.4225 40.14375 50.845 39.1875 50.25 C36.40184158 48.28365288 34.81261304 46.81962028 33 44 Z M59 44 C56.65712582 46.67247634 56.65712582 46.67247634 56 50 C54.35 50.66 52.7 51.32 51 52 C51.7425 52.5775 52.485 53.155 53.25 53.75 C55.66087643 55.72253526 57.84042701 57.76044282 60 60 C60.763125 59.05125 61.52625 58.1025 62.3125 57.125 C64.15534046 54.83390105 65.46837417 53.68775056 68 52 C67.071875 51.4225 66.14375 50.845 65.1875 50.25 C62.40184158 48.28365288 60.81261304 46.81962028 59 44 Z M110 44 C109.608125 44.7425 109.21625 45.485 108.8125 46.25 C106.86961158 49.19783071 104.83531533 50.93098611 102 53 C102.7425 53.4125 103.485 53.825 104.25 54.25 C106.90171685 55.93745618 108.86674014 57.70872089 111 60 C111.5775 59.236875 112.155 58.47375 112.75 57.6875 C114.71703093 55.33799083 116.48476744 53.70676495 119 52 C118.21625 51.7525 117.4325 51.505 116.625 51.25 C113.60938271 49.81399177 113.21785344 48.99779308 112 46 C111.34 45.34 110.68 44.68 110 44 Z M136 44 C135.4225 44.928125 134.845 45.85625 134.25 46.8125 C132.28365288 49.59815842 130.81962028 51.18738696 128 53 C128.7425 53.391875 129.485 53.78375 130.25 54.1875 C133.19783071 56.13038842 134.93098611 58.16468467 137 61 C137.5775 60.071875 138.155 59.14375 138.75 58.1875 C140.71634712 55.40184158 142.18037972 53.81261304 145 52 C144.071875 51.4225 143.14375 50.845 142.1875 50.25 C139.40184158 48.28365288 137.81261304 46.81962028 136 44 Z M162 44 C161.608125 44.7425 161.21625 45.485 160.8125 46.25 C158.86961158 49.19783071 156.83531533 50.93098611 154 53 C154.928125 53.5775 155.85625 54.155 156.8125 54.75 C159.59815842 56.71634712 161.18738696 58.18037972 163 61 C163.391875 60.2575 163.78375 59.515 164.1875 58.75 C166.13038842 55.80216929 168.16468467 54.06901389 171 52 C170.071875 51.4225 169.14375 50.845 168.1875 50.25 C165.40184158 48.28365288 163.81261304 46.81962028 162 44 Z M84 45 C82.71569138 46.47695491 81.43419292 47.95806138 80.21875 49.4921875 C79 51 79 51 77 53 C77.969375 53.78375 78.93875 54.5675 79.9375 55.375 C81.83962346 56.91288705 82.89629957 57.79259913 84 60 C84.66 60 85.32 60 86 60 C86.226875 59.4225 86.45375 58.845 86.6875 58.25 C88.33038023 55.4336339 90.39533227 53.91922886 93 52 C92.030625 51.21625 91.06125 50.4325 90.0625 49.625 C88.16037654 48.08711295 87.10370043 47.20740087 86 45 C85.34 45 84.68 45 84 45 Z M-10 63 C-9.81242938 66.82564665 -9.81242938 66.82564665 -8 70 C-5.54190002 70.2500773 -5.54190002 70.2500773 -3 70 C-0.7508092 68.17296773 -0.7508092 68.17296773 -0.75 65.5 C-0.7508092 62.82703227 -0.7508092 62.82703227 -3 61 C-6.9674509 60.56530472 -6.9674509 60.56530472 -10 63 Z M16 63 C15.66666667 65.5 15.66666667 65.5 16 68 C17.82703227 70.2491908 17.82703227 70.2491908 20.5 70.25 C23.17296773 70.2491908 23.17296773 70.2491908 25 68 C25.33333333 65.5 25.33333333 65.5 25 63 C23.17296773 60.7508092 23.17296773 60.7508092 20.5 60.75 C17.82703227 60.7508092 17.82703227 60.7508092 16 63 Z M42 63 C41.66666667 65.5 41.66666667 65.5 42 68 C42.66 68.66 43.32 69.32 44 70 C47.09926819 69.67801034 47.09926819 69.67801034 50 69 C50.67801034 66.09926819 50.67801034 66.09926819 51 63 C49.17296773 60.7508092 49.17296773 60.7508092 46.5 60.75 C43.82703227 60.7508092 43.82703227 60.7508092 42 63 Z M68 62 C67.06608997 63.81656815 67.06608997 63.81656815 67 66 C68.3516367 68.24755753 68.3516367 68.24755753 70 70 C71.98 69.67 73.96 69.34 76 69 C76.6878236 66.64632287 76.6878236 66.64632287 77 64 C76.34 63.01 75.68 62.02 75 61 C72.19438238 60.71943824 70.53421737 60.73289132 68 62 Z M95 61 C92.66608797 63.78114056 92.66608797 63.78114056 93.375 66.6875 C93.58125 67.450625 93.7875 68.21375 94 69 C96.97 69.495 96.97 69.495 100 70 C101.62750037 67.67676547 101.62750037 67.67676547 103 65 C102.67 64.01 102.34 63.02 102 62 C99.69 61.67 97.38 61.34 95 61 Z M119 63 C119.18757062 66.82564665 119.18757062 66.82564665 121 70 C123.45809998 70.2500773 123.45809998 70.2500773 126 70 C128.2491908 68.17296773 128.2491908 68.17296773 128.25 65.5 C128.2491908 62.82703227 128.2491908 62.82703227 126 61 C122.0325491 60.56530472 122.0325491 60.56530472 119 63 Z M145 63 C144.66666667 65.5 144.66666667 65.5 145 68 C146.82703227 70.2491908 146.82703227 70.2491908 149.5 70.25 C152.17296773 70.2491908 152.17296773 70.2491908 154 68 C154.33333333 65.5 154.33333333 65.5 154 63 C152.17296773 60.7508092 152.17296773 60.7508092 149.5 60.75 C146.82703227 60.7508092 146.82703227 60.7508092 145 63 Z M171 63 C170.66666667 65.5 170.66666667 65.5 171 68 C171.66 68.66 172.32 69.32 173 70 C176.09926819 69.67801034 176.09926819 69.67801034 179 69 C179.67801034 66.09926819 179.67801034 66.09926819 180 63 C178.17296773 60.7508092 178.17296773 60.7508092 175.5 60.75 C172.82703227 60.7508092 172.82703227 60.7508092 171 63 Z " fill="#030303" transform="translate(32,98)"/>
<path d="M0 0 C3.80174531 2.05410204 6.3516043 4.76568519 8.79296875 8.28125 C9.38464844 7.79914063 9.97632813 7.31703125 10.5859375 6.8203125 C11.37613281 6.18867187 12.16632813 5.55703125 12.98046875 4.90625 C13.75777344 4.27976562 14.53507812 3.65328125 15.3359375 3.0078125 C21.47823916 -1.30839948 27.48382512 -1.47587245 34.79296875 -0.71875 C40.13244293 0.80681405 43.01636212 4.44133538 45.84765625 8.98828125 C48.14916892 14.57087603 47.97673731 20.87698246 48.109375 26.83984375 C48.1301561 27.62899673 48.15093719 28.41814972 48.17234802 29.23121643 C48.2372018 31.72698109 48.2964268 34.22284178 48.35546875 36.71875 C48.39871517 38.42123348 48.44233131 40.12370762 48.48632812 41.82617188 C48.59281638 45.97776873 48.69426022 50.12946118 48.79296875 54.28125 C50.77296875 54.77625 50.77296875 54.77625 52.79296875 55.28125 C52.79296875 56.60125 52.79296875 57.92125 52.79296875 59.28125 C44.54296875 59.28125 36.29296875 59.28125 27.79296875 59.28125 C27.79296875 57.96125 27.79296875 56.64125 27.79296875 55.28125 C29.11296875 55.28125 30.43296875 55.28125 31.79296875 55.28125 C31.86724543 49.6762175 31.92163083 44.07147289 31.95776367 38.46606445 C31.97283003 36.56008919 31.99328699 34.65414848 32.01928711 32.74829102 C32.05576517 30.00528424 32.07271667 27.26273672 32.0859375 24.51953125 C32.10142136 23.67038651 32.11690521 22.82124176 32.13285828 21.94636536 C32.13419223 17.23411115 31.88229716 14.09819717 28.79296875 10.28125 C26.40779966 9.08866545 25.18309016 9.19970989 22.54296875 9.40625 C21.7953125 9.45007813 21.04765625 9.49390625 20.27734375 9.5390625 C16.70069123 10.60755932 14.07877519 12.3644319 11.79296875 15.28125 C10.98028332 18.30282346 11.09058921 21.19015062 11.20703125 24.30078125 C11.21976578 25.58863777 11.21976578 25.58863777 11.23275757 26.9025116 C11.26624078 29.63422231 11.34150505 32.3629378 11.41796875 35.09375 C11.44807517 36.94982704 11.4754498 38.80595053 11.5 40.66210938 C11.5660148 45.20297007 11.66949694 49.74160296 11.79296875 54.28125 C13.11296875 54.61125 14.43296875 54.94125 15.79296875 55.28125 C15.79296875 56.60125 15.79296875 57.92125 15.79296875 59.28125 C7.54296875 59.28125 -0.70703125 59.28125 -9.20703125 59.28125 C-9.20703125 57.96125 -9.20703125 56.64125 -9.20703125 55.28125 C-7.22703125 54.78625 -7.22703125 54.78625 -5.20703125 54.28125 C-5.1823006 48.65788086 -5.16415666 43.03454343 -5.15209961 37.41113281 C-5.14707284 35.49836679 -5.14025048 33.5856046 -5.1315918 31.67285156 C-5.11945377 28.9225164 -5.11378635 26.17223207 -5.109375 23.421875 C-5.10421371 22.56756897 -5.09905243 21.71326294 -5.09373474 20.83306885 C-5.09365921 20.03254089 -5.09358368 19.23201294 -5.09350586 18.40722656 C-5.09128525 17.70551331 -5.08906464 17.00380005 -5.08677673 16.28082275 C-5.21340315 14.17529912 -5.63383104 12.30717372 -6.20703125 10.28125 C-13.14959949 8.98286474 -13.14959949 8.98286474 -19.70703125 11.09375 C-23.66021255 14.26847177 -23.66021255 14.26847177 -24.52587891 19.18017578 C-24.56761728 20.86208627 -24.59861896 22.54428432 -24.62109375 24.2265625 C-24.6404599 25.1115744 -24.65982605 25.9965863 -24.67977905 26.90841675 C-24.73965848 29.74092916 -24.78599338 32.57348203 -24.83203125 35.40625 C-24.87020336 37.32423668 -24.90925463 39.24220607 -24.94921875 41.16015625 C-25.0453668 45.86704748 -25.12936667 50.57401896 -25.20703125 55.28125 C-23.55703125 55.28125 -21.90703125 55.28125 -20.20703125 55.28125 C-20.20703125 56.60125 -20.20703125 57.92125 -20.20703125 59.28125 C-28.45703125 59.28125 -36.70703125 59.28125 -45.20703125 59.28125 C-45.20703125 57.96125 -45.20703125 56.64125 -45.20703125 55.28125 C-43.88703125 55.28125 -42.56703125 55.28125 -41.20703125 55.28125 C-41.20703125 38.78125 -41.20703125 22.28125 -41.20703125 5.28125 C-42.52703125 4.62125 -43.84703125 3.96125 -45.20703125 3.28125 C-45.20703125 2.29125 -45.20703125 1.30125 -45.20703125 0.28125 C-38.60703125 0.28125 -32.00703125 0.28125 -25.20703125 0.28125 C-24.87703125 1.93125 -24.54703125 3.58125 -24.20703125 5.28125 C-23.65273438 4.93191406 -23.0984375 4.58257812 -22.52734375 4.22265625 C-21.80289062 3.76761719 -21.0784375 3.31257813 -20.33203125 2.84375 C-19.61273438 2.39128906 -18.8934375 1.93882813 -18.15234375 1.47265625 C-12.83662845 -1.78295252 -5.9281221 -1.93057428 0 0 Z " fill="#030303" transform="translate(323.20703125,108.71875)"/>
<path d="M0 0 C2.45995158 3.33283763 2.9375 5.49574762 2.9375 9.625 C1.59187601 12.57255732 0.85195456 14.16777272 -2.0625 15.625 C-6.41727171 16.11799302 -8.40384023 16.07782859 -12.0625 13.5625 C-14.0625 10.625 -14.0625 10.625 -13.9375 7 C-13.3816174 4.85588141 -12.76294629 2.72633886 -12.0625 0.625 C-17.12955 -1.99025161 -22.60957232 -2.44263713 -28.05859375 -0.7578125 C-32.26801674 1.2880576 -34.57636898 4.02036575 -36.40234375 8.3046875 C-38.93678744 17.21273219 -36.68060907 26.32903985 -33.0625 34.625 C-29.7319862 40.13846714 -25.75538861 43.71459342 -19.453125 45.34375 C-13.99349462 45.98605946 -9.21485128 45.27353067 -4.79296875 41.88671875 C-3.43696196 40.63134326 -2.11855006 39.33344464 -0.8515625 37.98828125 C0.9375 36.625 0.9375 36.625 3.1640625 36.91796875 C3.74929688 37.15128906 4.33453125 37.38460937 4.9375 37.625 C4.34866251 41.59965309 2.72663621 43.76783607 -0.0625 46.625 C-9.49855477 53.12504438 -16.58403489 54.50604975 -28.0625 53.625 C-36.61082852 51.60616398 -43.03765089 46.95758573 -47.875 39.6875 C-52.20254615 32.15700028 -53.44528597 24.26613823 -51.375 15.8203125 C-48.14474863 6.10263962 -43.61515305 -0.23442821 -34.56640625 -5.18359375 C-22.3170339 -11.01207825 -10.48589233 -8.1319165 0 0 Z " fill="#030303" transform="translate(432.0625,115.375)"/>
<path d="M0 0 C8.58 0 17.16 0 26 0 C26 0.99 26 1.98 26 3 C25.360625 3.12375 24.72125 3.2475 24.0625 3.375 C23.381875 3.58125 22.70125 3.7875 22 4 C20.78016252 6.43967497 20.87948473 7.99904524 20.88647461 10.72509766 C20.88658791 12.19639633 20.88658791 12.19639633 20.88670349 13.69741821 C20.89186478 14.75891083 20.89702606 15.82040344 20.90234375 16.9140625 C20.90446617 18.54122696 20.90446617 18.54122696 20.90663147 20.20126343 C20.91224198 23.67587 20.92479628 27.15041281 20.9375 30.625 C20.94251365 32.97656157 20.94707679 35.32812415 20.95117188 37.6796875 C20.96221482 43.45314686 20.97896321 49.22656888 21 55 C22.65 55 24.3 55 26 55 C25.67 56.32 25.34 57.64 25 59 C16.75 59 8.5 59 0 59 C0 57.68 0 56.36 0 55 C0.639375 54.87625 1.27875 54.7525 1.9375 54.625 C2.618125 54.41875 3.29875 54.2125 4 54 C5.18123984 51.63752032 5.12679683 50.2160385 5.12939453 47.58203125 C5.13412277 46.21050903 5.13412277 46.21050903 5.13894653 44.8112793 C5.13591019 43.32688354 5.13591019 43.32688354 5.1328125 41.8125 C5.13376923 40.79905518 5.13472595 39.78561035 5.13571167 38.74145508 C5.13639296 36.59619078 5.13454226 34.45092442 5.13037109 32.30566406 C5.12502214 29.01362497 5.13031784 25.72172232 5.13671875 22.4296875 C5.13605796 20.34895803 5.13477678 18.26822865 5.1328125 16.1875 C5.13483673 15.19790283 5.13686096 14.20830566 5.13894653 13.1887207 C5.13579437 12.27437256 5.13264221 11.36002441 5.12939453 10.41796875 C5.12859894 9.61125732 5.12780334 8.8045459 5.12698364 7.97338867 C5.12346032 5.92287501 5.12346032 5.92287501 4 4 C1.97536745 3.34786708 1.97536745 3.34786708 0 3 C0 2.01 0 1.02 0 0 Z " fill="#030303" transform="translate(244,109)"/>
<path d="M0 0 C1.65 0 3.3 0 5 0 C5.99 1.98 6.98 3.96 8 6 C8.33 4.02 8.66 2.04 9 0 C10.65 0 12.3 0 14 0 C14 7.92 14 15.84 14 24 C12.35 24 10.7 24 9 24 C8.01 21.69 7.02 19.38 6 17 C5.67 19.31 5.34 21.62 5 24 C3.35 24 1.7 24 0 24 C0 16.08 0 8.16 0 0 Z " fill="#030303" transform="translate(394,183)"/>
<path d="M0 0 C10 0 10 0 14 3 C14.42578125 5.12109375 14.42578125 5.12109375 14.3125 7.4375 C14.28800781 8.19933594 14.26351563 8.96117187 14.23828125 9.74609375 C14 12 14 12 13.421875 14.01953125 C12.91133961 16.41621128 13.27340868 17.90614828 13.9375 20.25 C14.288125 21.4875 14.63875 22.725 15 24 C13.02 24 11.04 24 9 24 C8.34 22.02 7.68 20.04 7 18 C6.67 19.98 6.34 21.96 6 24 C4.02 24 2.04 24 0 24 C0 16.08 0 8.16 0 0 Z M6 5 C6 6.65 6 8.3 6 10 C6.99 10 7.98 10 9 10 C9 8.35 9 6.7 9 5 C8.01 5 7.02 5 6 5 Z " fill="#030303" transform="translate(273,183)"/>
<path d="M0 0 C10 0 10 0 12.59765625 2.0625 C14.28910533 5.60559112 14.50083882 8.08143812 14.4375 12 C14.43621094 13.19625 14.43492187 14.3925 14.43359375 15.625 C13.68727098 21.43421505 13.68727098 21.43421505 11 24 C7.37 24 3.74 24 0 24 C0 16.08 0 8.16 0 0 Z M5 5 C5 9.95 5 14.9 5 20 C5.99 19.67 6.98 19.34 8 19 C8 14.38 8 9.76 8 5 C7.01 5 6.02 5 5 5 Z " fill="#030303" transform="translate(334,183)"/>
<path d="M0 0 C1.9375 1.6875 1.9375 1.6875 3 4 C3.1875 6.75 3.1875 6.75 3 9 C1.35 9 -0.3 9 -2 9 C-2.33 8.01 -2.66 7.02 -3 6 C-3.66 5.67 -4.32 5.34 -5 5 C-5 6.98 -5 8.96 -5 11 C-2.36 11 0.28 11 3 11 C3 15.29 3 19.58 3 24 C-5.3984375 24.1953125 -5.3984375 24.1953125 -8 24 C-10.8199387 21.1800613 -10.28962838 19.07095841 -10.32226562 15.21679688 C-10.31743164 13.90291992 -10.31743164 13.90291992 -10.3125 12.5625 C-10.32861328 11.69044922 -10.34472656 10.81839844 -10.36132812 9.91992188 C-10.36197266 9.08138672 -10.36261719 8.24285156 -10.36328125 7.37890625 C-10.36626221 6.6113501 -10.36924316 5.84379395 -10.37231445 5.05297852 C-9.34147877 -0.63115086 -4.97954194 -0.62244274 0 0 Z M-5 16 C-5 17.32 -5 18.64 -5 20 C-4.01 19.67 -3.02 19.34 -2 19 C-2 18.01 -2 17.02 -2 16 C-2.99 16 -3.98 16 -5 16 Z " fill="#030303" transform="translate(434,183)"/>
<path d="M0 0 C2.31 0 4.62 0 7 0 C7.67301289 3.24871916 8.3372951 6.49916379 9 9.75 C9.19078125 10.67039063 9.3815625 11.59078125 9.578125 12.5390625 C9.75859375 13.42851562 9.9390625 14.31796875 10.125 15.234375 C10.29257812 16.05131836 10.46015625 16.86826172 10.6328125 17.70996094 C11 20 11 20 11 24 C9.35 24 7.7 24 6 24 C5.67 22.35 5.34 20.7 5 19 C4.01 19 3.02 19 2 19 C2 20.65 2 22.3 2 24 C0.02 24 -1.96 24 -4 24 C-2.68 16.08 -1.36 8.16 0 0 Z M3 11 C4 14 4 14 4 14 Z " fill="#030303" transform="translate(307,183)"/>
<path d="M0 0 C4.29 0 8.58 0 13 0 C13 1.65 13 3.3 13 5 C11.68 5 10.36 5 9 5 C9 11.27 9 17.54 9 24 C7.35 24 5.7 24 4 24 C4 17.73 4 11.46 4 5 C2.68 5 1.36 5 0 5 C0 3.35 0 1.7 0 0 Z " fill="#030303" transform="translate(244,183)"/>
<path d="M0 0 C1.98 0 3.96 0 6 0 C6 7.92 6 15.84 6 24 C4.02 24 2.04 24 0 24 C0 16.08 0 8.16 0 0 Z " fill="#030303" transform="translate(368,183)"/>
</svg>
