<?xml version="1.0" encoding="UTF-8"?>
<svg version="1.1" xmlns="http://www.w3.org/2000/svg" width="1284" height="361">
<path d="M0 0 C15.67248142 -0.43715312 30.8465058 0.86495782 46.12597656 4.43701172 C46.9700708 4.63383545 47.81416504 4.83065918 48.68383789 5.03344727 C54.70767597 6.52768206 60.35684579 8.63201328 66.06347656 11.06201172 C65.63369973 18.36821783 63.75961557 25.70577267 60.06347656 32.06201172 C55.56007497 34.22298465 50.94514494 32.14080066 46.43847656 30.74951172 C44.8209937 30.27600705 43.2025014 29.80593668 41.58300781 29.33935547 C40.80393066 29.11489746 40.02485352 28.89043945 39.22216797 28.65917969 C13.56621234 21.56186375 -15.06693243 24.31850483 -39.93652344 33.06201172 C-40.57106445 33.28228027 -41.20560547 33.50254883 -41.859375 33.72949219 C-61.42582541 40.66284325 -77.89123967 51.8636479 -92.93652344 66.06201172 C-93.67386719 66.73490234 -94.41121094 67.40779297 -95.17089844 68.10107422 C-121.49635077 93.02623653 -134.42920243 129.37619981 -136.12011719 164.92138672 C-136.76221107 200.7275635 -123.97942351 234.84430051 -100.93652344 262.06201172 C-100.17339844 262.97853516 -99.41027344 263.89505859 -98.62402344 264.83935547 C-93.29204963 271.01873225 -87.41004345 276.1111725 -80.93652344 281.06201172 C-79.94523437 281.85349609 -78.95394531 282.64498047 -77.93261719 283.46044922 C-49.03307825 305.87614573 -10.68004756 314.4975586 25.28222656 310.55810547 C62.28435174 305.67678422 97.05011524 286.32054855 120.12597656 256.87451172 C144.00666338 225.3696601 154.41255576 186.62332304 149.23901367 147.34301758 C144.99392422 119.93978042 133.34800206 94.90313458 115.06347656 74.06201172 C113.98646484 72.78583984 113.98646484 72.78583984 112.88769531 71.48388672 C106.78716424 64.41897329 99.92899013 58.40873238 92.23535156 53.11669922 C90.06347656 51.06201172 90.06347656 51.06201172 89.40722656 48.80029297 C90.4204188 44.57262773 92.92254028 41.63990289 95.56347656 38.24951172 C96.088125 37.55664062 96.61277344 36.86376953 97.15332031 36.14990234 C98.4460726 34.44581978 99.75338267 32.75279848 101.06347656 31.06201172 C110.63310136 32.39808499 118.26524839 41.72852729 125.06347656 48.06201172 C126.14048828 49.04041016 126.14048828 49.04041016 127.23925781 50.03857422 C155.63052771 76.92463968 173.60925656 118.22406762 175.18969727 157.17260742 C175.54015449 172.70731943 175.33071729 187.83525499 172.06347656 203.06201172 C171.8971875 203.84688965 171.73089844 204.63176758 171.55957031 205.44042969 C166.48157324 228.54061453 156.14650427 250.12192593 142.06347656 269.06201172 C141.4125 269.93857422 140.76152344 270.81513672 140.09082031 271.71826172 C111.87430663 307.81800177 71.18600076 329.84668408 25.93457031 335.62060547 C-17.81190853 340.2369748 -62.37373814 328.09908174 -96.87011719 300.64013672 C-102.07943604 296.31541918 -107.03219734 291.72657076 -111.93652344 287.06201172 C-112.56945312 286.48193359 -113.20238281 285.90185547 -113.85449219 285.30419922 C-142.24475416 258.46494918 -159.77171102 215.80468545 -160.93652344 177.06201172 C-160.99646484 175.16515625 -160.99646484 175.16515625 -161.05761719 173.22998047 C-161.93061293 130.95416944 -147.76811276 90.00296322 -119.93652344 58.06201172 C-118.69128906 56.61568359 -118.69128906 56.61568359 -117.42089844 55.14013672 C-89.51694571 23.33779964 -49.59186698 4.61683101 -7.74902344 0.31201172 C-5.16597079 0.16200441 -2.58579065 0.08280268 0 0 Z " fill="#040707" transform="translate(177.9365234375,14.93798828125)"/>
<path d="M0 0 C25.1398009 22.34613 43.28479548 54.09256575 45.34423828 88.19262695 C45.46456673 92.15062743 45.51108179 96.10313337 45.5 100.0625 C45.49978851 100.76293427 45.49957703 101.46336853 45.49935913 102.18502808 C45.46380775 114.0266691 44.33890233 125.13829254 41.125 136.5625 C40.79757812 137.81804687 40.47015625 139.07359375 40.1328125 140.3671875 C30.68106284 172.44794364 6.88474813 200.90682064 -22.3125 216.89746094 C-34.03870243 223.05103592 -45.88562355 227.87667436 -58.875 230.5625 C-59.74946777 230.74506348 -60.62393555 230.92762695 -61.52490234 231.11572266 C-69.80183256 232.67607059 -77.96871378 232.96325524 -86.375 232.9375 C-87.07676361 232.93662384 -87.77852722 232.93574768 -88.5015564 232.93484497 C-124.41307622 232.78750154 -157.03906333 218.30387995 -182.43359375 193.04736328 C-186.23861296 189.12762635 -189.62188594 184.9447437 -192.875 180.5625 C-193.65488281 179.51320313 -194.43476563 178.46390625 -195.23828125 177.3828125 C-200.78593911 169.54518879 -200.78593911 169.54518879 -201.10546875 166.01953125 C-199.08631959 161.98764294 -195.47995905 160.60465268 -191.5625 158.625 C-190.40331055 157.98981445 -190.40331055 157.98981445 -189.22070312 157.34179688 C-184.88060567 155.08405057 -184.88060567 155.08405057 -182.875 154.5625 C-178.98232023 155.94367322 -177.47436335 158.187339 -175.1875 161.5625 C-157.74701588 186.25642022 -133.31105179 201.65106394 -103.7421875 207.14453125 C-70.94568414 210.68920384 -42.76930058 203.05439255 -16.875 182.5625 C-16.21628906 182.05976563 -15.55757812 181.55703125 -14.87890625 181.0390625 C4.68465656 165.40628483 16.54289852 138.83432552 20.125 114.5625 C20.90193274 100.47529674 21.061821 86.19651212 17.125 72.5625 C16.85816406 71.5725 16.59132813 70.5825 16.31640625 69.5625 C8.22356477 42.51442537 -10.28210763 20.15567085 -34.72265625 6.33984375 C-44.03202852 1.31841079 -53.61739043 -1.94959729 -63.875 -4.4375 C-64.85339844 -4.68371094 -65.83179688 -4.92992188 -66.83984375 -5.18359375 C-94.7003259 -10.97953337 -123.2447049 -3.48952188 -146.97460938 11.30322266 C-171.97246676 27.86783576 -186.79404426 53.74744719 -192.875 82.5625 C-193.96440245 88.47931708 -194.02869787 94.25522039 -194 100.25 C-193.99709961 101.70623779 -193.99709961 101.70623779 -193.99414062 103.19189453 C-193.95300867 110.02779673 -193.67764168 116.76871152 -192.875 123.5625 C-208.35751748 128.93837413 -208.35751748 128.93837413 -215.875 128.5625 C-224.85490691 99.82679788 -217.85479809 66.01305781 -204.875 39.5625 C-193.61102505 18.98080927 -177.74734954 1.11316231 -157.875 -11.4375 C-157.01890137 -11.98011475 -157.01890137 -11.98011475 -156.14550781 -12.53369141 C-107.93811397 -42.59193951 -42.86837254 -36.92197427 0 0 Z " fill="#040707" transform="translate(271.875,82.4375)"/>
<path d="M0 0 C5.24056461 3.96520597 9.98760011 8.38558878 14.6484375 13.00390625 C15.46570313 13.80828125 16.28296875 14.61265625 17.125 15.44140625 C34.43884811 33.52872524 42.06069465 58.72156435 41.796875 83.3359375 C41.31716873 95.18973179 38.43937831 105.86259167 34.6484375 117.00390625 C32.05008209 118.04012414 30.27531315 118.2417498 27.64208984 117.24267578 C25.33376913 116.07852824 23.08275391 114.84518944 20.8359375 113.56640625 C20.04767578 113.13263672 19.25941406 112.69886719 18.44726562 112.25195312 C16.5068869 111.18180486 14.57480333 110.09901681 12.6484375 109.00390625 C13.23590415 103.82507404 14.07016935 98.84603074 15.2109375 93.75390625 C19.03583476 75.27685152 15.12322228 57.45181442 5.3984375 41.37890625 C-5.30485161 25.33553122 -20.47887175 14.63564173 -39.1875 9.69921875 C-59.25015673 5.79064935 -79.39945817 9.75540636 -96.3515625 21.00390625 C-99.96730189 23.76715424 -103.181696 26.74395473 -106.3515625 30.00390625 C-107.04636719 30.67808594 -107.74117187 31.35226563 -108.45703125 32.046875 C-122.05678302 46.06750883 -127.04002413 64.28861983 -126.890625 83.37280273 C-126.28134391 101.85991431 -118.92500522 118.13054719 -106.1171875 131.46875 C-91.29622647 145.05463094 -72.86089376 152.44526123 -52.7265625 152.21875 C-37.02866544 151.21946257 -21.25188364 145.78270663 -9.3515625 135.23046875 C-7.3515625 134.00390625 -7.3515625 134.00390625 -5.03125 133.95703125 C-1.1441082 135.47562309 1.49189665 137.93698776 4.5234375 140.75390625 C5.43222656 141.5428125 5.43222656 141.5428125 6.359375 142.34765625 C7.9731868 143.8294289 9.38267015 145.21551068 10.6484375 147.00390625 C10.73777574 150.07714187 10.18945199 151.30602957 8.328125 153.70703125 C-11.64215755 170.82441629 -36.29800747 178.05825672 -62.3515625 177.00390625 C-89.65852395 174.83914147 -112.07976875 161.99572997 -130.3515625 142.00390625 C-148.55562852 120.15180319 -152.77561841 93.59001734 -151.3515625 66.00390625 C-148.80566009 41.72159651 -134.26801324 19.35777005 -115.76147461 4.01708984 C-82.70151077 -22.12569678 -34.84266826 -23.38539446 0 0 Z " fill="#040707" transform="translate(240.3515625,102.99609375)"/>
<path d="M0 0 C-0.61811534 4.55315948 -2.46765893 8.28459767 -4.5625 12.3125 C-4.89185547 12.95767578 -5.22121094 13.60285156 -5.56054688 14.26757812 C-6.36824255 15.84785228 -7.18337613 17.42432105 -8 19 C-12.85070915 18.14556316 -17.32771368 16.56498307 -21.96484375 14.9375 C-31.66453063 11.94145772 -42.83442164 11.24747789 -52 16 C-54.24486594 17.89410563 -54.89694279 19.02095652 -55.203125 21.9296875 C-55.27497733 25.19896851 -55.03609487 27.89171538 -54 31 C-51.7839429 32.13712388 -51.7839429 32.13712388 -49 33 C-47.95328125 33.36738281 -46.9065625 33.73476562 -45.828125 34.11328125 C-44.64734375 34.50902344 -43.4665625 34.90476563 -42.25 35.3125 C-41.60385742 35.5297876 -40.95771484 35.7470752 -40.29199219 35.97094727 C-36.03541793 37.38318944 -31.75559189 38.64018718 -27.43212891 39.83007812 C-14.35591138 43.47000084 -4.23844316 48.09464663 2.875 60.1875 C6.07209086 71.02208569 5.79494062 81.15011187 0.5 91.125 C-4.99943627 99.65906496 -12.98950334 103.67822988 -22.59375 106.28125 C-43.39067274 110.6695915 -64.57862139 106.1216366 -83 96 C-82.38903209 93.08312094 -81.48685442 90.86584666 -79.93359375 88.328125 C-79.53076172 87.66425781 -79.12792969 87.00039062 -78.71289062 86.31640625 C-78.08157227 85.29353516 -78.08157227 85.29353516 -77.4375 84.25 C-77.01275391 83.55261719 -76.58800781 82.85523438 -76.15039062 82.13671875 C-75.10489914 80.42164283 -74.05306649 78.71043527 -73 77 C-69.28796049 77.59551436 -66.40446349 78.67569653 -63.0625 80.375 C-52.92951847 85.09916031 -41.1871174 87.97618374 -30.25 84.75 C-26.67707249 83.41939251 -24.17327453 82.25991179 -22 79 C-20.98349209 75.27280434 -20.65858056 72.97873571 -21.9375 69.3125 C-28.50482037 61.9491408 -40.36600129 60.53823992 -49.47070312 58.17578125 C-61.87534949 54.80794324 -72.05658177 50.41573785 -79.08984375 39.2734375 C-82.51204048 32.11363421 -82.15120873 21.83096521 -80.34375 14.24609375 C-76.55039916 4.8444699 -69.12551524 -1.89159833 -60 -6 C-40.59845644 -12.68583751 -18.07953297 -9.03976649 0 0 Z " fill="#040707" transform="translate(889,125)"/>
<path d="M0 0 C7.88077935 6.81072858 11.59612089 15.70892632 13.0625 25.875 C13.5823175 33.54024543 13.19385828 39.41524601 11.0625 46.875 C-6.7575 47.205 -24.5775 47.535 -42.9375 47.875 C-39.12244794 57.17676382 -39.12244794 57.17676382 -31.6015625 61.953125 C-23.77255339 64.66228358 -15.43762317 62.81441558 -7.9375 59.875 C-6.266875 59.00875 -6.266875 59.00875 -4.5625 58.125 C-1.9375 56.875 -1.9375 56.875 -0.04296875 56.93359375 C3.19700522 58.38226486 4.44068723 60.76304541 6.375 63.6875 C7.09300781 64.74582031 7.81101562 65.80414063 8.55078125 66.89453125 C10.0625 69.875 10.0625 69.875 10.1328125 72.0703125 C6.58160424 78.05811621 -4.27789394 80.61395782 -10.70703125 82.3515625 C-23.50754271 85.35553542 -37.75643068 84.73891922 -49.375 78.125 C-59.12762812 71.58068326 -65.09668468 63.17401526 -68.3125 51.75 C-70.73830368 37.85216639 -69.70471543 23.27245174 -62.25 11.0625 C-55.6073995 1.96029679 -46.76417229 -4.69202418 -35.60546875 -6.8046875 C-23.00712633 -8.31722641 -10.63233867 -7.50831261 0 0 Z M-40.3125 18.75 C-42.33601032 22.38705124 -42.33601032 22.38705124 -43.9375 28.875 C-32.7175 28.875 -21.4975 28.875 -9.9375 28.875 C-10.98401826 19.28026709 -10.98401826 19.28026709 -15.9375 12.875 C-24.88555141 7.50616916 -34.1712846 11.31589715 -40.3125 18.75 Z " fill="#040707" transform="translate(1101.9375,149.125)"/>
<path d="M0 0 C7.88536877 6.81469484 11.57759196 15.70715509 13.0625 25.875 C13.47764467 32.57881771 13.41157857 39.27950479 12.0625 45.875 C10.38313825 47.55436175 8.29739172 47.04287879 5.99194336 47.08032227 C4.91089828 47.10026749 3.82985321 47.12021271 2.71604919 47.14076233 C0.952015 47.16583107 0.952015 47.16583107 -0.84765625 47.19140625 C-2.04482773 47.21218735 -3.24199921 47.23296844 -4.47544861 47.25437927 C-8.31690487 47.32000279 -12.15843201 47.37881903 -16 47.4375 C-18.59701267 47.48067305 -21.19401806 47.52428693 -23.79101562 47.56835938 C-30.17310117 47.67569716 -36.55525793 47.77743931 -42.9375 47.875 C-42.32877511 49.32724097 -41.71116991 50.77576177 -41.08984375 52.22265625 C-40.74687256 53.02968994 -40.40390137 53.83672363 -40.05053711 54.66821289 C-37.67673251 59.37468794 -33.71975042 61.22014501 -28.9375 62.875 C-20.20205699 63.90822444 -12.31641157 62.14554674 -4.5625 58.125 C-1.9375 56.875 -1.9375 56.875 -0.04296875 56.8984375 C3.23293534 58.41787354 4.60480528 61.24681773 6.375 64.25 C6.74689453 64.84039062 7.11878906 65.43078125 7.50195312 66.0390625 C8.55078125 67.7734375 8.55078125 67.7734375 10.0625 70.875 C9.0625 73.875 9.0625 73.875 6.69140625 75.375 C-10.06822585 83.57334233 -25.76815586 86.42384677 -43.9375 80.875 C-56.44472492 75.25951126 -62.9498568 66.33063863 -67.75390625 53.734375 C-71.41908731 40.7140115 -69.72613426 25.24849685 -63.65234375 13.359375 C-57.73775701 3.67197388 -48.81900704 -3.38841116 -37.875 -6.375 C-24.8413056 -8.84265298 -11.05459995 -7.8065038 0 0 Z M-40.3125 18.75 C-42.33601032 22.38705124 -42.33601032 22.38705124 -43.9375 28.875 C-32.7175 28.875 -21.4975 28.875 -9.9375 28.875 C-11.06416963 18.71700185 -11.06416963 18.71700185 -16.9375 12.875 C-25.78420125 7.77813508 -34.20640034 11.35840568 -40.3125 18.75 Z " fill="#040707" transform="translate(750.9375,149.125)"/>
<path d="M0 0 C7.14258014 5.82648092 11.73920409 13.46267053 13.03515625 22.66015625 C13.17514512 26.01543323 13.17468146 29.36491236 13.16015625 32.72265625 C13.16402344 33.62048828 13.16789062 34.51832031 13.171875 35.44335938 C13.17058594 36.31025391 13.16929688 37.17714844 13.16796875 38.0703125 C13.16684082 38.85543213 13.16571289 39.64055176 13.16455078 40.44946289 C13.03515625 42.66015625 13.03515625 42.66015625 12.03515625 46.66015625 C-6.11484375 46.66015625 -24.26484375 46.66015625 -42.96484375 46.66015625 C-39.03669702 56.26077414 -39.03669702 56.26077414 -31.33984375 61.97265625 C-21.66774464 63.94289866 -14.06070231 62.10727277 -4.96484375 58.66015625 C-2.96741629 57.98582102 -0.96807479 57.31705033 1.03515625 56.66015625 C2.33353801 58.38428645 3.62359372 60.11468857 4.91015625 61.84765625 C5.62945313 62.81058594 6.34875 63.77351563 7.08984375 64.765625 C8.84112224 67.371443 10.00975419 69.70807769 11.03515625 72.66015625 C-5.15466089 81.61667795 -21.50039887 86.83848614 -39.96484375 81.66015625 C-51.61259965 77.74477884 -59.38610317 70.54476422 -64.96484375 59.66015625 C-69.99105261 48.46205857 -70.42100504 33.32866408 -66.96484375 21.66015625 C-62.28024538 9.72487377 -55.64748616 1.19131881 -43.96484375 -4.33984375 C-29.65968847 -10.2080576 -12.59693797 -9.04224648 0 0 Z M-39.70703125 18.88671875 C-42.01971307 22.14745647 -42.96484375 24.68007429 -42.96484375 28.66015625 C-32.07484375 28.66015625 -21.18484375 28.66015625 -9.96484375 28.66015625 C-10.98004423 18.68014414 -10.98004423 18.68014414 -17.15234375 11.78515625 C-26.32803034 8.11488162 -33.7805079 11.53286517 -39.70703125 18.88671875 Z " fill="#040707" transform="translate(1190.96484375,149.33984375)"/>
<path d="M0 0 C6.80058625 5.82907393 10.90373095 11.66090669 11.90039062 20.76580811 C12.01462884 23.47010464 12.04005756 26.16053737 12.03125 28.8671875 C12.04208618 29.84615997 12.05292236 30.82513245 12.06408691 31.83377075 C12.1096904 35.98646582 12.12150387 40.13909125 12.13623047 44.29199219 C12.15187351 47.33811921 12.1848355 50.38371817 12.21875 53.4296875 C12.21572876 54.37029022 12.21270752 55.31089294 12.20959473 56.27999878 C12.21970581 57.1516568 12.22981689 58.02331482 12.24023438 58.92138672 C12.24228882 59.68699921 12.24434326 60.45261169 12.24645996 61.24142456 C12.73017071 63.80804744 13.58265985 64.6637655 15.625 66.25 C17.11 66.745 17.11 66.745 18.625 67.25 C18.625 72.86 18.625 78.47 18.625 84.25 C1.37378412 84.8517866 1.37378412 84.8517866 -5.10546875 79.9375 C-6.5 78.5625 -6.5 78.5625 -8.375 76.25 C-11.60674165 77.32724722 -14.11504157 78.71791465 -16.8125 80.75 C-23.61429347 85.7020552 -31.77959789 86.76236967 -40.0625 86.00390625 C-48.05593532 84.62698828 -54.03821349 81.60551667 -59.1484375 75.15625 C-62.78430755 69.50559846 -62.75712205 63.44496251 -61.97265625 56.92578125 C-60.36633374 49.73407588 -55.47123216 44.18738298 -49.375 40.25 C-37.74429723 34.23824174 -25.34618303 31.92777353 -12.375 31.25 C-12.60360572 29.30985937 -12.85869181 27.37282586 -13.125 25.4375 C-13.26421875 24.35855469 -13.4034375 23.27960938 -13.546875 22.16796875 C-14.14602541 19.21544804 -14.14602541 19.21544804 -16.09375 17.3984375 C-21.36202512 14.7462579 -27.90648555 15.28406421 -33.47900391 16.8359375 C-37.02816989 18.0267287 -40.48734783 19.39892139 -43.94140625 20.83984375 C-47.375 22.25 -47.375 22.25 -51.375 23.25 C-54.345 17.64 -57.315 12.03 -60.375 6.25 C-46.78893072 -7.33606928 -16.42452564 -8.5164207 0 0 Z M-36.375 54.125 C-37.8900234 57.34442473 -37.81279871 59.74761036 -37.375 63.25 C-35.1836406 66.71965238 -33.62205783 67.18823554 -29.625 68.1875 C-23.84126877 68.63985887 -19.53575487 66.51975394 -14.65625 63.65234375 C-11.95599428 60.80875254 -11.84795436 59.06500837 -11.93554688 55.2109375 C-11.97744141 54.48132813 -12.01933594 53.75171875 -12.0625 53 C-12.08505859 52.25492188 -12.10761719 51.50984375 -12.13085938 50.7421875 C-12.18956439 48.910591 -12.27924243 47.08003347 -12.375 45.25 C-21.81249255 45.25 -29.4684806 47.65013806 -36.375 54.125 Z " fill="#040707" transform="translate(559.375,146.75)"/>
<path d="M0 0 C7.17441174 4.73781907 9.86303105 11.00209924 11.60296631 19.22653198 C12.44025576 25.07539457 12.24119547 30.98343205 12.1953125 36.87890625 C12.1915749 38.30093689 12.18873146 39.72297012 12.18673706 41.14500427 C12.17915931 44.85872713 12.15956239 48.57228954 12.1373291 52.28594971 C12.11674326 56.08709545 12.10770831 59.88826752 12.09765625 63.68945312 C12.07630993 71.12638314 12.04117683 78.5631485 12 86 C3.75 86 -4.5 86 -13 86 C-13.0093457 84.08743408 -13.01869141 82.17486816 -13.02832031 80.2043457 C-13.0638735 73.87781702 -13.11768763 67.55164874 -13.18390274 61.22536945 C-13.22337442 57.39054491 -13.2555641 53.55594987 -13.27099609 49.72094727 C-13.28616521 46.01833903 -13.32061388 42.31636175 -13.36830902 38.61403465 C-13.38312045 37.20314208 -13.39104089 35.79215941 -13.39188385 34.38118935 C-13.39425557 32.40156133 -13.42363126 30.42202188 -13.45410156 28.44262695 C-13.46298401 27.31677689 -13.47186646 26.19092682 -13.48101807 25.03096008 C-14.11483438 21.32934385 -15.37329347 19.6407185 -18 17 C-23.13086691 15.73496237 -28.41583693 16.27888091 -33 18.9375 C-34.485 19.9584375 -34.485 19.9584375 -36 21 C-36.99 21.33 -37.98 21.66 -39 22 C-40.06709042 25.20127126 -40.15673203 27.57357623 -40.20532227 30.94018555 C-40.22526749 32.16122482 -40.24521271 33.3822641 -40.26576233 34.64030457 C-40.28247482 35.95912125 -40.29918732 37.27793793 -40.31640625 38.63671875 C-40.3369826 40.00007244 -40.35797925 41.36341985 -40.37937927 42.72676086 C-40.4345297 46.31221422 -40.48396987 49.89772448 -40.53222656 53.48327637 C-40.58249299 57.1431992 -40.63815219 60.80303957 -40.69335938 64.46289062 C-40.80085497 71.64185915 -40.90182045 78.82089692 -41 86 C-48.92 86 -56.84 86 -65 86 C-65 57.29 -65 28.58 -65 -1 C-57.41 -1 -49.82 -1 -42 -1 C-41.67 1.64 -41.34 4.28 -41 7 C-40.55011719 6.61328125 -40.10023438 6.2265625 -39.63671875 5.828125 C-28.40151107 -3.26811529 -13.41162196 -6.73296001 0 0 Z " fill="#040707" transform="translate(657,145)"/>
<path d="M0 0 C8.25 0 16.5 0 25 0 C25.06794737 10.90990914 25.1229149 21.81967628 25.15543652 32.72974968 C25.17105021 37.796476 25.19220958 42.86304925 25.22631836 47.9296875 C25.25906555 52.82505917 25.27688528 57.72028418 25.28463173 62.61575699 C25.29014777 64.47754345 25.30091888 66.33932246 25.31719017 68.20104599 C25.44014833 82.86107681 24.59258315 94.33065204 14.44140625 105.75390625 C6.49021529 113.36188033 -4.36259897 115.08928274 -15 115 C-26.96299803 114.28465533 -37.52716366 109.47283634 -46 101 C-46.33 100.01 -46.66 99.02 -47 98 C-44.60268701 95.62541247 -42.17934032 93.2792763 -39.75 90.9375 C-38.72712891 89.92333008 -38.72712891 89.92333008 -37.68359375 88.88867188 C-37.01972656 88.25380859 -36.35585938 87.61894531 -35.671875 86.96484375 C-35.0644043 86.3730835 -34.45693359 85.78132324 -33.83105469 85.17163086 C-32 84 -32 84 -29.87255859 84.24243164 C-27.82468674 85.0709253 -26.51251198 86.02538188 -24.875 87.5 C-20.56462022 91.24815633 -18.03278428 91.28279867 -12.4765625 91.21875 C-8.21254111 90.8421172 -5.99801091 89.14058389 -3.25 86 C-0.67757831 81.8841253 -0.83080657 77.91066936 -0.79467773 73.22387695 C-0.78477814 72.43339966 -0.77487854 71.64292236 -0.76467896 70.82849121 C-0.73308607 68.21511838 -0.70831526 65.60172737 -0.68359375 62.98828125 C-0.66302231 61.17652412 -0.64202579 59.36477177 -0.62062073 57.55302429 C-0.56541965 52.78388336 -0.51600169 48.01469926 -0.46777344 43.2454834 C-0.4175441 38.37911129 -0.36186551 33.5128019 -0.30664062 28.64648438 C-0.19908304 19.09770783 -0.09813625 9.54887803 0 0 Z " fill="#040707" transform="translate(457,118)"/>
<path d="M0 0 C7.92 0 15.84 0 24 0 C24 6.93 24 13.86 24 21 C30.27 21 36.54 21 43 21 C43 26.94 43 32.88 43 39 C36.73 39 30.46 39 24 39 C24.09355251 45.33571069 24.19965128 51.67104005 24.31738281 58.00634766 C24.35566602 60.16156253 24.39052004 62.31684116 24.421875 64.47216797 C24.4675395 67.57021876 24.52553212 70.66783091 24.5859375 73.765625 C24.59748871 74.72929993 24.60903992 75.69297485 24.62094116 76.68585205 C24.64081085 77.58648376 24.66068054 78.48711548 24.68115234 79.41503906 C24.69447601 80.20557678 24.70779968 80.9961145 24.7215271 81.81060791 C25.03812403 84.29973632 25.61990142 85.90541299 27 88 C33.16538086 89.92668152 38.06781051 88.1126711 44 86 C45.39533117 88.07203685 46.76549477 90.15465696 48.125 92.25 C48.52332031 92.83652344 48.92164063 93.42304688 49.33203125 94.02734375 C50.4453125 95.765625 50.4453125 95.765625 52 99 C51.37680146 101.83628942 50.42840705 102.67350873 48.14453125 104.4140625 C38.09233672 109.63379501 26.77562402 111.23547843 15.66015625 108.88671875 C9.85356643 106.95118881 5.72043448 103.60076347 2.5625 98.375 C0.51182379 93.94553938 -0.12533651 90.63864258 -0.11352539 85.77246094 C-0.11344986 84.73168396 -0.11337433 83.69090698 -0.11329651 82.61859131 C-0.10813522 81.50179993 -0.10297394 80.38500854 -0.09765625 79.234375 C-0.0962413 78.08584045 -0.09482635 76.93730591 -0.09336853 75.75396729 C-0.08777143 72.08595169 -0.07521944 68.41799715 -0.0625 64.75 C-0.05748463 62.26302171 -0.05292178 59.77604247 -0.04882812 57.2890625 C-0.03780295 51.19268481 -0.02054027 45.09635276 0 39 C-4.62 39 -9.24 39 -14 39 C-14 33.06 -14 27.12 -14 21 C-9.38 21 -4.76 21 0 21 C0 14.07 0 7.14 0 0 Z " fill="#040707" transform="translate(1224,123)"/>
<path d="M0 0 C7.92 0 15.84 0 24 0 C24 6.93 24 13.86 24 21 C30.27 21 36.54 21 43 21 C43 26.94 43 32.88 43 39 C36.73 39 30.46 39 24 39 C24.09355251 45.33571069 24.19965128 51.67104005 24.31738281 58.00634766 C24.35566602 60.16156253 24.39052004 62.31684116 24.421875 64.47216797 C24.4675395 67.57021876 24.52553212 70.66783091 24.5859375 73.765625 C24.59748871 74.72929993 24.60903992 75.69297485 24.62094116 76.68585205 C24.64081085 77.58648376 24.66068054 78.48711548 24.68115234 79.41503906 C24.69447601 80.20557678 24.70779968 80.9961145 24.7215271 81.81060791 C25.03812403 84.29973632 25.61990142 85.90541299 27 88 C33.16538086 89.92668152 38.06781051 88.1126711 44 86 C45.39533117 88.07203685 46.76549477 90.15465696 48.125 92.25 C48.52332031 92.83652344 48.92164063 93.42304688 49.33203125 94.02734375 C50.4453125 95.765625 50.4453125 95.765625 52 99 C51.36800109 101.76381612 50.57447621 102.60407721 48.265625 104.1953125 C36.52220193 109.6118526 25.72301123 111.46483176 13 108 C6.58749726 104.67923965 3.07855445 100.19991118 0.62411499 93.43579102 C-0.60526087 88.6377927 -0.36249364 83.76561495 -0.29296875 78.84375 C-0.28872391 77.70087524 -0.28447906 76.55800049 -0.28010559 75.38049316 C-0.26339974 71.75341591 -0.22576156 68.1269075 -0.1875 64.5 C-0.17244275 62.03125806 -0.15875617 59.56250736 -0.14648438 57.09375 C-0.11352257 51.06228298 -0.06179547 45.03123773 0 39 C-4.62 39 -9.24 39 -14 39 C-14 33.06 -14 27.12 -14 21 C-9.38 21 -4.76 21 0 21 C0 14.07 0 7.14 0 0 Z " fill="#040707" transform="translate(912,123)"/>
<path d="M0 0 C0.72445312 -0.00386719 1.44890625 -0.00773438 2.1953125 -0.01171875 C5.39282879 -0.00581927 7.94582607 0.10694202 11 1.125 C10.55641614 4.77278832 10.09268187 8.41772927 9.625 12.0625 C9.43550781 13.62387695 9.43550781 13.62387695 9.2421875 15.21679688 C9.11328125 16.20615234 8.984375 17.19550781 8.8515625 18.21484375 C8.73635254 19.13128662 8.62114258 20.04772949 8.50244141 20.99194336 C8.33663574 21.69585205 8.17083008 22.39976074 8 23.125 C5.44110398 24.40444801 4.7170718 23.83547107 2 23.125 C-4.22302561 22.63618228 -9.77663549 22.32618944 -15 26.125 C-21.42723335 32.62474566 -21.42723335 32.62474566 -23.20532227 41.21728516 C-23.22526749 42.27823395 -23.24521271 43.33918274 -23.26576233 44.43228149 C-23.28247482 45.58126923 -23.29918732 46.73025696 -23.31640625 47.9140625 C-23.33718735 49.08762299 -23.35796844 50.26118347 -23.37937927 51.4703064 C-23.44491983 55.23014304 -23.50378076 58.99005122 -23.5625 62.75 C-23.60568092 65.29427832 -23.64929507 67.83854933 -23.69335938 70.3828125 C-23.80142339 76.63013599 -23.90046374 82.87751145 -24 89.125 C-31.92 89.125 -39.84 89.125 -48 89.125 C-48 60.415 -48 31.705 -48 2.125 C-40.74 2.125 -33.48 2.125 -26 2.125 C-25.34 5.425 -24.68 8.725 -24 12.125 C-23.01 10.7946875 -23.01 10.7946875 -22 9.4375 C-16.04943716 2.26282138 -9.07427982 -0.04843922 0 0 Z " fill="#040707" transform="translate(1022,141.875)"/>
</svg>
