<svg width="180" height="59" xmlns="http://www.w3.org/2000/svg" xmlns:xlink="http://www.w3.org/1999/xlink"><defs><path id="a" d="M0 0h63.684v58.665H0z"/></defs><g fill="none" fill-rule="evenodd"><path fill="#002554" fill-rule="nonzero" d="M22.52 16.383l-8.508 20.65H8.481L0 16.383h6.07l5.389 13.452 5.502-13.452h5.559m4.73 20.65h5.616v-20.65H27.25zm18.797 0h-5.616v-20.65h9.077a11 11 0 0 1 4.68.93 7.041 7.041 0 0 1 3.063 2.655 7.531 7.531 0 0 1 1.08 4.056 7.452 7.452 0 0 1-1.007 3.908 6.928 6.928 0 0 1-2.879 2.61l4.282 6.489h-6.014l-3.6-5.487h-3.066v5.489zm0-16.048v6.048h3.121a3.835 3.835 0 0 0 2.609-.782 2.837 2.837 0 0 0 .879-2.227 2.886 2.886 0 0 0-.879-2.241 3.786 3.786 0 0 0-2.609-.8l-3.121.002zm22.885.029h-6.1v-4.631h17.783v4.631h-6.07v16.019h-5.613V21.014m19.32 13.925c-1.635-1.671-2.453-4.041-2.453-7.109V16.383h5.616v11.27c0 3.303 1.257 4.955 3.772 4.955 2.497 0 3.745-1.652 3.745-4.955v-11.27h5.53V27.83c0 3.067-.818 5.436-2.453 7.109a9.183 9.183 0 0 1-6.878 2.507 9.181 9.181 0 0 1-6.878-2.507M7.77 48.183v4.228h5.847v1.49H7.77v4.9H6.104V46.676h8.229v1.507H7.77m11.35 10.621h1.666V46.676H19.12zm17.629-12.128v12.128h-1.366l-7-9.044v9.044h-1.662V46.676h1.366l7 9.043v-9.043h1.666m30.594 0v12.128h-1.366l-7-9.044v9.044h-1.662V46.676h1.366l7 9.043v-9.043h1.665M42.637 58.804h-1.716l5.281-12.128h1.649l5.3 12.127h-1.752l-1.278-3.027h-6.2l-1.284 3.028zm4.384-10.361l-2.518 5.943h5.031l-2.513-5.943zm28.32 9.694a5.8 5.8 0 0 1-2.208-2.218 6.332 6.332 0 0 1-.8-3.182 6.337 6.337 0 0 1 .8-3.18 5.8 5.8 0 0 1 2.216-2.214 6.288 6.288 0 0 1 3.165-.806 6.373 6.373 0 0 1 2.5.477 5.132 5.132 0 0 1 1.933 1.411l-1.085 1.092a4.267 4.267 0 0 0-3.282-1.438 4.608 4.608 0 0 0-2.347.607 4.312 4.312 0 0 0-1.642 1.671 4.826 4.826 0 0 0-.592 2.38 4.823 4.823 0 0 0 .592 2.382c.382.7.95 1.28 1.642 1.675a4.613 4.613 0 0 0 2.349.607 4.275 4.275 0 0 0 3.28-1.456l1.083 1.092a5.186 5.186 0 0 1-1.941 1.422 6.354 6.354 0 0 1-2.507.484 6.237 6.237 0 0 1-3.156-.806m12.424.667h1.666V46.676h-1.666zm7.552 0H93.6l5.281-12.128h1.649l5.3 12.127h-1.752l-1.278-3.027h-6.2l-1.283 3.028zM99.7 48.443l-2.518 5.943h5.03L99.7 48.443zm10.299-1.767h1.665v10.621h6.313v1.507h-7.978V46.676"/><path d="M115.779.335h63.684V59h-63.684z"/><g transform="translate(115.779 .335)"><mask id="b" fill="#fff"><use xlink:href="#a"/></mask><g mask="url(#b)" fill-rule="nonzero"><path d="M14.232 16.109l-12.767-.043a1.519 1.519 0 0 0-1.231 2.336l6.231 10.09 7.767-12.383" fill="#1C716B"/><path d="M48.104 0a3.408 3.408 0 0 0-2.9 1.63L17.855 45.3a1.581 1.581 0 0 0 0 1.659l6.722 10.868a1.718 1.718 0 0 0 2.946.009L63.684.052 48.104 0" fill="#0C9"/></g></g><path d="M130.524 16.444l-13.28-.043a1.519 1.519 0 0 0-1.231 2.336l6.466 10.538 8.045-12.831" fill="#0E7A77" fill-rule="nonzero"/><path d="M132.364 45.138l23.339-37.32-16.233-.052a3.407 3.407 0 0 0-2.9 1.63l-12.763 20.329a1.584 1.584 0 0 0 0 1.664l8.557 13.749" fill="#099D91" fill-rule="nonzero"/></g></svg>